<?xml version="1.0" standalone="no"?>
<!DOCTYPE svg PUBLIC "-//W3C//DTD SVG 1.1//EN" "http://www.w3.org/Graphics/SVG/1.1/DTD/svg11.dtd" >
<svg xmlns="http://www.w3.org/2000/svg" xmlns:xlink="http://www.w3.org/1999/xlink" version="1.1">
<metadata>
Created by FontForge 20170731 at Sat Oct 17 16:31:26 2020
 By Aleksey,,,
Copyright (c) 2020 by Artem Nevsky. All rights reserved.
</metadata>
<defs>
<font id="NewYork" horiz-adv-x="558" >
  <font-face 
    font-family="NewYork"
    font-weight="400"
    font-stretch="normal"
    units-per-em="1000"
    panose-1="2 0 5 3 0 0 0 2 0 4"
    ascent="800"
    descent="-200"
    x-height="481"
    cap-height="700"
    bbox="-58 -267 1492 949.321"
    underline-thickness="50"
    underline-position="-200"
    unicode-range="U+0020-F6C3"
  />
<missing-glyph horiz-adv-x="230" 
 />
    <glyph glyph-name=".notdef" horiz-adv-x="230" 
 />
    <glyph glyph-name=".null" horiz-adv-x="0" 
 />
    <glyph glyph-name="nonmarkingreturn" horiz-adv-x="333" 
 />
    <glyph glyph-name="space" unicode=" " horiz-adv-x="230" 
 />
    <glyph glyph-name="exclam" unicode="!" horiz-adv-x="200" 
d="M104 183h-7l-57 517h120zM100 103q23 0 39 -16t16 -38q0 -23 -16.5 -39t-38.5 -16t-38 16t-16 39t16 38.5t38 15.5z" />
    <glyph glyph-name="quotedbl" unicode="&#x22;" horiz-adv-x="233" 
d="M69 721q30 0 29 -38q-6 -146 -29 -146q-22 0 -28 146q-1 38 28 38zM164 721q29 0 28 -38q-4 -146 -28 -146t-28 146q-1 38 28 38z" />
    <glyph glyph-name="numbersign" unicode="#" horiz-adv-x="1203" 
d="M1163 533h-327l-88 -367h324v-7h-326l-78 -326h-7l78 326h-367l-78 -326h-8l78 326h-324v7h326l88 367h-324v8h326l78 325h8l-78 -325h367l78 325h7l-78 -325h325v-8zM741 166l88 367h-367l-88 -367h367z" />
    <glyph glyph-name="dollar" unicode="$" horiz-adv-x="600" 
d="M560 197q0 -85 -65.5 -141t-166.5 -61v-102h-8v102h-9q-83 0 -144 24t-127 74l30 115h7q38 -77 100 -129.5t143 -61.5v300q-38 15 -62 26t-54.5 30t-48 39t-30 50t-12.5 66q0 67 52.5 121.5t154.5 59.5v98h8v-97h10q99 0 220 -94l-30 -104h-7q-73 173 -193 185v-281
q48 -18 68.5 -26.5t59 -29.5t56.5 -40.5t33 -51.5t15 -71zM150 581q-3 -33 8.5 -58t39.5 -44.5t53.5 -31.5t68.5 -28v278h-7q-71 0 -114.5 -34t-48.5 -82zM353 15q63 0 110 35t53 82q3 22 -1.5 41.5t-11 33.5t-24.5 29t-29 23t-38.5 20.5t-39 17t-44.5 17.5v-298q8 -1 25 -1
z" />
    <glyph glyph-name="percent" unicode="%" horiz-adv-x="1045" 
d="M732 743h7l-408 -777h-7zM450 514q0 -82 -61 -138.5t-144 -56.5t-144 57t-61 138q0 82 61 139t144 57q84 0 144.5 -57t60.5 -139zM245 328q63 0 102 54t39 132q0 79 -38.5 133t-102.5 54t-102.5 -54t-38.5 -133q0 -78 39 -132t102 -54zM800 386q84 0 144.5 -57t60.5 -139
t-61 -138.5t-144 -56.5t-144 57t-61 138q0 82 61 139t144 57zM800 4q63 0 102 54t39 132q0 79 -38.5 133t-102.5 54t-102.5 -54t-38.5 -133q0 -78 39 -132t102 -54z" />
    <glyph glyph-name="ampersand" unicode="&#x26;" horiz-adv-x="822" 
d="M769 582q27 -47 -1.5 -110t-84.5 -99q-58 -37 -124 -18q21 -18 33 -51.5t13 -74t-15 -82t-46 -76t-84 -56t-125 -21.5q-118 0 -199.5 57t-92.5 128q-18 114 65.5 177t198.5 34q-99 32 -135 54q-80 50 -74 132q7 97 127 135q108 36 269 -25l-19 -103h-7q-48 80 -113 113
t-117 11q-30 -13 -47 -46.5t-17 -79.5q0 -66 48.5 -120.5t137.5 -86.5q-1 -3 -3 -7q-116 42 -181 -18.5t-55 -174.5q6 -69 66 -119t153 -50q60 0 108.5 17t77.5 45t47.5 63t22 71t-1.5 69t-21 58t-39 36q-48 -94 -91 -126q-32 -24 -66.5 -23.5t-45.5 25.5q-8 19 0.5 38.5
t33.5 39t44.5 31.5t51.5 30l2 -6q-110 -61 -94 -108q7 -21 30.5 -21t47.5 15q7 4 13.5 9.5t13 13t11.5 14.5t12 18t11 18.5t11.5 21.5t11 21l11.5 23l11 22q10 19 26.5 55t25.5 55t24 40.5t29 31.5q34 23 64 16.5t47 -36.5zM680 377q47 31 61 83.5t-11 87.5q-38 55 -85 22
q-9 -6 -20.5 -24t-20 -34.5t-23 -48t-21.5 -45.5q-7 -15 -23 -47q78 -36 143 6z" />
    <glyph glyph-name="quotesingle" unicode="'" horiz-adv-x="139" 
d="M69 721q30 0 29 -38q-6 -146 -29 -146q-22 0 -28 146q-1 38 28 38z" />
    <glyph glyph-name="parenleft" unicode="(" horiz-adv-x="329" 
d="M48 301q0 -178 64 -298t177 -154l-2 -7q-116 34 -181.5 156t-65.5 303t65.5 303t181.5 157l2 -8q-113 -34 -177 -154t-64 -298z" />
    <glyph glyph-name="parenright" unicode=")" horiz-adv-x="329" 
d="M281 301q0 178 -64 298t-177 154l2 8q116 -35 181.5 -157t65.5 -303t-65.5 -303t-181.5 -156l-2 7q113 34 177 154t64 298z" />
    <glyph glyph-name="asterisk" unicode="*" horiz-adv-x="322" 
d="M280 635q3 -13 -3 -24.5t-25 -14.5q-60 -7 -69 -7q13 -9 52 -47q14 -15 12 -27t-13 -20q-8 -8 -22.5 -5.5t-22.5 19.5q-24 52 -28 64q-2 -6 -5.5 -14t-10.5 -23t-12 -27q-17 -34 -46 -14q-11 8 -12 20t12 27q39 38 52 47q-9 0 -70 7q-19 3 -25 14.5t-2 24.5q4 12 15 17.5
t30 -2.5q54 -30 60 -35q-5 15 -14 68q-3 19 5.5 28.5t22.5 9.5q13 0 22 -9.5t6 -28.5q-8 -45 -15 -68q13 9 61 35q19 8 30 2.5t15 -17.5z" />
    <glyph glyph-name="plus" unicode="+" horiz-adv-x="465" 
d="M425 354v-8h-189v-189h-8v189h-188v8h188v188h8v-188h189z" />
    <glyph glyph-name="comma" unicode="," horiz-adv-x="188" 
d="M94 103q22 0 38 -15.5t16 -38.5q0 -75 -89 -148l-6 5q62 53 78 103q-17 -15 -37 -15q-22 0 -38 16t-16 39t16 38.5t38 15.5z" />
    <glyph glyph-name="hyphen" unicode="-" horiz-adv-x="465" 
d="M40 354h385v-8h-385v8z" />
    <glyph glyph-name="period" unicode="." horiz-adv-x="189" 
d="M95 103q23 0 38.5 -15.5t15.5 -38.5t-16 -39t-38 -16q-23 0 -39 16t-16 39q0 22 16 38t39 16z" />
    <glyph glyph-name="slash" unicode="/" horiz-adv-x="444" 
d="M396 866h8l-356 -1033h-8z" />
    <glyph glyph-name="zero" unicode="0" horiz-adv-x="606" 
d="M303 710q108 0 190.5 -105.5t82.5 -252.5q0 -156 -79 -257t-194 -101q-108 0 -190.5 106t-82.5 252q0 156 79 257t194 101zM376 18q60 23 93 90t34 150.5t-17 175.5q-31 139 -100 212.5t-157 39.5q-59 -23 -92 -90t-34 -150t17 -175q31 -139 100 -213t156 -40z" />
    <glyph glyph-name="one" unicode="1" horiz-adv-x="216" 
d="M153 66q0 -45 23 -59v-7h-122v7q23 13 23 59v503q0 48 -14 54t-60 -16l-3 6l153 87v-634z" />
    <glyph glyph-name="two" unicode="2" horiz-adv-x="523" 
d="M485 118h8l-16 -118h-447v7q66 50 126 108.5t116 129.5t87.5 150t27.5 151q-4 67 -34.5 110t-90.5 44q-56 1 -106.5 -56.5t-64.5 -153.5h-7l-41 115q113 98 215 105q79 5 137.5 -36t72.5 -108q25 -120 -58.5 -225t-285.5 -267h281q61 0 80 44z" />
    <glyph glyph-name="three" unicode="3" horiz-adv-x="557" 
d="M256 388q116 32 201 -31t67 -178q-11 -71 -79.5 -128t-169.5 -57q-69 0 -134.5 28t-110.5 72l40 125h8q14 -96 69.5 -154t122.5 -60q83 -3 126 46t50 123q11 114 -54.5 174.5t-181.5 18.5l-3 7q91 33 140 86.5t46 120.5q-2 57 -29 88t-73 31q-67 0 -117 -48.5t-64 -144.5
h-7l-41 104q44 43 108 71t126 28q80 0 126.5 -36t46.5 -98q0 -23 -7 -43.5t-14.5 -35t-26 -29.5t-28 -22.5t-36 -19t-34 -14.5t-37 -13.5t-30.5 -10.5z" />
    <glyph glyph-name="four" unicode="4" horiz-adv-x="595" 
d="M565 158h-104v-92q0 -46 23 -59v-7h-122v7q23 14 23 59v92h-345v7l345 447v88h76v-535h104v-7zM50 165h335v436z" />
    <glyph glyph-name="five" unicode="5" horiz-adv-x="567" 
d="M129 398q71 36 146.5 38t132.5 -25t90.5 -81.5t26.5 -123.5q-10 -87 -79.5 -149.5t-180.5 -62.5q-133 0 -235 100l41 125h7q14 -97 65 -154.5t117 -59.5q90 -3 136.5 56t50.5 140q7 132 -81.5 189t-241.5 -1l-3 7l52 304h250q62 0 80 44h7l-16 -119h-326z" />
    <glyph glyph-name="six" unicode="6" horiz-adv-x="564" 
d="M99 325q70 50 141 68.5t125.5 5.5t96 -44t60 -78t9.5 -98q-12 -72 -80.5 -128.5t-169.5 -56.5q-69 0 -134.5 36t-91.5 108q-31 79 -23.5 151.5t39 134.5t87.5 116t122 95.5t143 73.5l3 -7q-49 -21 -87.5 -41t-85 -54.5t-77.5 -72t-53 -92t-24 -117.5zM463 174
q5 79 -35.5 136t-123 69t-205.5 -60q0 -78 17.5 -145t59 -115.5t100.5 -53.5q85 -7 134 43.5t53 125.5z" />
    <glyph glyph-name="seven" unicode="7" horiz-adv-x="514" 
d="M36 710h468v-7q-35 -21 -70 -47t-75.5 -66.5t-72 -85t-54 -102.5t-27.5 -119t13.5 -134.5t63.5 -148.5h-118q-21 67 -24.5 134t10 125.5t37 113t58.5 102.5t72 87t79 74h-288q-62 0 -81 -44h-7z" />
    <glyph glyph-name="eight" unicode="8" horiz-adv-x="560" 
d="M318 393q109 -55 145 -84q67 -54 67 -125q0 -80 -71.5 -135t-176.5 -55q-110 0 -181 45.5t-71 126.5q0 128 181 209q-58 34 -89.5 74.5t-30.5 97.5q2 67 61.5 115t144.5 48q77 0 129.5 -41t52.5 -110q0 -104 -161 -166zM146 580q-3 -61 39.5 -101t124.5 -82
q112 50 106 173q-2 63 -43.5 96.5t-87.5 33.5q-49 0 -92.5 -31t-46.5 -89zM292 5q20 0 44.5 5t57 17t55.5 40.5t25 68.5q2 36 -11.5 66t-44 54t-58 40t-74 39t-70.5 37q-122 -55 -122 -171q0 -102 58 -149t140 -47z" />
    <glyph glyph-name="nine" unicode="9" horiz-adv-x="563" 
d="M464 378q-70 -50 -141 -68.5t-125.5 -5.5t-96 43.5t-59.5 78t-9 98.5q12 71 80 128.5t169 57.5q69 0 134.5 -36.5t92.5 -108.5q31 -79 23.5 -151.5t-39 -134.5t-87.5 -116t-122.5 -95.5t-143.5 -73.5l-3 7q49 21 87.5 41t85 54.5t77.5 72t53 92t24 117.5zM100 529
q-5 -79 36 -136.5t123.5 -69t205.5 59.5q0 78 -18 145.5t-59.5 116t-100.5 53.5q-84 7 -133 -43.5t-54 -125.5z" />
    <glyph glyph-name="colon" unicode=":" horiz-adv-x="188" 
d="M94 103q22 0 38 -15.5t16 -38.5t-16 -39t-38 -16t-38 16t-16 39t16 38.5t38 15.5zM94 373q-22 0 -38 15.5t-16 38.5t16 38.5t38 15.5t38 -15.5t16 -38.5t-16 -38.5t-38 -15.5z" />
    <glyph glyph-name="semicolon" unicode=";" horiz-adv-x="188" 
d="M94 373q-22 0 -38 15.5t-16 38.5t16 38.5t38 15.5t38 -15.5t16 -38.5t-16 -38.5t-38 -15.5zM94 103q22 0 38 -15.5t16 -38.5q0 -76 -90 -148l-5 5q62 53 78 103q-17 -15 -37 -15q-22 0 -38 16t-16 39t16 38.5t38 15.5z" />
    <glyph glyph-name="less" unicode="&#x3c;" horiz-adv-x="382" 
d="M342 422v-9l-292 -128l292 -129v-8l-302 133v8z" />
    <glyph glyph-name="equal" unicode="=" horiz-adv-x="465" 
d="M40 440h385v-7h-385v7zM40 259v8h385v-8h-385z" />
    <glyph glyph-name="greater" unicode="&#x3e;" horiz-adv-x="383" 
d="M40 422l303 -133v-8l-303 -133v8l293 129l-293 128v9z" />
    <glyph glyph-name="question" unicode="?" horiz-adv-x="517" 
d="M215 103q23 0 38.5 -15.5t15.5 -38.5t-16 -39t-38 -16t-38 16t-16 39t15.5 38.5t38.5 15.5zM475 566q12 -95 -62 -167.5t-194 -120.5v-95h-8v102q62 29 102 63t57 69.5t22 65t2 63.5q-5 65 -42.5 109t-98.5 45q-55 1 -103 -56t-62 -153h-7l-41 114q113 98 215 105
q81 5 146 -36.5t74 -107.5z" />
    <glyph glyph-name="at" unicode="@" horiz-adv-x="1039" 
d="M801 -6q-54 -4 -93 30t-39 114v130q-8 -50 -21.5 -93t-37 -86.5t-62 -69t-88.5 -25.5q-68 0 -125.5 54.5t-59.5 143.5q-2 70 22 124.5t60 84.5t85 49t89 25t79 6q63 0 138 -35v-326q0 -54 18 -82t56 -26q58 5 112 79t54 183q0 167 -123.5 280.5t-296.5 116.5
q-85 2 -171.5 -24.5t-161.5 -77.5t-125.5 -137t-56.5 -192q-6 -89 14.5 -164t60 -124.5t87.5 -86.5t103 -57t101.5 -29.5t87.5 -9.5q62 -1 122.5 12t99 30t72.5 38t46 30.5t16 13.5l8 -7q-5 -5 -18 -15t-47 -30.5t-74 -37.5t-101 -30.5t-124 -14.5q-29 0 -65.5 5t-84.5 19.5
t-93 37t-88.5 61t-74.5 87t-48 119t-11 153.5q7 109 58 197t127.5 140t164.5 79t176 26q178 -2 304.5 -119t126.5 -289q0 -117 -61 -195.5t-137 -84.5zM504 12q52 10 91.5 72.5t56.5 128.5t17 114v138q-27 11 -60 11q-34 -1 -65.5 -7t-70 -26t-65.5 -51t-43.5 -86.5
t-12.5 -128.5q4 -70 48 -123t104 -42z" />
    <glyph glyph-name="A" unicode="A" horiz-adv-x="621" 
d="M611 7v-7h-154v7q18 23 15 49t-25 85l-49 127h-248l-27 -76q-25 -72 -25 -112.5t30 -72.5v-7h-118v7q63 66 105 185l150 422l-33 86h79l195 -508q48 -118 105 -185zM153 276h242l-126 327z" />
    <glyph glyph-name="B" unicode="B" horiz-adv-x="640" 
d="M365 373q64 -6 116.5 -25t90.5 -60.5t38 -99.5q0 -50 -27.5 -88.5t-72.5 -59t-94 -30.5t-101 -10h-275v7q22 13 22 59v567q0 46 -22 59v8h232q295 0 295 -167q0 -135 -202 -160zM141 692v-316h131q216 0 216 157q0 159 -216 159h-131zM315 7q114 0 165.5 52.5t51.5 128.5
t-52 128t-165 52h-174v-361h174z" />
    <glyph glyph-name="C" unicode="C" horiz-adv-x="755" 
d="M718 201l7 -3q-98 -204 -327 -204q-149 0 -258.5 105.5t-109.5 252.5t113.5 252.5t263.5 105.5q77 0 133.5 -19.5t124.5 -64.5l-30 -114h-7q-59 93 -144.5 143.5t-178.5 30.5q-62 -13 -107.5 -55.5t-66 -100t-24 -126t18.5 -134.5q40 -132 141 -196.5t233 -44.5
q141 20 218 172z" />
    <glyph glyph-name="D" unicode="D" horiz-adv-x="721" 
d="M290 700q173 0 287 -100.5t114 -249.5t-114 -249.5t-287 -100.5h-250v7q22 13 22 59v567q0 46 -22 59v8h250zM290 7q145 0 233.5 99.5t88.5 243.5q0 143 -88.5 242.5t-233.5 99.5h-149v-685h149z" />
    <glyph glyph-name="E" unicode="E" horiz-adv-x="498" 
d="M462 125l6 -4l-22 -121h-406v7q22 13 22 59v567q0 46 -22 59v8h374l21 -111l-5 -4q-43 49 -93.5 78t-125.5 29h-70v-295l252 22v-51l-252 21v-382h81q77 0 139 33.5t101 84.5z" />
    <glyph glyph-name="F" unicode="F" horiz-adv-x="469" 
d="M417 700l32 -122l-5 -3q-30 34 -53 55t-69 41.5t-97 20.5h-84v-327l230 21v-51l-230 22v-291q0 -46 22 -59v-7h-123v7q22 13 22 59v567q0 46 -22 59v8h377z" />
    <glyph glyph-name="G" unicode="G" horiz-adv-x="763" 
d="M550 333h178v-8q-22 -13 -22 -59v-108q-12 -25 -35 -50.5t-60.5 -52.5t-96 -44t-127.5 -17q-148 0 -252.5 105t-104.5 253q0 147 113.5 252.5t263.5 105.5q77 0 133.5 -19.5t124.5 -64.5l-30 -114h-7q-59 93 -144.5 143.5t-178.5 30.5q-62 -13 -107.5 -55.5t-66 -100
t-24 -126t18.5 -134.5q41 -134 136 -201.5t227 -50.5q82 11 138 72v133q0 46 -20 73t-57 29v8z" />
    <glyph glyph-name="H" unicode="H" horiz-adv-x="631" 
d="M591 692q-22 -13 -22 -59v-567q0 -46 22 -59v-7h-124v7q23 13 23 59v345h-348v-345q0 -46 22 -59v-7h-124v7q23 13 23 59v567q0 46 -23 59v8h124v-8q-22 -13 -22 -59v-215h348v215q0 46 -23 59v8h124v-8z" />
    <glyph glyph-name="I" unicode="I" horiz-adv-x="204" 
d="M164 692q-23 -13 -23 -59v-567q0 -46 23 -59v-7h-124v7q22 13 22 59v567q0 46 -22 59v8h124v-8z" />
    <glyph glyph-name="J" unicode="J" horiz-adv-x="245" 
d="M49 700h156v-8q-23 -13 -23 -59v-471q0 -62 -19 -108.5t-54.5 -76.5t-68 -47t-77.5 -32l-3 9q49 22 77.5 47.5t47 76.5t18.5 131v461q0 65 -54 69v8z" />
    <glyph glyph-name="K" unicode="K" horiz-adv-x="616" 
d="M606 7v-7h-159v7q9 10 11 21t-4.5 29t-15 33.5t-26.5 46.5l-156 275l-114 -117v-229q0 -46 22 -59v-7h-124v7q23 13 23 59v567q0 46 -23 59v8h124v-8q-22 -13 -22 -59v-328l209 216q70 73 87 110.5t-11 60.5v8h131v-8q-60 -31 -194 -168l-55 -58l169 -296
q62 -109 128 -163z" />
    <glyph glyph-name="L" unicode="L" horiz-adv-x="499" 
d="M473 125l6 -4l-22 -121h-417v7q23 13 23 59v567q0 46 -23 59v8h124v-8q-22 -13 -22 -59v-626h91q78 0 139.5 33.5t100.5 84.5z" />
    <glyph glyph-name="M" unicode="M" horiz-adv-x="823" 
d="M783 692q-23 -13 -23 -59v-567q0 -46 23 -59v-7h-124v7q23 14 23 59v604l-276 -478h-9l-286 436v-508q0 -32 19 -66t44 -47v-7h-134v7q25 13 44 47t19 66v518l-45 62h90l287 -443l255 443h93v-8z" />
    <glyph glyph-name="N" unicode="N" horiz-adv-x="705" 
d="M531 700h134v-8q-25 -13 -44 -46.5t-19 -65.5v-580h-15l-476 609v-489q0 -32 19.5 -66t44.5 -47v-7h-135v7q25 13 44.5 47t19.5 66v498l-64 82h101l453 -574v454q0 32 -19 65.5t-44 46.5v8z" />
    <glyph glyph-name="O" unicode="O" horiz-adv-x="786" 
d="M393 710q149 0 256 -105t107 -253q0 -147 -107 -252.5t-256 -105.5t-256 105.5t-107 252.5q0 148 107 253t256 105zM495 18q61 19 103.5 61.5t62 99t19.5 122.5t-20 133q-42 138 -145 213.5t-224 38.5q-61 -19 -103.5 -61.5t-62 -99t-19.5 -122.5t20 -132
q42 -139 145 -214.5t224 -38.5z" />
    <glyph glyph-name="P" unicode="P" horiz-adv-x="549" 
d="M191 700q154 0 241 -51t87 -154q0 -102 -87.5 -153t-240.5 -51h-49v-225q0 -46 22 -59v-7h-124v7q23 13 23 59v567q0 46 -23 59v8h151zM191 299q249 0 249 196q0 197 -249 197h-49v-393h49z" />
    <glyph glyph-name="Q" unicode="Q" horiz-adv-x="786" 
d="M756 352q0 -103 -55.5 -189t-146.5 -131l148 -52l-21 -46l-155 86q-63 -26 -133 -26q-149 0 -256 105.5t-107 252.5q0 148 107 253t256 105q148 0 255.5 -105t107.5 -253zM495 18q7 2 21 8l-56 31l3 7l77 -27q95 50 127 164t-7 233q-42 138 -145 213.5t-224 38.5
q-61 -19 -103.5 -61.5t-62 -99t-19.5 -122.5t20 -132q42 -139 145 -214.5t224 -38.5z" />
    <glyph glyph-name="R" unicode="R" horiz-adv-x="584" 
d="M444 179q65 -114 130 -172v-7h-154v7q10 10 12 20.5t-5.5 30t-14.5 33.5t-26 47l-107 187q-30 -2 -45 -2h-93v-257q0 -46 22 -59v-7h-123v7q22 13 22 59v567q0 46 -22 59v8h194q81 0 145.5 -19.5t107 -63t42.5 -106.5q0 -67 -48 -111.5t-127 -62.5zM234 331
q216 0 216 180q0 34 -7.5 62t-28.5 57t-67 45.5t-113 16.5h-93v-361h93z" />
    <glyph glyph-name="S" unicode="S" horiz-adv-x="580" 
d="M328 710q99 0 220 -94l-30 -104h-7q-79 185 -209 185q-71 0 -114 -34t-48 -82q-3 -36 12.5 -64t43.5 -45.5t65 -34t76.5 -29.5t77.5 -32.5t68 -41.5t48.5 -57t18.5 -80q0 -89 -71 -146t-178 -57q-83 0 -144 24.5t-127 74.5l30 114h7q42 -84 112.5 -138.5t162.5 -54.5
q63 0 110.5 35t53.5 83q5 43 -14 75.5t-54.5 53t-79.5 37.5t-89 36t-82.5 42.5t-61 62t-23.5 89.5q0 70 57.5 126t168.5 56z" />
    <glyph glyph-name="T" unicode="T" horiz-adv-x="612" 
d="M560 700l32 -122l-6 -3q-30 34 -53 55t-69 41.5t-97 20.5h-22v-626q0 -45 23 -59v-7h-124v7q23 14 23 59v626h-22q-51 0 -97 -20.5t-69 -41.5t-53 -55l-6 3l32 122h508z" />
    <glyph glyph-name="U" unicode="U" horiz-adv-x="659" 
d="M495 700h124v-8q-42 -22 -42 -112v-345q0 -105 -67.5 -173t-172.5 -68q-119 0 -196.5 67.5t-77.5 197.5v374q0 46 -23 59v8h124v-8q-22 -13 -22 -59v-374q0 -125 61 -193.5t169 -59.5q89 7 143.5 74t54.5 155v334q0 45 -20 81.5t-55 41.5v8z" />
    <glyph glyph-name="V" unicode="V" horiz-adv-x="621" 
d="M611 692q-63 -66 -105 -184l-150 -422l33 -86h-79q-166 430 -196 508q-43 109 -104 184v8h153v-8q-12 -13 -14 -31t4 -40.5t21 -62.5l178 -462l146 412q25 66 25 109t-31 75v8h119v-8z" />
    <glyph glyph-name="W" unicode="W" horiz-adv-x="1015" 
d="M1005 692q-63 -66 -103 -184l-142 -421l34 -87h-79l-196 508l-12 27l-151 -448l33 -87h-78l-196 508q-48 117 -105 184v8h154v-8q-18 -23 -15 -49t25 -85l178 -460l139 410q8 26 12 38q-38 86 -89 146v8h154v-8q-18 -23 -15 -49t25 -85l178 -460l139 410q24 67 23 109
t-32 75v8h119v-8z" />
    <glyph glyph-name="X" unicode="X" horiz-adv-x="682" 
d="M594 66q26 -38 68 -59v-7h-165v7q38 18 9 59l-191 276l-121 -166q-54 -75 -63 -110.5t21 -58.5v-7h-132v7q38 20 74 57t90 111l127 173q-176 254 -197 286q-25 35 -68 58v8h164v-8q-13 -6 -18.5 -19t3.5 -31l167 -241l88 120q54 74 63 111.5t-20 59.5v8h132v-8
q-37 -19 -74 -57t-90 -111l-95 -130z" />
    <glyph glyph-name="Y" unicode="Y" horiz-adv-x="622" 
d="M494 700h118v-8q-39 -33 -61 -63t-58 -105l-128 -275v-183q0 -46 23 -59v-7h-124v7q22 13 22 59v172q-168 315 -189 356q-26 46 -87 98v8h175v-8q-41 -41 12 -139l160 -301l136 289q30 71 29.5 99.5t-28.5 51.5v8z" />
    <glyph glyph-name="Z" unicode="Z" 
d="M522 125l6 -4l-22 -121h-413h-83l409 692h-156q-39 0 -73 -10t-62 -30t-44.5 -36t-39.5 -41l-5 3l32 122h436l-410 -693h185q77 0 139 33.5t101 84.5z" />
    <glyph glyph-name="bracketleft" unicode="[" horiz-adv-x="292" 
d="M252 859h-205v-1018h205v-8h-212v1033h212v-7z" />
    <glyph glyph-name="backslash" unicode="\" horiz-adv-x="443" 
d="M47 866l356 -1033h-7l-356 1033h7z" />
    <glyph glyph-name="bracketright" unicode="]" horiz-adv-x="292" 
d="M40 866h212v-1033h-212v8h205v1018h-205v7z" />
    <glyph glyph-name="asciicircum" unicode="^" horiz-adv-x="358" 
d="M179 710l139 -160l-6 -5l-133 155l-133 -155l-6 5z" />
    <glyph glyph-name="underscore" unicode="_" horiz-adv-x="465" 
d="M40 -20h385v-7h-385v7z" />
    <glyph glyph-name="grave" unicode="`" horiz-adv-x="255" 
d="M93 724q59 -53 122 -112l-6 -9q-57 21 -149 75q-33 19 -14 45q8 11 19.5 12t27.5 -11z" />
    <glyph glyph-name="a" unicode="a" horiz-adv-x="516" 
d="M486 7v-7h-101v140q-43 -146 -177 -146q-65 0 -115.5 29.5t-59.5 81.5q-22 134 121 194q-8 18 -8.5 41.5t8 48t25 45t46.5 34t68 13.5q71 0 121 -41t50 -126v-248q0 -46 22 -59zM284 471q-67 0 -105 -53.5t-15 -114.5q73 27 161 27q29 0 60 -9v7q0 62 -25.5 102.5
t-75.5 40.5zM232 7q60 3 98 46t55 105v154q-23 9 -60 9q-35 0 -68.5 -7t-66.5 -23t-53.5 -43t-30 -65.5t4.5 -91.5q9 -39 45.5 -62.5t75.5 -21.5z" />
    <glyph glyph-name="b" unicode="b" horiz-adv-x="567" 
d="M351 481q68 0 125.5 -54t59.5 -143q2 -71 -22 -125t-60 -84.5t-85 -49.5t-89 -25t-79 -6q-30 0 -67 10.5t-44 10.5q-15 -1 -21 -21h-6v650q0 27 -4 36.5t-19 11.5v8l95 21h7v-514q8 50 21.5 93t37 86.5t62 69t88.5 25.5zM202 0q33 0 65 6.5t70.5 26t65.5 50.5t43.5 86.5
t12.5 128.5q-4 71 -48 124t-104 41q-52 -10 -92 -72.5t-56.5 -128.5t-16.5 -114v-139q25 -10 60 -9z" />
    <glyph glyph-name="c" unicode="c" horiz-adv-x="550" 
d="M132 163q28 -78 87.5 -118.5t135.5 -32.5q103 10 169 126l6 -3q-74 -133 -209 -141q-112 -6 -194.5 55t-85.5 178q-2 62 23 112.5t65 80t85.5 45.5t88.5 16q41 0 94 -15.5t95 -37.5l-15 -83h-6q-21 52 -84.5 95.5t-128.5 28.5q-44 -10 -77 -42.5t-47.5 -76t-16.5 -93
t15 -94.5z" />
    <glyph glyph-name="d" unicode="d" horiz-adv-x="567" 
d="M537 7v-7h-101v268q-8 -50 -21.5 -93t-37.5 -86.5t-62.5 -69t-88.5 -25.5q-67 0 -124.5 54t-60.5 144q-2 70 22.5 124.5t60.5 84.5t85 49t88.5 25t78.5 6q29 0 60 -9v172q0 27 -4 36.5t-19 11.5v8l95 21h7v-655q0 -46 22 -59zM271 12q52 10 91.5 72.5t56.5 128.5t17 114
v140q-45 9 -60 9q-34 -1 -66 -7t-70 -26t-65 -51t-43.5 -86.5t-12.5 -128.5q4 -71 47.5 -123.5t104.5 -41.5z" />
    <glyph glyph-name="e" unicode="e" 
d="M426 323q46 -12 76.5 -56t24.5 -108q-5 -63 -59.5 -114t-151.5 -51q-114 0 -193 58.5t-82 174.5q-2 62 23 111.5t65.5 78.5t85 45.5t88.5 18.5q75 4 140.5 -35.5t75.5 -122.5h-71h-22zM258 469q-49 -9 -82.5 -46.5t-47.5 -91.5h319q-10 68 -64 110t-125 28zM518 157
q9 74 -31.5 120t-101.5 46h-259q-20 -83 7 -160q54 -153 214 -147q65 3 114.5 43t56.5 98z" />
    <glyph glyph-name="f" unicode="f" horiz-adv-x="371" 
d="M371 473h-193v-407q0 -46 22 -59v-7h-123v7q22 13 22 59v327q0 80 -59 80v8h147q-50 2 -96.5 37t-46.5 82q0 53 41 87t113 34q79 0 130 -37l-15 -105h-7q-14 35 -36 68t-55.5 53.5t-64.5 6.5q-25 -11 -34.5 -45.5t-2.5 -76.5q7 -40 36 -72t84 -32h138v-8z" />
    <glyph glyph-name="g" unicode="g" horiz-adv-x="641" 
d="M558 27q83 1 83 -77q0 -56 -58 -93t-127 -37q-79 0 -131 72q-88 -53 -143 -57q-42 -3 -67.5 12.5t-26.5 48.5q-1 42 50.5 68.5t113.5 32.5q-92 11 -152 69t-60 150q0 118 82.5 191.5t189.5 73.5q59 0 112 -22l171 50l6 -50l-161 -7q56 -27 89 -77t33 -116
q0 -115 -83 -190t-189 -75q-6 0 -10 1q-58 -3 -99.5 -24t-38.5 -62q3 -57 56 -57q8 0 17 1t18.5 4t17.5 5.5t19.5 8.5t18.5 9.5t20.5 11.5t19.5 11.5t21.5 13t20.5 12.5q20 12 52.5 33t51 32.5t42 21.5t41.5 11zM125 184q28 -95 94.5 -146t148.5 -26q55 16 86.5 60t35.5 100
t-12 119q-27 94 -94 145t-149 27q-55 -16 -87 -60t-35.5 -100t12.5 -119zM580 -67q2 38 -10 58t-40 16q-9 -1 -21 -5.5t-31.5 -16t-29 -17t-37.5 -23t-34 -21.5l-45 -27q13 -19 24.5 -31.5t38.5 -25.5t61 -13q57 -1 89 27.5t35 78.5z" />
    <glyph glyph-name="h" unicode="h" horiz-adv-x="554" 
d="M506 66q5 -45 28 -59v-7h-123v7q21 13 17 59q-2 19 -11.5 128.5t-11.5 125.5q-7 66 -39.5 110.5t-91.5 32.5q-39 -8 -67.5 -45.5t-41 -90t-18 -96.5t-5.5 -83v-82q0 -46 22 -59v-7h-124v7q23 13 23 59v578q0 27 -4 36.5t-19 11.5v8l94 21h8v-488q27 248 177 248
q64 0 109 -45t54 -131q7 -57 15 -145t9 -94z" />
    <glyph glyph-name="i" unicode="i" horiz-adv-x="194" 
d="M141 66q0 -46 23 -59v-7h-124v7q22 13 22 59v338q0 27 -4 36.5t-18 11.5v7l94 22h7v-415zM99 562q-19 0 -33 14t-14 33t14 33t33 14t33 -14t14 -33t-14 -33t-33 -14z" />
    <glyph glyph-name="j" unicode="j" horiz-adv-x="204" 
d="M143 481h7v-484q0 -62 -15 -108t-45 -75.5t-57.5 -46t-69.5 -34.5l-3 10q47 22 69 46t32 68.5t10 128.5v418q0 27 -4 36.5t-18 11.5v7zM107 562q-19 0 -32.5 14t-13.5 33t13.5 33t32.5 14t33 -14t14 -33t-14 -33t-33 -14z" />
    <glyph glyph-name="k" unicode="k" horiz-adv-x="515" 
d="M364 183q58 -94 84 -127.5t57 -48.5v-7h-152v7q11 9 11.5 22t-6 28.5t-23.5 43.5l-113 184l-81 -71v-143q0 -51 23 -64v-7h-124v7q22 13 22 64v579q0 26 -4 33t-18 9v8l94 21h7v-498l106 93q78 70 97 103.5t-10 53.5v8h132v-8q-38 -15 -77 -45t-117 -98z" />
    <glyph glyph-name="l" unicode="l" horiz-adv-x="193" 
d="M141 66q0 -46 22 -59v-7h-123v7q22 13 22 59v578q0 27 -4 36.5t-18 11.5v8l94 21h7v-655z" />
    <glyph glyph-name="m" unicode="m" horiz-adv-x="819" 
d="M771 66q5 -45 28 -59v-7h-123v7q21 13 17 59q-2 19 -11.5 128.5t-11.5 125.5q-5 42 -16 75t-36.5 54.5t-62.5 13.5q-103 -22 -105 -280v-117q0 -46 22 -59v-7h-123v7q22 13 22 59v254q0 64 -29.5 108.5t-83.5 34.5q-117 -22 -117 -315v-82q0 -45 23 -59v-7h-124v7
q23 14 23 59v338q0 27 -4 36.5t-19 11.5v7l94 22h7v-222q5 45 13.5 80t25.5 69.5t48 53.5t74 19q60 0 102 -48t45 -128l1 -11q23 187 150 187q61 0 99.5 -45t47.5 -131q7 -57 15 -145t9 -94z" />
    <glyph glyph-name="n" unicode="n" horiz-adv-x="554" 
d="M506 66q5 -45 28 -59v-7h-124v7q21 12 17 59q-1 8 -6 65t-10 111.5t-7 77.5q-6 66 -38.5 110.5t-91.5 32.5q-39 -8 -67.5 -45.5t-41.5 -90t-18.5 -96.5t-5.5 -83v-82q0 -46 23 -59v-7h-124v7q22 13 22 59v338q0 27 -4 36.5t-18 11.5v7l94 22h7v-248q6 49 15.5 87
t28.5 77.5t53 61.5t80 22q65 0 110 -45t54 -131q5 -51 13.5 -136t10.5 -103z" />
    <glyph glyph-name="o" unicode="o" horiz-adv-x="591" 
d="M311 481q104 0 177 -61t73 -161q0 -115 -82.5 -190t-188.5 -75q-105 0 -177.5 60t-72.5 162q0 118 82 191.5t189 73.5zM367 12q55 16 87 60t35.5 100t-12.5 119q-27 94 -94 145t-149 27q-55 -16 -87 -60t-35.5 -100t12.5 -119q28 -95 94.5 -146t148.5 -26z" />
    <glyph glyph-name="p" unicode="p" horiz-adv-x="567" 
d="M350 481q68 0 125.5 -54t60.5 -143q2 -71 -22.5 -125t-60.5 -84.5t-85 -49.5t-89 -25t-79 -6q-28 0 -59 9v-172q0 -27 4 -36.5t18 -11.5v-7l-94 -22h-7v650q0 27 -4 36.5t-18 11.5v7l94 22h7v-274q8 50 21.5 93t37 86.5t62 69t88.5 25.5zM201 0q33 0 65 6.5t70.5 26
t65.5 50.5t43.5 86.5t12.5 128.5q-4 71 -47.5 124t-104.5 41q-52 -10 -91.5 -72.5t-56.5 -128.5t-17 -114v-139q25 -10 60 -9z" />
    <glyph glyph-name="q" unicode="q" horiz-adv-x="567" 
d="M514 -169q0 -27 4 -36.5t19 -11.5v-7l-94 -22h-8v514q-8 -50 -21.5 -93t-37 -86.5t-62 -69t-88.5 -25.5q-68 0 -125.5 54t-59.5 144q-2 70 22 124.5t60 84.5t85 49t89 25t79 6q30 0 67 -10.5t44 -10.5q15 1 21 21h6v-650zM435 327v140q-45 9 -60 9q-34 -1 -65.5 -7
t-70 -26t-65.5 -51t-43.5 -86.5t-12.5 -128.5q4 -70 48 -123t104 -42q52 10 92 72.5t56.5 128.5t16.5 114z" />
    <glyph glyph-name="r" unicode="r" horiz-adv-x="405" 
d="M286 481q39 0 65.5 -14t53.5 -45l-61 -86l-7 4q-2 49 -24.5 89t-59.5 34q-34 -5 -58 -48.5t-34.5 -106t-14.5 -111.5t-4 -92v-39q0 -46 22 -59v-7h-124v7q23 13 23 59v338q0 27 -4 36.5t-19 11.5v7l94 22h8v-268q22 268 144 268z" />
    <glyph glyph-name="s" unicode="s" horiz-adv-x="458" 
d="M243 481q37 0 82 -19t78 -45l-20 -92h-5q-23 64 -66 105.5t-86 41.5q-48 0 -77.5 -23t-33.5 -56q-4 -37 28 -62.5t79.5 -41t95 -33t80 -48.5t29.5 -76q-5 -60 -57 -99t-135 -39q-105 0 -195 67l21 100h5q29 -60 83 -106.5t115 -46.5q53 0 90 23.5t42 56.5q4 30 -18 51.5
t-58.5 32.5t-78.5 26t-78 31t-57.5 49t-15.5 79q15 124 153 124z" />
    <glyph glyph-name="t" unicode="t" horiz-adv-x="379" 
d="M394 177l5 -2q-37 -181 -166 -181q-68 0 -106 44.5t-38 131.5v303h-59v8q92 0 92 137h79q0 -55 -43.5 -95t-92.5 -42h221v-8h-118v-318q0 -73 25 -112t84 -31q81 11 117 165z" />
    <glyph glyph-name="u" unicode="u" horiz-adv-x="536" 
d="M506 7v-7h-102v243q-6 -49 -15.5 -87.5t-28.5 -78t-53 -61.5t-80 -22q-73 0 -119 45.5t-46 130.5v234q0 27 -4 36.5t-18 11.5v7l94 22h7v-326q0 -70 35 -112t96 -31q39 8 67.5 45.5t41 90t18 96.5t5.5 83v77q0 27 -4 36.5t-18 11.5v7l94 22h7v-415q0 -46 23 -59z" />
    <glyph glyph-name="v" unicode="v" horiz-adv-x="512" 
d="M502 473q-69 -71 -115 -185l-85 -212l32 -76h-79l-124 292q-34 80 -55.5 116.5t-55.5 64.5v8h153v-8q-13 -13 -15 -29t3 -32.5t18 -48.5l119 -278l82 204q20 50 27.5 81.5t2.5 58t-26 44.5v8h118v-8z" />
    <glyph glyph-name="w" unicode="w" horiz-adv-x="761" 
d="M633 481h118v-8q-56 -54 -100 -157l-89 -233l32 -83h-79q-123 322 -128 335l-82 -264l30 -71h-79l-124 292q-34 80 -55.5 116.5t-56.5 64.5v8h154v-8q-13 -13 -15 -29t3 -32.5t18 -48.5l120 -282l83 264q-20 50 -37 77.5t-45 50.5v8h154v-8q-14 -15 -15.5 -35t3.5 -37.5
t22 -63.5l94 -244l74 196q19 50 26 82t1.5 58t-27.5 44v8z" />
    <glyph glyph-name="x" unicode="x" horiz-adv-x="541" 
d="M458 76q42 -55 83 -69v-7h-168v7q36 16 7 57l-133 175l-51 -66q-107 -139 -51 -166v-7h-125v7q42 18 73.5 50.5t91.5 111.5l58 75l-123 161q-41 54 -82 68v8h168v-8q-15 -6 -18.5 -19t12.5 -39l104 -137l23 30q108 139 52 165v8h124v-8q-42 -17 -73 -49t-92 -112l-30 -39
z" />
    <glyph glyph-name="y" unicode="y" horiz-adv-x="519" 
d="M509 473q-69 -71 -115 -185q-80 -199 -116 -288q-31 -78 -68.5 -121.5t-91.5 -43.5q-79 0 -118 71l78 71l6 -5q-9 -49 4.5 -90t51.5 -37q64 7 126 146l-128 301q-34 80 -55.5 116.5t-55.5 64.5v8h153v-8q-12 -13 -14 -29t2.5 -32.5t17.5 -48.5l119 -278l82 204
q20 50 28 81.5t3 58t-27 44.5v8h118v-8z" />
    <glyph glyph-name="z" unicode="z" horiz-adv-x="471" 
d="M445 125l6 -4l-22 -121h-399l320 474h-91q-52 0 -94.5 -18t-63.5 -37t-50 -52l-6 4l33 110h360l-320 -474h119q42 0 74 9t57.5 28.5t39.5 35t37 45.5z" />
    <glyph glyph-name="braceleft" unicode="{" horiz-adv-x="292" 
d="M132 -116q25 -20 58.5 -23.5t57.5 11.5l4 -7q-25 -16 -61.5 -12.5t-63.5 25.5q-57 46 -27 129q32 87 37 159.5t-19 106.5q-16 24 -45 24h-33v9h33q28 0 45 23q24 34 19 107t-37 159q-30 83 27 129q27 22 63 25.5t62 -12.5l-4 -7q-24 15 -57.5 11.5t-58.5 -23.5
q-52 -44 -24 -120q33 -88 37.5 -162.5t-20.5 -110.5q-12 -18 -30 -24q18 -6 30 -23q25 -36 20.5 -111t-37.5 -163q-28 -76 24 -120z" />
    <glyph glyph-name="bar" unicode="|" horiz-adv-x="87" 
d="M40 866h7v-1033h-7v1033z" />
    <glyph glyph-name="braceright" unicode="}" horiz-adv-x="291" 
d="M160 -116q52 44 24 120q-33 88 -37.5 163t20.5 111q12 17 30 23q-18 6 -30 24q-25 36 -20.5 110.5t37.5 162.5q28 76 -24 120q-25 20 -58.5 23.5t-57.5 -11.5l-4 7q26 16 62 12.5t63 -25.5q57 -46 27 -129q-32 -86 -37 -159t19 -107q17 -23 45 -23h32v-9h-32
q-29 0 -45 -24q-24 -34 -19 -106.5t37 -159.5q30 -83 -27 -129q-27 -22 -63.5 -25.5t-61.5 12.5l4 7q24 -15 57.5 -11.5t58.5 23.5z" />
    <glyph glyph-name="asciitilde" unicode="~" horiz-adv-x="575" 
d="M407 211q-27 0 -53 10.5t-40 20.5t-39 30q-22 17 -33.5 25.5t-31 16.5t-38.5 8q-89 0 -124 -107l-8 3q36 112 132 112q43 0 108 -52q24 -20 38 -29.5t39 -19.5t50 -10q43 0 74.5 25t46.5 71l7 -2q-16 -49 -49.5 -75.5t-78.5 -26.5z" />
    <glyph glyph-name="exclamdown" unicode="&#xa1;" horiz-adv-x="200" 
d="M103 293l57 -518h-120l56 518h7zM100 373q-22 0 -38 15.5t-16 38.5t16 38.5t38 15.5t38 -15.5t16 -38.5t-16 -38.5t-38 -15.5z" />
    <glyph glyph-name="cent" unicode="&#xa2;" horiz-adv-x="570" 
d="M524 250l6 -3q-73 -132 -209 -140h-32v-106h-7v106q-100 6 -169 66t-72 166q-2 58 20 106t58.5 78t78.5 47.5t84 21.5v107h7v-107q5 1 14 1q41 0 94 -15.5t95 -37.5l-15 -83h-6q-19 45 -71.5 86t-110.5 42v-458q31 -6 66 -3q103 10 169 126zM132 275q42 -119 150 -146
v455q-12 0 -24 -3q-44 -10 -77 -42.5t-47.5 -76t-16.5 -93t15 -94.5z" />
    <glyph glyph-name="sterling" unicode="&#xa3;" horiz-adv-x="621" 
d="M573 118h8l-16 -118h-484v7q30 23 50.5 47.5t31.5 46t13.5 49t1.5 46.5t-9.5 50t-15 48t-19.5 50h-94v8h91q-13 33 -20 52.5t-16 53.5t-8 54t4 54q14 66 82 107.5t149 36.5q102 -7 215 -105l-41 -114h-7q-14 96 -64 153t-106 56q-67 -1 -109 -42t-38 -112q3 -52 27 -194
h204v-8h-203q9 -56 10.5 -95.5t-11.5 -86.5t-43 -88h337q61 0 80 44z" />
    <glyph glyph-name="currency" unicode="&#xa4;" horiz-adv-x="601" 
d="M561 371q0 -114 -85 -192l74 -73l-5 -6l-75 74q-78 -67 -180 -67q-103 0 -172 55l-62 -62l-5 6l61 61q-72 62 -72 161q0 117 84 193l-73 73l5 5l74 -73q78 67 181 67q100 0 172 -56l62 62l5 -5l-62 -62q73 -62 73 -161zM367 124q55 16 87 60.5t35.5 100.5t-12.5 118
q-28 94 -94.5 145.5t-148.5 27.5q-55 -16 -87 -60.5t-35.5 -100.5t12.5 -118q27 -95 94 -146t149 -27z" />
    <glyph glyph-name="yen" unicode="&#xa5;" horiz-adv-x="682" 
d="M524 700h118v-8q-39 -33 -61 -63t-58 -105l-128 -275v-5h154v-8h-154v-74h154v-8h-154v-88q0 -44 23 -59v-7h-124v7q23 14 23 59v88h-153v8h153v74h-153v8h150q-13 24 -96.5 180.5t-90.5 169.5q-24 46 -87 98v8h175v-8q-40 -42 12 -139l160 -301l136 289q30 71 29.5 99.5
t-28.5 51.5v8z" />
    <glyph glyph-name="brokenbar" unicode="&#xa6;" horiz-adv-x="88" 
d="M40 866h8v-385h-8v385zM40 -167v385h8v-385h-8z" />
    <glyph glyph-name="section" unicode="&#xa7;" horiz-adv-x="567" 
d="M527 326q0 -94 -78 -151q38 -44 38 -110q0 -70 -57 -126t-168 -56q-97 0 -220 94l30 104h7q79 -185 209 -185q71 0 114 34t48 82q3 36 -12.5 64t-43.5 45.5t-65 34t-76.5 29.5t-77.5 32.5t-68 41.5t-48.5 57t-18.5 80q0 92 78 151q-38 46 -38 110q0 70 57.5 126t167.5 56
q98 0 220 -95l-30 -103h-7q-79 185 -208 185q-71 0 -114.5 -34t-47.5 -82q-5 -55 35 -91.5t101 -59t123 -47t106 -71t44 -115.5zM84 461q-6 -48 17.5 -82t67.5 -55.5t91 -39t98.5 -43t80.5 -55.5q40 33 44 75q7 58 -32.5 98t-94.5 59.5t-124 50.5t-104 67q-38 -33 -44 -75z
" />
    <glyph glyph-name="dieresis" unicode="&#xa8;" horiz-adv-x="342" 
d="M83 662q19 0 31.5 -13t12.5 -31t-12.5 -31t-31.5 -13q-18 0 -30.5 13t-12.5 31t12.5 31t30.5 13zM258 662q18 0 31 -13t13 -31t-13 -31t-31 -13t-31 13t-13 31t13 31t31 13z" />
    <glyph glyph-name="copyright" unicode="&#xa9;" horiz-adv-x="752" 
d="M442 123q72 11 111 88l4 -1q-50 -104 -167 -104q-76 0 -132 53.5t-56 128.5t57.5 129t134.5 54q68 0 132 -43l-15 -58h-4q-30 47 -73.5 73t-91.5 16q-63 -14 -88 -78t-3 -134q20 -67 71.5 -100.5t119.5 -23.5zM376 619q139 0 237.5 -98.5t98.5 -237.5t-98.5 -237.5
t-237.5 -98.5t-237.5 98.5t-98.5 237.5t98.5 237.5t237.5 98.5zM376 -45q136 0 232 96t96 232t-96 232t-232 96t-232 -96t-96 -232t96 -232t232 -96z" />
    <glyph glyph-name="guillemotleft" unicode="&#xab;" horiz-adv-x="381" 
d="M179 154l-139 139l139 139l5 -6l-133 -133l133 -133zM336 154l-139 139l139 139l5 -6l-133 -133l133 -133z" />
    <glyph glyph-name="registered" unicode="&#xae;" horiz-adv-x="752" 
d="M475 200q33 -58 66 -88v-4h-78v4q7 5 5.5 14.5t-6 19.5t-14.5 28q-2 3 -3 5l-55 95h-23h-47v-132q0 -22 11 -30v-4h-63v4q12 8 12 30v290q0 22 -12 30v3h99q64 0 107.5 -24.5t43.5 -71.5q0 -66 -89 -89zM367 277q111 0 111 92q0 93 -111 93h-47v-185h47zM376 619
q139 0 237.5 -98.5t98.5 -237.5t-98.5 -237.5t-237.5 -98.5t-237.5 98.5t-98.5 237.5t98.5 237.5t237.5 98.5zM376 -45q136 0 232 96t96 232t-96 232t-232 96t-232 -96t-96 -232t96 -232t232 -96z" />
    <glyph glyph-name="macron" unicode="&#xaf;" horiz-adv-x="390" 
d="M40 622h310v-8h-310v8z" />
    <glyph glyph-name="degree" unicode="&#xb0;" horiz-adv-x="243" 
d="M122 572q-34 0 -58 23.5t-24 57.5q0 35 24 58.5t58 23.5t57.5 -24t23.5 -58t-23.5 -57.5t-57.5 -23.5zM122 727q-31 0 -52.5 -21.5t-21.5 -52.5q0 -30 21.5 -51.5t52.5 -21.5q30 0 51.5 21.5t21.5 51.5q0 31 -21.5 52.5t-51.5 21.5z" />
    <glyph glyph-name="plusminus" unicode="&#xb1;" horiz-adv-x="465" 
d="M237 353h188v-7h-188v-189h-8v189h-189v7h189v189h8v-189zM40 70v8h385v-8h-385z" />
    <glyph glyph-name="acute" unicode="&#xb4;" horiz-adv-x="255" 
d="M209 723q19 -26 -14 -45q-92 -54 -149 -75l-6 9q63 59 122 112q16 12 27.5 11t19.5 -12z" />
    <glyph glyph-name="paragraph" unicode="&#xb6;" horiz-adv-x="577" 
d="M537 719v-8h-156v-711h-7v711h-150v-711h-7v366q-73 0 -125 51.5t-52 124.5q0 74 52 125.5t125 51.5h320z" />
    <glyph glyph-name="cedilla" unicode="&#xb8;" horiz-adv-x="254" 
d="M88 -62q47 22 88.5 0t36.5 -68q-3 -28 -30 -48.5t-64 -20.5q-45 0 -79 32l4 6q33 -31 74 -31q49 0 59 60q6 43 -19.5 62t-76.5 0v2l34 90h6z" />
    <glyph glyph-name="guillemotright" unicode="&#xbb;" horiz-adv-x="381" 
d="M341 293l-139 -139l-5 6l133 133l-133 133l5 6zM184 293l-139 -139l-5 6l133 133l-133 133l5 6z" />
    <glyph glyph-name="questiondown" unicode="&#xbf;" horiz-adv-x="517" 
d="M302 373q-22 0 -38 15.5t-16 38.5t16 38.5t38 15.5t38 -15.5t16 -38.5t-16 -38.5t-38 -15.5zM436 -15l41 -115q-114 -97 -215 -104q-81 -6 -146 35.5t-74 107.5q-6 50 12.5 95.5t58 81t85 62.5t100.5 49v96h8v-102q-62 -29 -102 -63t-57 -69.5t-22 -65t-2 -63.5
q5 -65 42.5 -109t98.5 -45q56 -1 103.5 55.5t61.5 153.5h7z" />
    <glyph glyph-name="Agrave" unicode="&#xc0;" horiz-adv-x="621" 
d="M611 7v-7h-154v7q18 23 15 49t-25 85l-49 127h-248l-27 -76q-25 -72 -25 -112.5t30 -72.5v-7h-118v7q63 66 105 185l150 422l-33 86h79l195 -508q48 -118 105 -185zM153 276h242l-126 327zM228 924q59 -53 122 -112l-6 -9q-57 21 -149 75q-33 19 -14 45q8 11 19.5 12
t27.5 -11z" />
    <glyph glyph-name="Aacute" unicode="&#xc1;" horiz-adv-x="621" 
d="M611 7v-7h-154v7q18 23 15 49t-25 85l-49 127h-248l-27 -76q-25 -72 -25 -112.5t30 -72.5v-7h-118v7q63 66 105 185l150 422l-33 86h79l195 -508q48 -118 105 -185zM153 276h242l-126 327zM380 923q19 -26 -14 -45q-92 -54 -149 -75l-6 9q63 59 122 112q16 12 27.5 11
t19.5 -12z" />
    <glyph glyph-name="Acircumflex" unicode="&#xc2;" horiz-adv-x="621" 
d="M611 7v-7h-154v7q18 23 15 49t-25 85l-49 127h-248l-27 -76q-25 -72 -25 -112.5t30 -72.5v-7h-118v7q63 66 105 185l150 422l-33 86h79l195 -508q48 -118 105 -185zM153 276h242l-126 327zM290 906l128 -128l-5 -5l-123 79l-122 -79l-6 5z" />
    <glyph glyph-name="Atilde" unicode="&#xc3;" horiz-adv-x="621" 
d="M611 7v-7h-154v7q18 23 15 49t-25 85l-49 127h-248l-27 -76q-25 -72 -25 -112.5t30 -72.5v-7h-118v7q63 66 105 185l150 422l-33 86h79l195 -508q48 -118 105 -185zM153 276h242l-126 327zM435 866l8 -2q-29 -89 -86 -89q-33 0 -89.5 20.5t-74.5 20.5q-20 0 -29.5 -9.5
t-18.5 -37.5l-8 3q14 43 34.5 63.5t54.5 20.5q31 0 82.5 -20t79.5 -19q17 0 27.5 10.5t19.5 38.5z" />
    <glyph glyph-name="Adieresis" unicode="&#xc4;" horiz-adv-x="621" 
d="M611 7v-7h-154v7q18 23 15 49t-25 85l-49 127h-248l-27 -76q-25 -72 -25 -112.5t30 -72.5v-7h-118v7q63 66 105 185l150 422l-33 86h79l195 -508q48 -118 105 -185zM153 276h242l-126 327zM202 862q19 0 31.5 -13t12.5 -31t-12.5 -31t-31.5 -13q-18 0 -30.5 13t-12.5 31
t12.5 31t30.5 13zM377 862q18 0 31 -13t13 -31t-13 -31t-31 -13t-31 13t-13 31t13 31t31 13z" />
    <glyph glyph-name="Aring" unicode="&#xc5;" horiz-adv-x="621" 
d="M611 7v-7h-154v7q18 23 15 49t-25 85l-49 127h-248l-27 -76q-25 -72 -25 -112.5t30 -72.5v-7h-118v7q63 66 105 185l150 422l-33 86h79l195 -508q48 -118 105 -185zM153 276h242l-126 327zM291 758q-34 0 -58 23.5t-24 57.5q0 35 23.5 58.5t58.5 23.5q34 0 57.5 -24
t23.5 -58t-23.5 -57.5t-57.5 -23.5zM291 913q-31 0 -52.5 -21.5t-21.5 -52.5q0 -30 21.5 -51.5t52.5 -21.5q30 0 51.5 21.5t21.5 51.5q0 31 -21.5 52.5t-51.5 21.5z" />
    <glyph glyph-name="AE" unicode="&#xc6;" horiz-adv-x="888" 
d="M852 125l6 -4l-22 -121h-406v7q23 14 23 59v203h-239l-49 -77q-85 -134 -37 -185v-7h-118v7q72 62 147 184l280 443q13 23 10 37.5t-17 20.5v8h374l21 -111l-5 -3q-42 48 -93 77t-126 29h-70v-295l252 22v-51l-252 22v-383h81q78 0 139.5 33.5t100.5 84.5zM453 276v371
l-235 -371h235z" />
    <glyph glyph-name="Ccedilla" unicode="&#xc7;" horiz-adv-x="756" 
d="M399 -6q-3 0 -7 0.5t-7 0.5l-22 -57q47 22 88 0t37 -68q-3 -28 -30 -48.5t-64 -20.5q-46 0 -80 32l4 6q33 -31 75 -31q50 0 58 60q6 43 -19.5 62t-75.5 0l-1 2l24 63q-143 8 -246 111.5t-103 245.5q0 147 114 252.5t264 105.5q77 0 133.5 -19t124.5 -64l-30 -115h-7
q-59 94 -144.5 144.5t-179.5 29.5q-62 -13 -107.5 -55.5t-65.5 -100t-23.5 -125.5t18.5 -134q40 -132 140.5 -197t233.5 -45q142 22 218 173l7 -4q-98 -204 -327 -204z" />
    <glyph glyph-name="Egrave" unicode="&#xc8;" horiz-adv-x="498" 
d="M462 125l6 -4l-22 -121h-406v7q22 13 22 59v567q0 46 -22 59v8h374l21 -111l-5 -4q-43 49 -93.5 78t-125.5 29h-70v-295l252 22v-51l-252 21v-382h81q77 0 139 33.5t101 84.5zM191 924q59 -53 122 -112l-6 -9q-57 21 -149 75q-33 19 -14 45q8 11 19.5 12t27.5 -11z" />
    <glyph glyph-name="Eacute" unicode="&#xc9;" horiz-adv-x="498" 
d="M462 125l6 -4l-22 -121h-406v7q22 13 22 59v567q0 46 -22 59v8h374l21 -111l-5 -4q-43 49 -93.5 78t-125.5 29h-70v-295l252 22v-51l-252 21v-382h81q77 0 139 33.5t101 84.5zM363 923q19 -26 -14 -45q-92 -54 -149 -75l-6 9q63 59 122 112q16 12 27.5 11t19.5 -12z" />
    <glyph glyph-name="Ecircumflex" unicode="&#xca;" horiz-adv-x="498" 
d="M462 125l6 -4l-22 -121h-406v7q22 13 22 59v567q0 46 -22 59v8h374l21 -111l-5 -4q-43 49 -93.5 78t-125.5 29h-70v-295l252 22v-51l-252 21v-382h81q77 0 139 33.5t101 84.5zM254 906l128 -128l-5 -5l-123 79l-122 -79l-6 5z" />
    <glyph glyph-name="Edieresis" unicode="&#xcb;" horiz-adv-x="498" 
d="M462 125l6 -4l-22 -121h-406v7q22 13 22 59v567q0 46 -22 59v8h374l21 -111l-5 -4q-43 49 -93.5 78t-125.5 29h-70v-295l252 22v-51l-252 21v-382h81q77 0 139 33.5t101 84.5zM166 862q19 0 31.5 -13t12.5 -31t-12.5 -31t-31.5 -13q-18 0 -30.5 13t-12.5 31t12.5 31
t30.5 13zM341 862q18 0 31 -13t13 -31t-13 -31t-31 -13t-31 13t-13 31t13 31t31 13z" />
    <glyph glyph-name="Igrave" unicode="&#xcc;" horiz-adv-x="204" 
d="M165 692q-23 -13 -23 -59v-567q0 -46 23 -59v-7h-124v7q22 13 22 59v567q0 46 -22 59v8h124v-8zM51 924q59 -53 122 -112l-6 -9q-57 21 -149 75q-33 19 -14 45q8 11 19.5 12t27.5 -11z" />
    <glyph glyph-name="Iacute" unicode="&#xcd;" horiz-adv-x="204" 
d="M164 692q-23 -13 -23 -59v-567q0 -46 23 -59v-7h-124v7q22 13 22 59v567q0 46 -22 59v8h124v-8zM202 923q19 -26 -14 -45q-92 -54 -149 -75l-6 9q63 59 122 112q16 12 27.5 11t19.5 -12z" />
    <glyph glyph-name="Icircumflex" unicode="&#xce;" horiz-adv-x="204" 
d="M164 692q-23 -13 -23 -59v-567q0 -46 23 -59v-7h-124v7q22 13 22 59v567q0 46 -22 59v8h124v-8zM102 906l128 -128l-5 -5l-123 79l-122 -79l-6 5z" />
    <glyph glyph-name="Idieresis" unicode="&#xcf;" horiz-adv-x="204" 
d="M164 692q-23 -13 -23 -59v-567q0 -46 23 -59v-7h-124v7q22 13 22 59v567q0 46 -22 59v8h124v-8zM14 862q19 0 31.5 -13t12.5 -31t-12.5 -31t-31.5 -13q-18 0 -30.5 13t-12.5 31t12.5 31t30.5 13zM189 862q18 0 31 -13t13 -31t-13 -31t-31 -13t-31 13t-13 31t13 31t31 13z
" />
    <glyph glyph-name="Eth" unicode="&#xd0;" horiz-adv-x="746" 
d="M315 700q173 0 287 -100.5t114 -249.5t-114 -249.5t-287 -100.5h-250v7q22 13 22 59v280h-87v8h87v280q0 45 -22 58v8h250zM315 7q145 0 233.5 99.5t88.5 243.5q0 143 -88.5 242.5t-233.5 99.5h-149v-338h219v-8h-219v-339h149z" />
    <glyph glyph-name="Ntilde" unicode="&#xd1;" horiz-adv-x="705" 
d="M531 700h134v-8q-25 -13 -44 -46.5t-19 -65.5v-580h-15l-476 609v-489q0 -32 19.5 -66t44.5 -47v-7h-135v7q25 13 44.5 47t19.5 66v498l-64 82h101l453 -574v454q0 32 -19 65.5t-44 46.5v8zM507 866l8 -2q-29 -89 -86 -89q-33 0 -89.5 20.5t-74.5 20.5q-20 0 -29.5 -9.5
t-18.5 -37.5l-8 3q14 43 34.5 63.5t54.5 20.5q31 0 82.5 -20t79.5 -19q17 0 27.5 10.5t19.5 38.5z" />
    <glyph glyph-name="Ograve" unicode="&#xd2;" horiz-adv-x="786" 
d="M393 710q149 0 256 -105t107 -253q0 -147 -107 -252.5t-256 -105.5t-256 105.5t-107 252.5q0 148 107 253t256 105zM495 18q61 19 103.5 61.5t62 99t19.5 122.5t-20 133q-42 138 -145 213.5t-224 38.5q-61 -19 -103.5 -61.5t-62 -99t-19.5 -122.5t20 -132
q42 -139 145 -214.5t224 -38.5zM340 924q59 -53 122 -112l-6 -9q-57 21 -149 75q-33 19 -14 45q8 11 19.5 12t27.5 -11z" />
    <glyph glyph-name="Oacute" unicode="&#xd3;" horiz-adv-x="786" 
d="M393 710q149 0 256 -105t107 -253q0 -147 -107 -252.5t-256 -105.5t-256 105.5t-107 252.5q0 148 107 253t256 105zM495 18q61 19 103.5 61.5t62 99t19.5 122.5t-20 133q-42 138 -145 213.5t-224 38.5q-61 -19 -103.5 -61.5t-62 -99t-19.5 -122.5t20 -132
q42 -139 145 -214.5t224 -38.5zM492 923q19 -26 -14 -45q-92 -54 -149 -75l-6 9q63 59 122 112q16 12 27.5 11t19.5 -12z" />
    <glyph glyph-name="Ocircumflex" unicode="&#xd4;" horiz-adv-x="786" 
d="M393 710q149 0 256 -105t107 -253q0 -147 -107 -252.5t-256 -105.5t-256 105.5t-107 252.5q0 148 107 253t256 105zM495 18q61 19 103.5 61.5t62 99t19.5 122.5t-20 133q-42 138 -145 213.5t-224 38.5q-61 -19 -103.5 -61.5t-62 -99t-19.5 -122.5t20 -132
q42 -139 145 -214.5t224 -38.5zM393 906l128 -128l-5 -5l-123 79l-122 -79l-6 5z" />
    <glyph glyph-name="Otilde" unicode="&#xd5;" horiz-adv-x="786" 
d="M393 710q149 0 256 -105t107 -253q0 -147 -107 -252.5t-256 -105.5t-256 105.5t-107 252.5q0 148 107 253t256 105zM495 18q61 19 103.5 61.5t62 99t19.5 122.5t-20 133q-42 138 -145 213.5t-224 38.5q-61 -19 -103.5 -61.5t-62 -99t-19.5 -122.5t20 -132
q42 -139 145 -214.5t224 -38.5zM538 866l8 -2q-29 -89 -86 -89q-33 0 -89.5 20.5t-74.5 20.5q-20 0 -29.5 -9.5t-18.5 -37.5l-8 3q14 43 34.5 63.5t54.5 20.5q31 0 82.5 -20t79.5 -19q17 0 27.5 10.5t19.5 38.5z" />
    <glyph glyph-name="Odieresis" unicode="&#xd6;" horiz-adv-x="786" 
d="M393 710q149 0 256 -105t107 -253q0 -147 -107 -252.5t-256 -105.5t-256 105.5t-107 252.5q0 148 107 253t256 105zM495 18q61 19 103.5 61.5t62 99t19.5 122.5t-20 133q-42 138 -145 213.5t-224 38.5q-61 -19 -103.5 -61.5t-62 -99t-19.5 -122.5t20 -132
q42 -139 145 -214.5t224 -38.5zM305 862q19 0 31.5 -13t12.5 -31t-12.5 -31t-31.5 -13q-18 0 -30.5 13t-12.5 31t12.5 31t30.5 13zM480 862q18 0 31 -13t13 -31t-13 -31t-31 -13t-31 13t-13 31t13 31t31 13z" />
    <glyph glyph-name="multiply" unicode="&#xd7;" horiz-adv-x="358" 
d="M318 483l-134 -133l134 -134l-6 -5l-133 133l-133 -133l-6 5l134 134l-134 133l6 6l133 -134l133 134z" />
    <glyph glyph-name="Oslash" unicode="&#xd8;" horiz-adv-x="786" 
d="M650 604q106 -104 106 -252q0 -147 -107 -252.5t-256 -105.5q-143 0 -251 101l-86 -85l-5 5l85 86q-106 104 -106 251q0 148 107.5 253t255.5 105q144 0 252 -101l85 86l6 -6zM126 271q20 -65 58 -123l414 414q-56 81 -137.5 116t-169.5 8q-81 -25 -129 -91.5t-54 -149
t18 -174.5zM495 18q61 19 103.5 61.5t62 99t19.5 122.5t-20 133t-58 122l-413 -414q56 -81 137 -116t169 -8z" />
    <glyph glyph-name="Ugrave" unicode="&#xd9;" horiz-adv-x="659" 
d="M495 700h124v-8q-42 -22 -42 -112v-345q0 -105 -67.5 -173t-172.5 -68q-119 0 -196.5 67.5t-77.5 197.5v374q0 46 -23 59v8h124v-8q-22 -13 -22 -59v-374q0 -125 61 -193.5t169 -59.5q89 7 143.5 74t54.5 155v334q0 45 -20 81.5t-55 41.5v8zM287 924q59 -53 122 -112
l-6 -9q-57 21 -149 75q-33 19 -14 45q8 11 19.5 12t27.5 -11z" />
    <glyph glyph-name="Uacute" unicode="&#xda;" horiz-adv-x="659" 
d="M495 700h124v-8q-42 -22 -42 -112v-345q0 -105 -67.5 -173t-172.5 -68q-119 0 -196.5 67.5t-77.5 197.5v374q0 46 -23 59v8h124v-8q-22 -13 -22 -59v-374q0 -125 61 -193.5t169 -59.5q89 7 143.5 74t54.5 155v334q0 45 -20 81.5t-55 41.5v8zM429 923q19 -26 -14 -45
q-92 -54 -149 -75l-6 9q63 59 122 112q16 12 27.5 11t19.5 -12z" />
    <glyph glyph-name="Ucircumflex" unicode="&#xdb;" horiz-adv-x="659" 
d="M495 700h124v-8q-42 -22 -42 -112v-345q0 -105 -67.5 -173t-172.5 -68q-119 0 -196.5 67.5t-77.5 197.5v374q0 46 -23 59v8h124v-8q-22 -13 -22 -59v-374q0 -125 61 -193.5t169 -59.5q89 7 143.5 74t54.5 155v334q0 45 -20 81.5t-55 41.5v8zM339 906l128 -128l-5 -5
l-123 79l-122 -79l-6 5z" />
    <glyph glyph-name="Udieresis" unicode="&#xdc;" horiz-adv-x="659" 
d="M495 700h124v-8q-42 -22 -42 -112v-345q0 -105 -67.5 -173t-172.5 -68q-119 0 -196.5 67.5t-77.5 197.5v374q0 46 -23 59v8h124v-8q-22 -13 -22 -59v-374q0 -125 61 -193.5t169 -59.5q89 7 143.5 74t54.5 155v334q0 45 -20 81.5t-55 41.5v8zM251 862q19 0 31.5 -13
t12.5 -31t-12.5 -31t-31.5 -13q-18 0 -30.5 13t-12.5 31t12.5 31t30.5 13zM426 862q18 0 31 -13t13 -31t-13 -31t-31 -13t-31 13t-13 31t13 31t31 13z" />
    <glyph glyph-name="Yacute" unicode="&#xdd;" horiz-adv-x="622" 
d="M494 700h118v-8q-39 -33 -61 -63t-58 -105l-128 -275v-183q0 -46 23 -59v-7h-124v7q22 13 22 59v172q-168 315 -189 356q-26 46 -87 98v8h175v-8q-41 -41 12 -139l160 -301l136 289q30 71 29.5 99.5t-28.5 51.5v8zM430 923q19 -26 -14 -45q-92 -54 -149 -75l-6 9
q63 59 122 112q16 12 27.5 11t19.5 -12z" />
    <glyph glyph-name="Thorn" unicode="&#xde;" horiz-adv-x="549" 
d="M191 554q153 0 240.5 -51t87.5 -153q0 -103 -87.5 -154t-240.5 -51h-49v-79q0 -46 22 -59v-7h-124v7q23 13 23 59v568q0 45 -23 58v8h124v-8q-22 -13 -22 -58v-80h49zM191 153q249 0 249 197q0 196 -249 196h-49v-393h49z" />
    <glyph glyph-name="germandbls" unicode="&#xdf;" horiz-adv-x="727" 
d="M424 391q116 27 202 -36t68 -176q-11 -71 -79.5 -128t-169.5 -57q-69 0 -134.5 28t-110.5 72l41 125h7q14 -96 69.5 -154t122.5 -60q83 -3 126 46t50 123q7 73 -22 127.5t-86 74t-139 -8.5l-3 7q93 33 133.5 77t31.5 109q-8 58 -57.5 99t-117.5 41q-85 0 -150 -50
t-65 -152v-432q0 -46 23 -59v-7h-124v7q22 13 22 59v358q0 68 26.5 124t70 91t96 53.5t106.5 18.5q100 0 171 -47t75 -110q2 -31 -9.5 -56t-26.5 -40t-43 -29t-45.5 -20t-48.5 -15q-7 -2 -10 -3z" />
    <glyph glyph-name="agrave" unicode="&#xe0;" horiz-adv-x="516" 
d="M486 7v-7h-101v140q-43 -146 -177 -146q-65 0 -115.5 29.5t-59.5 81.5q-22 134 121 194q-8 18 -8.5 41.5t8 48t25 45t46.5 34t68 13.5q71 0 121 -41t50 -126v-248q0 -46 22 -59zM284 471q-67 0 -105 -53.5t-15 -114.5q73 27 161 27q29 0 60 -9v7q0 62 -25.5 102.5
t-75.5 40.5zM232 7q60 3 98 46t55 105v154q-23 9 -60 9q-35 0 -68.5 -7t-66.5 -23t-53.5 -43t-30 -65.5t4.5 -91.5q9 -39 45.5 -62.5t75.5 -21.5zM275 694q59 -53 122 -112l-6 -9q-57 21 -149 75q-33 19 -14 45q8 11 19.5 12t27.5 -11z" />
    <glyph glyph-name="aacute" unicode="&#xe1;" horiz-adv-x="516" 
d="M486 7v-7h-101v140q-43 -146 -177 -146q-65 0 -115.5 29.5t-59.5 81.5q-22 134 121 194q-8 18 -8.5 41.5t8 48t25 45t46.5 34t68 13.5q71 0 121 -41t50 -126v-248q0 -46 22 -59zM284 471q-67 0 -105 -53.5t-15 -114.5q73 27 161 27q29 0 60 -9v7q0 62 -25.5 102.5
t-75.5 40.5zM232 7q60 3 98 46t55 105v154q-23 9 -60 9q-35 0 -68.5 -7t-66.5 -23t-53.5 -43t-30 -65.5t4.5 -91.5q9 -39 45.5 -62.5t75.5 -21.5zM397 693q19 -26 -14 -45q-92 -54 -149 -75l-6 9q63 59 122 112q16 12 27.5 11t19.5 -12z" />
    <glyph glyph-name="acircumflex" unicode="&#xe2;" horiz-adv-x="516" 
d="M486 7v-7h-101v140q-43 -146 -177 -146q-65 0 -115.5 29.5t-59.5 81.5q-22 134 121 194q-8 18 -8.5 41.5t8 48t25 45t46.5 34t68 13.5q71 0 121 -41t50 -126v-248q0 -46 22 -59zM284 471q-67 0 -105 -53.5t-15 -114.5q73 27 161 27q29 0 60 -9v7q0 62 -25.5 102.5
t-75.5 40.5zM232 7q60 3 98 46t55 105v154q-23 9 -60 9q-35 0 -68.5 -7t-66.5 -23t-53.5 -43t-30 -65.5t4.5 -91.5q9 -39 45.5 -62.5t75.5 -21.5zM298 676l128 -128l-5 -5l-123 79l-122 -79l-6 5z" />
    <glyph glyph-name="atilde" unicode="&#xe3;" horiz-adv-x="516" 
d="M486 7v-7h-101v140q-43 -146 -177 -146q-65 0 -115.5 29.5t-59.5 81.5q-22 134 121 194q-8 18 -8.5 41.5t8 48t25 45t46.5 34t68 13.5q71 0 121 -41t50 -126v-248q0 -46 22 -59zM284 471q-67 0 -105 -53.5t-15 -114.5q73 27 161 27q29 0 60 -9v7q0 62 -25.5 102.5
t-75.5 40.5zM232 7q60 3 98 46t55 105v154q-23 9 -60 9q-35 0 -68.5 -7t-66.5 -23t-53.5 -43t-30 -65.5t4.5 -91.5q9 -39 45.5 -62.5t75.5 -21.5zM443 636l8 -2q-29 -89 -86 -89q-33 0 -89.5 20.5t-74.5 20.5q-20 0 -29.5 -9.5t-18.5 -37.5l-8 3q14 43 34.5 63.5t54.5 20.5
q31 0 82.5 -20t79.5 -19q17 0 27.5 10.5t19.5 38.5z" />
    <glyph glyph-name="adieresis" unicode="&#xe4;" horiz-adv-x="516" 
d="M486 7v-7h-101v140q-43 -146 -177 -146q-65 0 -115.5 29.5t-59.5 81.5q-22 134 121 194q-8 18 -8.5 41.5t8 48t25 45t46.5 34t68 13.5q71 0 121 -41t50 -126v-248q0 -46 22 -59zM284 471q-67 0 -105 -53.5t-15 -114.5q73 27 161 27q29 0 60 -9v7q0 62 -25.5 102.5
t-75.5 40.5zM232 7q60 3 98 46t55 105v154q-23 9 -60 9q-35 0 -68.5 -7t-66.5 -23t-53.5 -43t-30 -65.5t4.5 -91.5q9 -39 45.5 -62.5t75.5 -21.5zM210 632q19 0 31.5 -13t12.5 -31t-12.5 -31t-31.5 -13q-18 0 -30.5 13t-12.5 31t12.5 31t30.5 13zM385 632q18 0 31 -13
t13 -31t-13 -31t-31 -13t-31 13t-13 31t13 31t31 13z" />
    <glyph glyph-name="aring" unicode="&#xe5;" horiz-adv-x="516" 
d="M486 7v-7h-101v140q-43 -146 -177 -146q-65 0 -115.5 29.5t-59.5 81.5q-22 134 121 194q-8 18 -8.5 41.5t8 48t25 45t46.5 34t68 13.5q71 0 121 -41t50 -126v-248q0 -46 22 -59zM284 471q-67 0 -105 -53.5t-15 -114.5q73 27 161 27q29 0 60 -9v7q0 62 -25.5 102.5
t-75.5 40.5zM232 7q60 3 98 46t55 105v154q-23 9 -60 9q-35 0 -68.5 -7t-66.5 -23t-53.5 -43t-30 -65.5t4.5 -91.5q9 -39 45.5 -62.5t75.5 -21.5zM298 528q-34 0 -58 23.5t-24 57.5q0 35 24 58.5t58 23.5t57.5 -24t23.5 -58t-23.5 -57.5t-57.5 -23.5zM298 683
q-31 0 -52.5 -21.5t-21.5 -52.5q0 -30 21.5 -51.5t52.5 -21.5q30 0 51.5 21.5t21.5 51.5q0 31 -21.5 52.5t-51.5 21.5z" />
    <glyph glyph-name="ae" unicode="&#xe6;" horiz-adv-x="905" 
d="M773 323q47 -12 77 -55.5t24 -108.5q-6 -63 -60 -114t-151 -51q-103 0 -180.5 49t-94.5 145q-6 -84 -52 -139t-128 -55q-65 0 -115.5 29.5t-59.5 81.5q-22 134 121 194q-8 18 -8.5 41.5t8 48t25 45.5t46.5 34t68 13q115 0 155 -88q40 40 95 63t107 25q75 4 140.5 -35.5
t75.5 -122.5h-93zM605 469q-49 -9 -82.5 -46.5t-47.5 -91.5h319q-10 68 -64 110t-125 28zM284 471q-67 0 -105 -53.5t-15 -114.5q73 27 161 27q29 0 60 -9v7q0 62 -25.5 102.5t-75.5 40.5zM232 7q56 4 92 42t48.5 86t12.5 105v72q-23 9 -61 9q-35 0 -68 -7t-66 -23
t-53.5 -43t-30 -65.5t4.5 -91.5q9 -39 45.5 -62.5t75.5 -21.5zM864 157q9 74 -31 120t-101 46h-259q-21 -85 6 -160q55 -153 215 -147q65 3 114 43t56 98z" />
    <glyph glyph-name="ccedilla" unicode="&#xe7;" horiz-adv-x="551" 
d="M321 -5h-30l-22 -57q47 22 88 0t37 -68q-3 -28 -30 -48.5t-64 -20.5q-47 0 -79 32l4 6q33 -31 74 -31q50 0 58 60q6 43 -19 62t-76 0l-1 2l24 63q-101 5 -171 65t-73 167q-2 62 23 112.5t65.5 80t85.5 45.5t89 16q40 0 93.5 -16t94.5 -37l-15 -83h-6q-21 52 -84.5 95.5
t-128.5 28.5q-59 -13 -96.5 -65t-42.5 -114.5t14 -126.5q28 -79 87 -119t136 -32q103 12 168 126l7 -3q-75 -132 -210 -140z" />
    <glyph glyph-name="egrave" unicode="&#xe8;" 
d="M426 323q46 -12 76.5 -56t24.5 -108q-5 -63 -59.5 -114t-151.5 -51q-114 0 -193 58.5t-82 174.5q-2 62 23 111.5t65.5 78.5t85 45.5t88.5 18.5q75 4 140.5 -35.5t75.5 -122.5h-71h-22zM258 469q-49 -9 -82.5 -46.5t-47.5 -91.5h319q-10 68 -64 110t-125 28zM518 157
q9 74 -31.5 120t-101.5 46h-259q-20 -83 7 -160q54 -153 214 -147q65 3 114.5 43t56.5 98zM281 694q59 -53 122 -112l-6 -9q-57 21 -149 75q-33 19 -14 45q8 11 19.5 12t27.5 -11z" />
    <glyph glyph-name="eacute" unicode="&#xe9;" 
d="M426 323q46 -12 76.5 -56t24.5 -108q-5 -63 -59.5 -114t-151.5 -51q-114 0 -193 58.5t-82 174.5q-2 62 23 111.5t65.5 78.5t85 45.5t88.5 18.5q75 4 140.5 -35.5t75.5 -122.5h-71h-22zM258 469q-49 -9 -82.5 -46.5t-47.5 -91.5h319q-10 68 -64 110t-125 28zM518 157
q9 74 -31.5 120t-101.5 46h-259q-20 -83 7 -160q54 -153 214 -147q65 3 114.5 43t56.5 98zM393 693q19 -26 -14 -45q-92 -54 -149 -75l-6 9q63 59 122 112q16 12 27.5 11t19.5 -12z" />
    <glyph glyph-name="ecircumflex" unicode="&#xea;" 
d="M426 323q46 -12 76.5 -56t24.5 -108q-5 -63 -59.5 -114t-151.5 -51q-114 0 -193 58.5t-82 174.5q-2 62 23 111.5t65.5 78.5t85 45.5t88.5 18.5q75 4 140.5 -35.5t75.5 -122.5h-71h-22zM258 469q-49 -9 -82.5 -46.5t-47.5 -91.5h319q-10 68 -64 110t-125 28zM518 157
q9 74 -31.5 120t-101.5 46h-259q-20 -83 7 -160q54 -153 214 -147q65 3 114.5 43t56.5 98zM304 676l128 -128l-5 -5l-123 79l-122 -79l-6 5z" />
    <glyph glyph-name="edieresis" unicode="&#xeb;" 
d="M426 323q46 -12 76.5 -56t24.5 -108q-5 -63 -59.5 -114t-151.5 -51q-114 0 -193 58.5t-82 174.5q-2 62 23 111.5t65.5 78.5t85 45.5t88.5 18.5q75 4 140.5 -35.5t75.5 -122.5h-71h-22zM258 469q-49 -9 -82.5 -46.5t-47.5 -91.5h319q-10 68 -64 110t-125 28zM518 157
q9 74 -31.5 120t-101.5 46h-259q-20 -83 7 -160q54 -153 214 -147q65 3 114.5 43t56.5 98zM216 632q19 0 31.5 -13t12.5 -31t-12.5 -31t-31.5 -13q-18 0 -30.5 13t-12.5 31t12.5 31t30.5 13zM391 632q18 0 31 -13t13 -31t-13 -31t-31 -13t-31 13t-13 31t13 31t31 13z" />
    <glyph glyph-name="igrave" unicode="&#xec;" horiz-adv-x="194" 
d="M141 66q0 -46 23 -59v-7h-124v7q22 13 22 59v338q0 27 -4 36.5t-18 11.5v7l94 22h7v-415zM65 694q59 -53 122 -112l-6 -9q-57 21 -149 75q-33 19 -14 45q8 11 19.5 12t27.5 -11z" />
    <glyph glyph-name="iacute" unicode="&#xed;" horiz-adv-x="194" 
d="M141 66q0 -46 23 -59v-7h-124v7q22 13 22 59v338q0 27 -4 36.5t-18 11.5v7l94 22h7v-415zM177 693q19 -26 -14 -45q-92 -54 -149 -75l-6 9q63 59 122 112q16 12 27.5 11t19.5 -12z" />
    <glyph glyph-name="icircumflex" unicode="&#xee;" horiz-adv-x="194" 
d="M141 66q0 -46 23 -59v-7h-124v7q22 13 22 59v338q0 27 -4 36.5t-18 11.5v7l94 22h7v-415zM97 676l128 -128l-5 -5l-123 79l-122 -79l-6 5z" />
    <glyph glyph-name="idieresis" unicode="&#xef;" horiz-adv-x="194" 
d="M141 66q0 -46 23 -59v-7h-124v7q22 13 22 59v338q0 27 -4 36.5t-18 11.5v7l94 22h7v-415zM9 632q19 0 31.5 -13t12.5 -31t-12.5 -31t-31.5 -13q-18 0 -30.5 13t-12.5 31t12.5 31t30.5 13zM184 632q18 0 31 -13t13 -31t-13 -31t-31 -13t-31 13t-13 31t13 31t31 13z" />
    <glyph glyph-name="eth" unicode="&#xf0;" horiz-adv-x="573" 
d="M350 620q117 -90 167.5 -220t1.5 -262q-18 -50 -58 -83.5t-82.5 -47t-86.5 -13.5q-102 0 -170 52.5t-79 122.5q-9 51 9 100.5t59.5 83t96 49.5t125.5 0t141 -66q-7 167 -137 277l-175 -85v9l167 82q-87 72 -203 94l3 6q110 -19 213 -93l107 52v-10zM297 5q59 5 100.5 56
t59.5 121t18 148q-123 71 -205.5 54t-123.5 -79.5t-36 -141.5q5 -73 53.5 -119t133.5 -39z" />
    <glyph glyph-name="ntilde" unicode="&#xf1;" horiz-adv-x="554" 
d="M506 66q5 -45 28 -59v-7h-124v7q21 12 17 59q-1 8 -6 65t-10 111.5t-7 77.5q-6 66 -38.5 110.5t-91.5 32.5q-39 -8 -67.5 -45.5t-41.5 -90t-18.5 -96.5t-5.5 -83v-82q0 -46 23 -59v-7h-124v7q22 13 22 59v338q0 27 -4 36.5t-18 11.5v7l94 22h7v-248q6 49 15.5 87
t28.5 77.5t53 61.5t80 22q65 0 110 -45t54 -131q5 -51 13.5 -136t10.5 -103zM442 636l8 -2q-29 -89 -86 -89q-33 0 -89.5 20.5t-74.5 20.5q-20 0 -29.5 -9.5t-18.5 -37.5l-8 3q14 43 34.5 63.5t54.5 20.5q31 0 82.5 -20t79.5 -19q17 0 27.5 10.5t19.5 38.5z" />
    <glyph glyph-name="ograve" unicode="&#xf2;" horiz-adv-x="591" 
d="M311 481q104 0 177 -61t73 -161q0 -115 -82.5 -190t-188.5 -75q-105 0 -177.5 60t-72.5 162q0 118 82 191.5t189 73.5zM367 12q55 16 87 60t35.5 100t-12.5 119q-27 94 -94 145t-149 27q-55 -16 -87 -60t-35.5 -100t12.5 -119q28 -95 94.5 -146t148.5 -26zM258 694
q59 -53 122 -112l-6 -9q-57 21 -149 75q-33 19 -14 45q8 11 19.5 12t27.5 -11z" />
    <glyph glyph-name="oacute" unicode="&#xf3;" horiz-adv-x="591" 
d="M311 481q104 0 177 -61t73 -161q0 -115 -82.5 -190t-188.5 -75q-105 0 -177.5 60t-72.5 162q0 118 82 191.5t189 73.5zM367 12q55 16 87 60t35.5 100t-12.5 119q-27 94 -94 145t-149 27q-55 -16 -87 -60t-35.5 -100t12.5 -119q28 -95 94.5 -146t148.5 -26zM400 693
q19 -26 -14 -45q-92 -54 -149 -75l-6 9q63 59 122 112q16 12 27.5 11t19.5 -12z" />
    <glyph glyph-name="ocircumflex" unicode="&#xf4;" horiz-adv-x="591" 
d="M311 481q104 0 177 -61t73 -161q0 -115 -82.5 -190t-188.5 -75q-105 0 -177.5 60t-72.5 162q0 118 82 191.5t189 73.5zM367 12q55 16 87 60t35.5 100t-12.5 119q-27 94 -94 145t-149 27q-55 -16 -87 -60t-35.5 -100t12.5 -119q28 -95 94.5 -146t148.5 -26zM300 676
l128 -128l-5 -5l-123 79l-122 -79l-6 5z" />
    <glyph glyph-name="otilde" unicode="&#xf5;" horiz-adv-x="591" 
d="M311 481q104 0 177 -61t73 -161q0 -115 -82.5 -190t-188.5 -75q-105 0 -177.5 60t-72.5 162q0 118 82 191.5t189 73.5zM367 12q55 16 87 60t35.5 100t-12.5 119q-27 94 -94 145t-149 27q-55 -16 -87 -60t-35.5 -100t12.5 -119q28 -95 94.5 -146t148.5 -26zM445 636l8 -2
q-29 -89 -86 -89q-33 0 -89.5 20.5t-74.5 20.5q-20 0 -29.5 -9.5t-18.5 -37.5l-8 3q14 43 34.5 63.5t54.5 20.5q31 0 82.5 -20t79.5 -19q17 0 27.5 10.5t19.5 38.5z" />
    <glyph glyph-name="odieresis" unicode="&#xf6;" horiz-adv-x="591" 
d="M311 481q104 0 177 -61t73 -161q0 -115 -82.5 -190t-188.5 -75q-105 0 -177.5 60t-72.5 162q0 118 82 191.5t189 73.5zM367 12q55 16 87 60t35.5 100t-12.5 119q-27 94 -94 145t-149 27q-55 -16 -87 -60t-35.5 -100t12.5 -119q28 -95 94.5 -146t148.5 -26zM212 632
q19 0 31.5 -13t12.5 -31t-12.5 -31t-31.5 -13q-18 0 -30.5 13t-12.5 31t12.5 31t30.5 13zM387 632q18 0 31 -13t13 -31t-13 -31t-31 -13t-31 13t-13 31t13 31t31 13z" />
    <glyph glyph-name="divide" unicode="&#xf7;" horiz-adv-x="465" 
d="M233 481q-17 0 -29.5 12.5t-12.5 29.5t12.5 29.5t29.5 12.5t29 -12.5t12 -29.5t-12 -29.5t-29 -12.5zM233 218q17 0 29 -12t12 -29t-12 -29.5t-29 -12.5t-29.5 12.5t-12.5 29.5t12.5 29t29.5 12zM40 354h385v-8h-385v8z" />
    <glyph glyph-name="oslash" unicode="&#xf8;" horiz-adv-x="597" 
d="M491 420q73 -62 73 -161q0 -115 -82.5 -190t-188.5 -75q-102 0 -172 56l-76 -76l-5 5l75 76q-72 61 -72 161q0 118 82 191.5t189 73.5q100 0 172 -56l76 76l5 -5zM127 184q12 -42 36 -81l276 276q-36 55 -89 78.5t-113 5.5q-55 -16 -87 -60t-35.5 -100t12.5 -119zM370 12
q55 16 87 60t35.5 100t-12.5 119q-13 44 -36 82l-277 -277q37 -54 90 -77.5t113 -6.5z" />
    <glyph glyph-name="ugrave" unicode="&#xf9;" horiz-adv-x="536" 
d="M506 7v-7h-102v243q-6 -49 -15.5 -87.5t-28.5 -78t-53 -61.5t-80 -22q-73 0 -119 45.5t-46 130.5v234q0 27 -4 36.5t-18 11.5v7l94 22h7v-326q0 -70 35 -112t96 -31q39 8 67.5 45.5t41 90t18 96.5t5.5 83v77q0 27 -4 36.5t-18 11.5v7l94 22h7v-415q0 -46 23 -59zM230 694
q59 -53 122 -112l-6 -9q-57 21 -149 75q-33 19 -14 45q8 11 19.5 12t27.5 -11z" />
    <glyph glyph-name="uacute" unicode="&#xfa;" horiz-adv-x="536" 
d="M506 7v-7h-102v243q-6 -49 -15.5 -87.5t-28.5 -78t-53 -61.5t-80 -22q-73 0 -119 45.5t-46 130.5v234q0 27 -4 36.5t-18 11.5v7l94 22h7v-326q0 -70 35 -112t96 -31q39 8 67.5 45.5t41 90t18 96.5t5.5 83v77q0 27 -4 36.5t-18 11.5v7l94 22h7v-415q0 -46 23 -59zM372 693
q19 -26 -14 -45q-92 -54 -149 -75l-6 9q63 59 122 112q16 12 27.5 11t19.5 -12z" />
    <glyph glyph-name="ucircumflex" unicode="&#xfb;" horiz-adv-x="536" 
d="M506 7v-7h-102v243q-6 -49 -15.5 -87.5t-28.5 -78t-53 -61.5t-80 -22q-73 0 -119 45.5t-46 130.5v234q0 27 -4 36.5t-18 11.5v7l94 22h7v-326q0 -70 35 -112t96 -31q39 8 67.5 45.5t41 90t18 96.5t5.5 83v77q0 27 -4 36.5t-18 11.5v7l94 22h7v-415q0 -46 23 -59zM283 676
l128 -128l-5 -5l-123 79l-122 -79l-6 5z" />
    <glyph glyph-name="udieresis" unicode="&#xfc;" horiz-adv-x="536" 
d="M506 7v-7h-102v243q-6 -49 -15.5 -87.5t-28.5 -78t-53 -61.5t-80 -22q-73 0 -119 45.5t-46 130.5v234q0 27 -4 36.5t-18 11.5v7l94 22h7v-326q0 -70 35 -112t96 -31q39 8 67.5 45.5t41 90t18 96.5t5.5 83v77q0 27 -4 36.5t-18 11.5v7l94 22h7v-415q0 -46 23 -59zM195 632
q19 0 31.5 -13t12.5 -31t-12.5 -31t-31.5 -13q-18 0 -30.5 13t-12.5 31t12.5 31t30.5 13zM370 632q18 0 31 -13t13 -31t-13 -31t-31 -13t-31 13t-13 31t13 31t31 13z" />
    <glyph glyph-name="yacute" unicode="&#xfd;" horiz-adv-x="519" 
d="M509 473q-69 -71 -115 -185q-80 -199 -116 -288q-31 -78 -68.5 -121.5t-91.5 -43.5q-79 0 -118 71l78 71l6 -5q-9 -49 4.5 -90t51.5 -37q64 7 126 146l-128 301q-34 80 -55.5 116.5t-55.5 64.5v8h153v-8q-12 -13 -14 -29t2.5 -32.5t17.5 -48.5l119 -278l82 204
q20 50 28 81.5t3 58t-27 44.5v8h118v-8zM394 693q19 -26 -14 -45q-92 -54 -149 -75l-6 9q63 59 122 112q16 12 27.5 11t19.5 -12z" />
    <glyph glyph-name="thorn" unicode="&#xfe;" horiz-adv-x="567" 
d="M350 481q68 0 125.5 -54t60.5 -143q2 -71 -22.5 -125t-60.5 -84.5t-85 -49.5t-89 -25t-79 -6q-21 0 -59 9v-172q0 -27 4 -36.5t18 -11.5v-7l-94 -22h-7v890q0 28 -4 37t-18 11v8l94 21h7v-514q8 50 21.5 93t37 86.5t62 69t88.5 25.5zM201 0q33 0 65 6.5t70.5 26
t65.5 50.5t43.5 86.5t12.5 128.5q-4 71 -47.5 124t-104.5 41q-52 -10 -91.5 -72.5t-56.5 -128.5t-17 -114v-139q25 -10 60 -9z" />
    <glyph glyph-name="ydieresis" unicode="&#xff;" horiz-adv-x="519" 
d="M509 473q-69 -71 -115 -185q-80 -199 -116 -288q-31 -78 -68.5 -121.5t-91.5 -43.5q-79 0 -118 71l78 71l6 -5q-9 -49 4.5 -90t51.5 -37q64 7 126 146l-128 301q-34 80 -55.5 116.5t-55.5 64.5v8h153v-8q-12 -13 -14 -29t2.5 -32.5t17.5 -48.5l119 -278l82 204
q20 50 28 81.5t3 58t-27 44.5v8h118v-8zM206 632q19 0 31.5 -13t12.5 -31t-12.5 -31t-31.5 -13q-18 0 -30.5 13t-12.5 31t12.5 31t30.5 13zM381 632q18 0 31 -13t13 -31t-13 -31t-31 -13t-31 13t-13 31t13 31t31 13z" />
    <glyph glyph-name="Amacron" unicode="&#x100;" horiz-adv-x="621" 
d="M611 7v-7h-154v7q18 23 15 49t-25 85l-49 127h-248l-27 -76q-25 -72 -25 -112.5t30 -72.5v-7h-118v7q63 66 105 185l150 422l-33 86h79l195 -508q48 -118 105 -185zM153 276h242l-126 327zM135 822h310v-8h-310v8z" />
    <glyph glyph-name="amacron" unicode="&#x101;" horiz-adv-x="516" 
d="M486 7v-7h-101v140q-43 -146 -177 -146q-65 0 -115.5 29.5t-59.5 81.5q-22 134 121 194q-8 18 -8.5 41.5t8 48t25 45t46.5 34t68 13.5q71 0 121 -41t50 -126v-248q0 -46 22 -59zM284 471q-67 0 -105 -53.5t-15 -114.5q73 27 161 27q29 0 60 -9v7q0 62 -25.5 102.5
t-75.5 40.5zM232 7q60 3 98 46t55 105v154q-23 9 -60 9q-35 0 -68.5 -7t-66.5 -23t-53.5 -43t-30 -65.5t4.5 -91.5q9 -39 45.5 -62.5t75.5 -21.5zM143 592h310v-8h-310v8z" />
    <glyph glyph-name="Abreve" unicode="&#x102;" horiz-adv-x="621" 
d="M611 7v-7h-154v7q18 23 15 49t-25 85l-49 127h-248l-27 -76q-25 -72 -25 -112.5t30 -72.5v-7h-118v7q63 66 105 185l150 422l-33 86h79l195 -508q48 -118 105 -185zM153 276h242l-126 327zM400 905h7q-5 -58 -35.5 -90.5t-81.5 -32.5t-81.5 33t-34.5 90h7q21 -78 109 -78
t110 78z" />
    <glyph glyph-name="abreve" unicode="&#x103;" horiz-adv-x="516" 
d="M486 7v-7h-101v140q-43 -146 -177 -146q-65 0 -115.5 29.5t-59.5 81.5q-22 134 121 194q-8 18 -8.5 41.5t8 48t25 45t46.5 34t68 13.5q71 0 121 -41t50 -126v-248q0 -46 22 -59zM284 471q-67 0 -105 -53.5t-15 -114.5q73 27 161 27q29 0 60 -9v7q0 62 -25.5 102.5
t-75.5 40.5zM232 7q60 3 98 46t55 105v154q-23 9 -60 9q-35 0 -68.5 -7t-66.5 -23t-53.5 -43t-30 -65.5t4.5 -91.5q9 -39 45.5 -62.5t75.5 -21.5zM407 675h7q-5 -58 -35.5 -90.5t-81.5 -32.5t-81.5 33t-34.5 90h7q21 -78 109 -78t110 78z" />
    <glyph glyph-name="Aogonek" unicode="&#x104;" horiz-adv-x="621" 
d="M534 0q-45 -23 -62 -70t7 -80q29 -40 80 -23q20 7 38 29l5 -6q-23 -25 -41 -34q-34 -17 -67 -10.5t-48 29.5q-23 36 1 87t74 78h-64v7q18 23 15 49t-25 85l-49 128h-248l-27 -77q-26 -72 -26 -112t31 -73v-7h-118v7q65 71 105 185l150 422l-33 86h78l196 -508
q48 -118 105 -185v-7h-77zM153 276h242l-126 328z" />
    <glyph glyph-name="aogonek" unicode="&#x105;" horiz-adv-x="549" 
d="M514 -145l5 -5q-23 -25 -41 -34q-34 -17 -67 -10.5t-48 29.5q-24 35 0.5 86.5t74.5 78.5h-53v140q-43 -146 -177 -146q-65 0 -115 29.5t-59 81.5q-24 135 121 194q-8 18 -8.5 41.5t7.5 48t24.5 45t46.5 34t68 13.5q71 0 121 -41t50 -126v-248q0 -46 22 -59v-7h-35
q-45 -23 -62 -70t7 -80q29 -40 80 -23q18 7 38 28zM385 158v154q-23 9 -60 9q-35 0 -68.5 -7t-66.5 -23t-53.5 -43t-30 -65.5t4.5 -91.5q9 -39 45.5 -62.5t76.5 -21.5q60 3 98 46t54 105zM385 321v7q0 62 -25.5 102.5t-75.5 40.5q-67 0 -104.5 -53.5t-14.5 -114.5
q73 27 161 27q28 0 59 -9z" />
    <glyph glyph-name="Cacute" unicode="&#x106;" horiz-adv-x="755" 
d="M718 201l7 -3q-98 -204 -327 -204q-149 0 -258.5 105.5t-109.5 252.5t113.5 252.5t263.5 105.5q77 0 133.5 -19.5t124.5 -64.5l-30 -114h-7q-59 93 -144.5 143.5t-178.5 30.5q-62 -13 -107.5 -55.5t-66 -100t-24 -126t18.5 -134.5q40 -132 141 -196.5t233 -44.5
q141 20 218 172zM497 923q19 -26 -14 -45q-92 -54 -149 -75l-6 9q63 59 122 112q16 12 27.5 11t19.5 -12z" />
    <glyph glyph-name="cacute" unicode="&#x107;" horiz-adv-x="550" 
d="M132 163q28 -78 87.5 -118.5t135.5 -32.5q103 10 169 126l6 -3q-74 -133 -209 -141q-112 -6 -194.5 55t-85.5 178q-2 62 23 112.5t65 80t85.5 45.5t88.5 16q41 0 94 -15.5t95 -37.5l-15 -83h-6q-21 52 -84.5 95.5t-128.5 28.5q-44 -10 -77 -42.5t-47.5 -76t-16.5 -93
t15 -94.5zM404 693q19 -26 -14 -45q-92 -54 -149 -75l-6 9q63 59 122 112q16 12 27.5 11t19.5 -12z" />
    <glyph glyph-name="Ccircumflex" unicode="&#x108;" horiz-adv-x="755" 
d="M718 201l7 -3q-98 -204 -327 -204q-149 0 -258.5 105.5t-109.5 252.5t113.5 252.5t263.5 105.5q77 0 133.5 -19.5t124.5 -64.5l-30 -114h-7q-59 93 -144.5 143.5t-178.5 30.5q-62 -13 -107.5 -55.5t-66 -100t-24 -126t18.5 -134.5q40 -132 141 -196.5t233 -44.5
q141 20 218 172zM397 906l128 -128l-5 -5l-123 79l-122 -79l-6 5z" />
    <glyph glyph-name="ccircumflex" unicode="&#x109;" horiz-adv-x="550" 
d="M132 163q28 -78 87.5 -118.5t135.5 -32.5q103 10 169 126l6 -3q-74 -133 -209 -141q-112 -6 -194.5 55t-85.5 178q-2 62 23 112.5t65 80t85.5 45.5t88.5 16q41 0 94 -15.5t95 -37.5l-15 -83h-6q-21 52 -84.5 95.5t-128.5 28.5q-44 -10 -77 -42.5t-47.5 -76t-16.5 -93
t15 -94.5zM305 676l128 -128l-5 -5l-123 79l-122 -79l-6 5z" />
    <glyph glyph-name="Cdotaccent" unicode="&#x10a;" horiz-adv-x="755" 
d="M718 201l7 -3q-98 -204 -327 -204q-149 0 -258.5 105.5t-109.5 252.5t113.5 252.5t263.5 105.5q77 0 133.5 -19.5t124.5 -64.5l-30 -114h-7q-59 93 -144.5 143.5t-178.5 30.5q-62 -13 -107.5 -55.5t-66 -100t-24 -126t18.5 -134.5q40 -132 141 -196.5t233 -44.5
q141 20 218 172zM397 862q19 0 31.5 -13t12.5 -31t-12.5 -31t-31.5 -13q-18 0 -30.5 13t-12.5 31t12.5 31t30.5 13z" />
    <glyph glyph-name="cdotaccent" unicode="&#x10b;" horiz-adv-x="550" 
d="M132 163q28 -78 87.5 -118.5t135.5 -32.5q103 10 169 126l6 -3q-74 -133 -209 -141q-112 -6 -194.5 55t-85.5 178q-2 62 23 112.5t65 80t85.5 45.5t88.5 16q41 0 94 -15.5t95 -37.5l-15 -83h-6q-21 52 -84.5 95.5t-128.5 28.5q-44 -10 -77 -42.5t-47.5 -76t-16.5 -93
t15 -94.5zM304 632q19 0 31.5 -13t12.5 -31t-12.5 -31t-31.5 -13q-18 0 -30.5 13t-12.5 31t12.5 31t30.5 13z" />
    <glyph glyph-name="Ccaron" unicode="&#x10c;" horiz-adv-x="755" 
d="M718 201l7 -3q-98 -204 -327 -204q-149 0 -258.5 105.5t-109.5 252.5t113.5 252.5t263.5 105.5q77 0 133.5 -19.5t124.5 -64.5l-30 -114h-7q-59 93 -144.5 143.5t-178.5 30.5q-62 -13 -107.5 -55.5t-66 -100t-24 -126t18.5 -134.5q40 -132 141 -196.5t233 -44.5
q141 20 218 172zM515 901l-128 -128l-128 128l5 5l123 -79l122 79z" />
    <glyph glyph-name="ccaron" unicode="&#x10d;" horiz-adv-x="550" 
d="M132 163q28 -78 87.5 -118.5t135.5 -32.5q103 10 169 126l6 -3q-74 -133 -209 -141q-112 -6 -194.5 55t-85.5 178q-2 62 23 112.5t65 80t85.5 45.5t88.5 16q41 0 94 -15.5t95 -37.5l-15 -83h-6q-21 52 -84.5 95.5t-128.5 28.5q-44 -10 -77 -42.5t-47.5 -76t-16.5 -93
t15 -94.5zM433 671l-128 -128l-128 128l5 5l123 -79l122 79z" />
    <glyph glyph-name="Dcaron" unicode="&#x10e;" horiz-adv-x="721" 
d="M290 700q173 0 287 -100.5t114 -249.5t-114 -249.5t-287 -100.5h-250v7q22 13 22 59v567q0 46 -22 59v8h250zM290 7q145 0 233.5 99.5t88.5 243.5q0 143 -88.5 242.5t-233.5 99.5h-149v-685h149zM473 901l-128 -128l-128 128l5 5l123 -79l122 79z" />
    <glyph glyph-name="dcaron" unicode="&#x10f;" horiz-adv-x="653" 
d="M537 7v-7h-101v268q-8 -50 -21.5 -93t-37.5 -86.5t-62.5 -69t-88.5 -25.5q-67 0 -124.5 54t-60.5 144q-2 70 22.5 124.5t60.5 84.5t85 49t88.5 25t78.5 6q29 0 60 -9v172q0 27 -4 36.5t-19 11.5v8l95 21h7v-655q0 -46 22 -59zM271 12q52 10 91.5 72.5t56.5 128.5t17 114
v140q-45 9 -60 9q-34 -1 -66 -7t-70 -26t-65 -51t-43.5 -86.5t-12.5 -128.5q4 -71 47.5 -123.5t104.5 -41.5zM649 721q22 0 38 -16.5t16 -38.5q0 -75 -90 -147l-5 5q62 54 77 103q-17 -15 -36 -15q-22 0 -38.5 16t-16.5 38t16 38.5t39 16.5z" />
    <glyph glyph-name="Dcroat" unicode="&#x110;" horiz-adv-x="746" 
d="M315 700q173 0 287 -100.5t114 -249.5t-114 -249.5t-287 -100.5h-250v7q22 13 22 59v280h-87v8h87v280q0 45 -22 58v8h250zM315 7q145 0 233.5 99.5t88.5 243.5q0 143 -88.5 242.5t-233.5 99.5h-149v-338h219v-8h-219v-339h149z" />
    <glyph glyph-name="dcroat" unicode="&#x111;" horiz-adv-x="567" 
d="M605 564v-7h-91v-491q0 -46 23 -59v-7h-23h-79v268q-8 -50 -21.5 -93t-37 -86.5t-62 -69t-88.5 -25.5q-68 0 -125.5 54.5t-59.5 143.5q-2 70 22 124.5t60 84.5t85 49t89 25t79 6q28 0 59 -9v85h-215v7h215v80q0 28 -4 37t-18 11v8l94 21h7v-157h91zM435 328v139
q-45 9 -60 9q-27 -1 -53.5 -5.5t-58.5 -15.5t-58 -33.5t-47.5 -53.5t-32 -80.5t-7.5 -110.5q4 -71 47.5 -123.5t104.5 -41.5q52 10 91.5 72.5t56.5 128.5t17 115z" />
    <glyph glyph-name="Emacron" unicode="&#x112;" horiz-adv-x="498" 
d="M462 125l6 -4l-22 -121h-406v7q22 13 22 59v567q0 46 -22 59v8h374l21 -111l-5 -4q-43 49 -93.5 78t-125.5 29h-70v-295l252 22v-51l-252 21v-382h81q77 0 139 33.5t101 84.5zM79 822h310v-8h-310v8z" />
    <glyph glyph-name="emacron" unicode="&#x113;" 
d="M426 323q46 -12 76.5 -56t24.5 -108q-5 -63 -59.5 -114t-151.5 -51q-114 0 -193 58.5t-82 174.5q-2 62 23 111.5t65.5 78.5t85 45.5t88.5 18.5q75 4 140.5 -35.5t75.5 -122.5h-71h-22zM258 469q-49 -9 -82.5 -46.5t-47.5 -91.5h319q-10 68 -64 110t-125 28zM518 157
q9 74 -31.5 120t-101.5 46h-259q-20 -83 7 -160q54 -153 214 -147q65 3 114.5 43t56.5 98zM139 592h310v-8h-310v8z" />
    <glyph glyph-name="Ebreve" unicode="&#x114;" horiz-adv-x="498" 
d="M462 125l6 -4l-22 -121h-406v7q22 13 22 59v567q0 46 -22 59v8h374l21 -111l-5 -4q-43 49 -93.5 78t-125.5 29h-70v-295l252 22v-51l-252 21v-382h81q77 0 139 33.5t101 84.5zM363 905h7q-5 -58 -35.5 -90.5t-81.5 -32.5t-81.5 33t-34.5 90h7q21 -78 109 -78t110 78z" />
    <glyph glyph-name="ebreve" unicode="&#x115;" 
d="M426 323q46 -12 76.5 -56t24.5 -108q-5 -63 -59.5 -114t-151.5 -51q-114 0 -193 58.5t-82 174.5q-2 62 23 111.5t65.5 78.5t85 45.5t88.5 18.5q75 4 140.5 -35.5t75.5 -122.5h-71h-22zM258 469q-49 -9 -82.5 -46.5t-47.5 -91.5h319q-10 68 -64 110t-125 28zM518 157
q9 74 -31.5 120t-101.5 46h-259q-20 -83 7 -160q54 -153 214 -147q65 3 114.5 43t56.5 98zM413 675h7q-5 -58 -35.5 -90.5t-81.5 -32.5t-81.5 33t-34.5 90h7q21 -78 109 -78t110 78z" />
    <glyph glyph-name="Edotaccent" unicode="&#x116;" horiz-adv-x="498" 
d="M462 125l6 -4l-22 -121h-406v7q22 13 22 59v567q0 46 -22 59v8h374l21 -111l-5 -4q-43 49 -93.5 78t-125.5 29h-70v-295l252 22v-51l-252 21v-382h81q77 0 139 33.5t101 84.5zM253 862q19 0 31.5 -13t12.5 -31t-12.5 -31t-31.5 -13q-18 0 -30.5 13t-12.5 31t12.5 31
t30.5 13z" />
    <glyph glyph-name="edotaccent" unicode="&#x117;" 
d="M426 323q46 -12 76.5 -56t24.5 -108q-5 -63 -59.5 -114t-151.5 -51q-114 0 -193 58.5t-82 174.5q-2 62 23 111.5t65.5 78.5t85 45.5t88.5 18.5q75 4 140.5 -35.5t75.5 -122.5h-71h-22zM258 469q-49 -9 -82.5 -46.5t-47.5 -91.5h319q-10 68 -64 110t-125 28zM518 157
q9 74 -31.5 120t-101.5 46h-259q-20 -83 7 -160q54 -153 214 -147q65 3 114.5 43t56.5 98zM303 632q19 0 31.5 -13t12.5 -31t-12.5 -31t-31.5 -13q-18 0 -30.5 13t-12.5 31t12.5 31t30.5 13z" />
    <glyph glyph-name="Eogonek" unicode="&#x118;" horiz-adv-x="498" 
d="M463 -144l4 -6q-20 -24 -40 -34q-34 -17 -67.5 -10.5t-48.5 29.5q-23 36 1.5 87t74.5 78h-347v7q22 13 22 59v568q0 45 -22 58v8h373l22 -111l-5 -3q-43 48 -94 77t-125 29h-70v-295l252 22v-51l-252 22v-383h80q78 0 140 33.5t101 84.5l5 -4l-21 -121h-46
q-45 -23 -62 -70t7 -80q27 -40 80 -23q17 6 38 29z" />
    <glyph glyph-name="eogonek" unicode="&#x119;" 
d="M426 323q46 -11 76.5 -55t24.5 -109q-4 -50 -41 -94.5t-104 -61.5q-49 -21 -68 -70.5t6 -82.5q27 -40 80 -23q17 6 38 29l4 -6q-20 -24 -40 -34q-34 -17 -67.5 -10.5t-48.5 29.5q-23 35 1 85.5t73 78.5q-19 -4 -44 -4q-114 0 -193 58t-82 174q-2 62 23 111.5t65.5 79
t85 45.5t88.5 18q75 4 140.5 -35.5t75.5 -122.5h-71h-22zM258 469q-49 -9 -82.5 -46.5t-47.5 -91.5h319q-10 68 -64 110t-125 28zM518 157q9 74 -31.5 120t-101.5 46h-259q-21 -85 6 -160q55 -153 215 -147q65 3 114.5 43t56.5 98z" />
    <glyph glyph-name="Ecaron" unicode="&#x11a;" horiz-adv-x="498" 
d="M462 125l6 -4l-22 -121h-406v7q22 13 22 59v567q0 46 -22 59v8h374l21 -111l-5 -4q-43 49 -93.5 78t-125.5 29h-70v-295l252 22v-51l-252 21v-382h81q77 0 139 33.5t101 84.5zM382 901l-128 -128l-128 128l5 5l123 -79l122 79z" />
    <glyph glyph-name="ecaron" unicode="&#x11b;" 
d="M426 323q46 -12 76.5 -56t24.5 -108q-5 -63 -59.5 -114t-151.5 -51q-114 0 -193 58.5t-82 174.5q-2 62 23 111.5t65.5 78.5t85 45.5t88.5 18.5q75 4 140.5 -35.5t75.5 -122.5h-71h-22zM258 469q-49 -9 -82.5 -46.5t-47.5 -91.5h319q-10 68 -64 110t-125 28zM518 157
q9 74 -31.5 120t-101.5 46h-259q-20 -83 7 -160q54 -153 214 -147q65 3 114.5 43t56.5 98zM432 671l-128 -128l-128 128l5 5l123 -79l122 79z" />
    <glyph glyph-name="Gcircumflex" unicode="&#x11c;" horiz-adv-x="763" 
d="M550 333h178v-8q-22 -13 -22 -59v-108q-12 -25 -35 -50.5t-60.5 -52.5t-96 -44t-127.5 -17q-148 0 -252.5 105t-104.5 253q0 147 113.5 252.5t263.5 105.5q77 0 133.5 -19.5t124.5 -64.5l-30 -114h-7q-59 93 -144.5 143.5t-178.5 30.5q-62 -13 -107.5 -55.5t-66 -100
t-24 -126t18.5 -134.5q41 -134 136 -201.5t227 -50.5q82 11 138 72v133q0 46 -20 73t-57 29v8zM399 906l128 -128l-5 -5l-123 79l-122 -79l-6 5z" />
    <glyph glyph-name="gcircumflex" unicode="&#x11d;" horiz-adv-x="641" 
d="M558 27q83 1 83 -77q0 -56 -58 -93t-127 -37q-79 0 -131 72q-88 -53 -143 -57q-42 -3 -67.5 12.5t-26.5 48.5q-1 42 50.5 68.5t113.5 32.5q-92 11 -152 69t-60 150q0 118 82.5 191.5t189.5 73.5q59 0 112 -22l171 50l6 -50l-161 -7q56 -27 89 -77t33 -116
q0 -115 -83 -190t-189 -75q-6 0 -10 1q-58 -3 -99.5 -24t-38.5 -62q3 -57 56 -57q8 0 17 1t18.5 4t17.5 5.5t19.5 8.5t18.5 9.5t20.5 11.5t19.5 11.5t21.5 13t20.5 12.5q20 12 52.5 33t51 32.5t42 21.5t41.5 11zM125 184q28 -95 94.5 -146t148.5 -26q55 16 86.5 60t35.5 100
t-12 119q-27 94 -94 145t-149 27q-55 -16 -87 -60t-35.5 -100t12.5 -119zM580 -67q2 38 -10 58t-40 16q-9 -1 -21 -5.5t-31.5 -16t-29 -17t-37.5 -23t-34 -21.5l-45 -27q13 -19 24.5 -31.5t38.5 -25.5t61 -13q57 -1 89 27.5t35 78.5zM320 676l128 -128l-5 -5l-123 79
l-122 -79l-6 5z" />
    <glyph glyph-name="Gbreve" unicode="&#x11e;" horiz-adv-x="763" 
d="M550 333h178v-8q-22 -13 -22 -59v-108q-12 -25 -35 -50.5t-60.5 -52.5t-96 -44t-127.5 -17q-148 0 -252.5 105t-104.5 253q0 147 113.5 252.5t263.5 105.5q77 0 133.5 -19.5t124.5 -64.5l-30 -114h-7q-59 93 -144.5 143.5t-178.5 30.5q-62 -13 -107.5 -55.5t-66 -100
t-24 -126t18.5 -134.5q41 -134 136 -201.5t227 -50.5q82 11 138 72v133q0 46 -20 73t-57 29v8zM508 905h7q-5 -58 -35.5 -90.5t-81.5 -32.5t-81.5 33t-34.5 90h7q21 -78 109 -78t110 78z" />
    <glyph glyph-name="gbreve" unicode="&#x11f;" horiz-adv-x="641" 
d="M558 27q83 1 83 -77q0 -56 -58 -93t-127 -37q-79 0 -131 72q-88 -53 -143 -57q-42 -3 -67.5 12.5t-26.5 48.5q-1 42 50.5 68.5t113.5 32.5q-92 11 -152 69t-60 150q0 118 82.5 191.5t189.5 73.5q59 0 112 -22l171 50l6 -50l-161 -7q56 -27 89 -77t33 -116
q0 -115 -83 -190t-189 -75q-6 0 -10 1q-58 -3 -99.5 -24t-38.5 -62q3 -57 56 -57q8 0 17 1t18.5 4t17.5 5.5t19.5 8.5t18.5 9.5t20.5 11.5t19.5 11.5t21.5 13t20.5 12.5q20 12 52.5 33t51 32.5t42 21.5t41.5 11zM125 184q28 -95 94.5 -146t148.5 -26q55 16 86.5 60t35.5 100
t-12 119q-27 94 -94 145t-149 27q-55 -16 -87 -60t-35.5 -100t12.5 -119zM580 -67q2 38 -10 58t-40 16q-9 -1 -21 -5.5t-31.5 -16t-29 -17t-37.5 -23t-34 -21.5l-45 -27q13 -19 24.5 -31.5t38.5 -25.5t61 -13q57 -1 89 27.5t35 78.5zM420 675h7q-5 -58 -35.5 -90.5
t-81.5 -32.5t-81.5 33t-34.5 90h7q21 -78 109 -78t110 78z" />
    <glyph glyph-name="Gdotaccent" unicode="&#x120;" horiz-adv-x="763" 
d="M550 333h178v-8q-22 -13 -22 -59v-108q-12 -25 -35 -50.5t-60.5 -52.5t-96 -44t-127.5 -17q-148 0 -252.5 105t-104.5 253q0 147 113.5 252.5t263.5 105.5q77 0 133.5 -19.5t124.5 -64.5l-30 -114h-7q-59 93 -144.5 143.5t-178.5 30.5q-62 -13 -107.5 -55.5t-66 -100
t-24 -126t18.5 -134.5q41 -134 136 -201.5t227 -50.5q82 11 138 72v133q0 46 -20 73t-57 29v8zM398 862q19 0 31.5 -13t12.5 -31t-12.5 -31t-31.5 -13q-18 0 -30.5 13t-12.5 31t12.5 31t30.5 13z" />
    <glyph glyph-name="gdotaccent" unicode="&#x121;" horiz-adv-x="641" 
d="M558 27q83 1 83 -77q0 -56 -58 -93t-127 -37q-79 0 -131 72q-88 -53 -143 -57q-42 -3 -67.5 12.5t-26.5 48.5q-1 42 50.5 68.5t113.5 32.5q-92 11 -152 69t-60 150q0 118 82.5 191.5t189.5 73.5q59 0 112 -22l171 50l6 -50l-161 -7q56 -27 89 -77t33 -116
q0 -115 -83 -190t-189 -75q-6 0 -10 1q-58 -3 -99.5 -24t-38.5 -62q3 -57 56 -57q8 0 17 1t18.5 4t17.5 5.5t19.5 8.5t18.5 9.5t20.5 11.5t19.5 11.5t21.5 13t20.5 12.5q20 12 52.5 33t51 32.5t42 21.5t41.5 11zM125 184q28 -95 94.5 -146t148.5 -26q55 16 86.5 60t35.5 100
t-12 119q-27 94 -94 145t-149 27q-55 -16 -87 -60t-35.5 -100t12.5 -119zM580 -67q2 38 -10 58t-40 16q-9 -1 -21 -5.5t-31.5 -16t-29 -17t-37.5 -23t-34 -21.5l-45 -27q13 -19 24.5 -31.5t38.5 -25.5t61 -13q57 -1 89 27.5t35 78.5zM320 632q19 0 31.5 -13t12.5 -31
t-12.5 -31t-31.5 -13q-18 0 -30.5 13t-12.5 31t12.5 31t30.5 13z" />
    <glyph glyph-name="Gcommaaccent" unicode="&#x122;" horiz-adv-x="763" 
d="M550 333h178v-8q-22 -13 -22 -59v-108q-12 -25 -35 -50.5t-60.5 -52.5t-96 -44t-127.5 -17q-148 0 -252.5 105t-104.5 253q0 147 113.5 252.5t263.5 105.5q77 0 133.5 -19.5t124.5 -64.5l-30 -114h-7q-59 93 -144.5 143.5t-178.5 30.5q-62 -13 -107.5 -55.5t-66 -100
t-24 -126t18.5 -134.5q41 -134 136 -201.5t227 -50.5q82 11 138 72v133q0 46 -20 73t-57 29v8zM399 -83q18 0 30.5 -12.5t12.5 -30.5q0 -59 -71 -117l-4 4q50 43 61 82q-14 -12 -29 -12q-18 0 -30.5 13t-12.5 30q0 18 12.5 30.5t30.5 12.5z" />
    <glyph glyph-name="gcommaaccent" unicode="&#x123;" horiz-adv-x="641" 
d="M558 27q83 1 83 -77q0 -56 -58 -93t-127 -37q-79 0 -131 72q-88 -53 -143 -57q-42 -3 -67.5 12.5t-26.5 48.5q-1 42 50.5 68.5t113.5 32.5q-92 11 -152 69t-60 150q0 118 82.5 191.5t189.5 73.5q59 0 112 -22l171 50l6 -50l-161 -7q56 -27 89 -77t33 -116
q0 -115 -83 -190t-189 -75q-6 0 -10 1q-58 -3 -99.5 -24t-38.5 -62q3 -57 56 -57q8 0 17 1t18.5 4t17.5 5.5t19.5 8.5t18.5 9.5t20.5 11.5t19.5 11.5t21.5 13t20.5 12.5q20 12 52.5 33t51 32.5t42 21.5t41.5 11zM125 184q28 -95 94.5 -146t148.5 -26q55 16 86.5 60t35.5 100
t-12 119q-27 94 -94 145t-149 27q-55 -16 -87 -60t-35.5 -100t12.5 -119zM580 -67q2 38 -10 58t-40 16q-9 -1 -21 -5.5t-31.5 -16t-29 -17t-37.5 -23t-34 -21.5l-45 -27q13 -19 24.5 -31.5t38.5 -25.5t61 -13q57 -1 89 27.5t35 78.5zM310 665q22 0 38 -15.5t16 -38.5
t-16 -38.5t-38 -15.5t-38 15.5t-16 38.5q0 76 90 148l5 -5q-63 -53 -77 -103q14 14 36 14z" />
    <glyph glyph-name="Hcircumflex" unicode="&#x124;" horiz-adv-x="631" 
d="M591 692q-22 -13 -22 -59v-567q0 -46 22 -59v-7h-124v7q23 13 23 59v345h-348v-345q0 -46 22 -59v-7h-124v7q23 13 23 59v567q0 46 -23 59v8h124v-8q-22 -13 -22 -59v-215h348v215q0 46 -23 59v8h124v-8zM315 906l128 -128l-5 -5l-123 79l-122 -79l-6 5z" />
    <glyph glyph-name="hcircumflex" unicode="&#x125;" horiz-adv-x="554" 
d="M506 66q5 -45 28 -59v-7h-123v7q21 13 17 59q-2 19 -11.5 128.5t-11.5 125.5q-7 66 -39.5 110.5t-91.5 32.5q-39 -8 -67.5 -45.5t-41 -90t-18 -96.5t-5.5 -83v-82q0 -46 22 -59v-7h-124v7q23 13 23 59v578q0 27 -4 36.5t-19 11.5v8l94 21h8v-488q27 248 177 248
q64 0 109 -45t54 -131q7 -57 15 -145t9 -94zM177 913l128 -128l-5 -5l-123 79l-122 -79l-6 5z" />
    <glyph glyph-name="Hbar" unicode="&#x126;" horiz-adv-x="631" 
d="M645 532h-76v-466q0 -46 22 -59v-7h-123v7q22 13 22 59v345h-348v-345q0 -46 22 -59v-7h-123v7q22 13 22 59v466h-76v7h76v95q0 45 -22 58v8h123v-8q-22 -13 -22 -58v-95h348v95q0 45 -22 58v8h123v-8q-22 -13 -22 -58v-95h76v-7zM490 418v114h-348v-114h348z" />
    <glyph glyph-name="hbar" unicode="&#x127;" horiz-adv-x="554" 
d="M506 66q5 -45 28 -59v-7h-124v7q21 12 17 59q-1 7 -6 65t-10 112t-7 77q-6 66 -38.5 110.5t-91.5 32.5q-39 -8 -67.5 -45.5t-41.5 -90t-18.5 -96.5t-5.5 -83v-82q0 -46 23 -59v-7h-124v7q22 13 22 59v491h-91v7h91v80q0 28 -4 37t-18 11v8l94 21h7v-157h215v-7h-215v-324
q29 248 177 248q65 0 110 -45t54 -131q5 -51 13.5 -136t10.5 -103z" />
    <glyph glyph-name="Itilde" unicode="&#x128;" horiz-adv-x="204" 
d="M164 692q-23 -13 -23 -59v-567q0 -46 23 -59v-7h-124v7q22 13 22 59v567q0 46 -22 59v8h124v-8zM247 866l8 -2q-29 -89 -86 -89q-33 0 -89.5 20.5t-74.5 20.5q-20 0 -29.5 -9.5t-18.5 -37.5l-8 3q14 43 34.5 63.5t54.5 20.5q31 0 82.5 -20t79.5 -19q17 0 27.5 10.5
t19.5 38.5z" />
    <glyph glyph-name="itilde" unicode="&#x129;" horiz-adv-x="194" 
d="M141 66q0 -46 23 -59v-7h-124v7q22 13 22 59v338q0 27 -4 36.5t-18 11.5v7l94 22h7v-415zM242 636l8 -2q-29 -89 -86 -89q-33 0 -89.5 20.5t-74.5 20.5q-20 0 -29.5 -9.5t-18.5 -37.5l-8 3q14 43 34.5 63.5t54.5 20.5q31 0 82.5 -20t79.5 -19q17 0 27.5 10.5t19.5 38.5z
" />
    <glyph glyph-name="Imacron" unicode="&#x12a;" horiz-adv-x="204" 
d="M164 692q-23 -13 -23 -59v-567q0 -46 23 -59v-7h-124v7q22 13 22 59v567q0 46 -22 59v8h124v-8zM-53 822h310v-8h-310v8z" />
    <glyph glyph-name="imacron" unicode="&#x12b;" horiz-adv-x="194" 
d="M141 66q0 -46 23 -59v-7h-124v7q22 13 22 59v338q0 27 -4 36.5t-18 11.5v7l94 22h7v-415zM-58 592h310v-8h-310v8z" />
    <glyph glyph-name="Ibreve" unicode="&#x12c;" horiz-adv-x="204" 
d="M163 692q-23 -13 -23 -59v-567q0 -46 23 -59v-7h-124v7q22 13 22 59v567q0 46 -22 59v8h124v-8zM211 905h7q-5 -58 -35.5 -90.5t-81.5 -32.5t-81.5 33t-34.5 90h7q21 -78 109 -78t110 78z" />
    <glyph glyph-name="ibreve" unicode="&#x12d;" horiz-adv-x="194" 
d="M141 66q0 -46 23 -59v-7h-124v7q22 13 22 59v338q0 27 -4 36.5t-18 11.5v7l94 22h7v-415zM207 675h7q-5 -58 -35.5 -90.5t-81.5 -32.5t-81.5 33t-34.5 90h7q21 -78 109 -78t110 78z" />
    <glyph glyph-name="Iogonek" unicode="&#x12e;" horiz-adv-x="204" 
d="M180 -144l4 -6q-23 -25 -41 -34q-34 -17 -67 -10.5t-48 29.5q-24 36 0.5 87t75.5 78h-64v7q22 13 22 59v568q0 45 -22 58v8h123v-8q-22 -13 -22 -58v-568q0 -46 22 -59v-7h-46q-46 -23 -62.5 -70t6.5 -80q29 -40 80 -23q18 6 39 29z" />
    <glyph glyph-name="iogonek" unicode="&#x12f;" horiz-adv-x="194" 
d="M180 -144l5 -6q-23 -25 -41 -34q-34 -17 -67 -10.5t-48 29.5q-23 36 1 87t74 78h-65v7q23 13 23 59v338q0 27 -4 36.5t-19 11.5v8l94 21h8v-415q0 -46 22 -59v-7h-46q-45 -23 -62 -70t7 -80q27 -40 80 -23q20 7 38 29zM98 562q-20 0 -33.5 14t-13.5 33t13.5 33t33.5 14
t33.5 -14t13.5 -33t-13.5 -33t-33.5 -14z" />
    <glyph glyph-name="Idotaccent" unicode="&#x130;" horiz-adv-x="204" 
d="M164 692q-23 -13 -23 -59v-567q0 -46 23 -59v-7h-124v7q22 13 22 59v567q0 46 -22 59v8h124v-8zM101 862q19 0 31.5 -13t12.5 -31t-12.5 -31t-31.5 -13q-18 0 -30.5 13t-12.5 31t12.5 31t30.5 13z" />
    <glyph glyph-name="dotlessi" unicode="&#x131;" horiz-adv-x="194" 
d="M141 66q0 -46 23 -59v-7h-124v7q22 13 22 59v338q0 27 -4 36.5t-18 11.5v7l94 22h7v-415z" />
    <glyph glyph-name="IJ" unicode="&#x132;" horiz-adv-x="399" 
d="M164 692q-23 -13 -23 -59v-567q0 -46 23 -59v-7h-124v7q22 13 22 59v567q0 46 -22 59v8h124v-8zM203 700h156v-8q-23 -13 -23 -59v-471q0 -62 -19 -108.5t-54.5 -76.5t-68 -47t-77.5 -32l-3 9q49 22 77.5 47.5t47 76.5t18.5 131v461q0 65 -54 69v8z" />
    <glyph glyph-name="ij" unicode="&#x133;" horiz-adv-x="388" 
d="M141 66q0 -46 23 -59v-7h-124v7q22 13 22 59v338q0 27 -4 36.5t-18 11.5v7l94 22h7v-415zM99 562q-19 0 -33 14t-14 33t14 33t33 14t33 -14t14 -33t-14 -33t-33 -14zM327 481h7v-484q0 -62 -15 -108t-45 -75.5t-57.5 -46t-69.5 -34.5l-3 10q47 22 69 46t32 68.5t10 128.5
v418q0 27 -4 36.5t-18 11.5v7zM291 562q-19 0 -32.5 14t-13.5 33t13.5 33t32.5 14t33 -14t14 -33t-14 -33t-33 -14z" />
    <glyph glyph-name="Jcircumflex" unicode="&#x134;" horiz-adv-x="245" 
d="M49 700h156v-8q-23 -13 -23 -59v-471q0 -62 -19 -108.5t-54.5 -76.5t-68 -47t-77.5 -32l-3 9q49 22 77.5 47.5t47 76.5t18.5 131v461q0 65 -54 69v8zM133 906l128 -128l-5 -5l-123 79l-122 -79l-6 5z" />
    <glyph glyph-name="jcircumflex" unicode="&#x135;" horiz-adv-x="204" 
d="M143 481h7v-484q0 -62 -15 -108t-45 -75.5t-57.5 -46t-69.5 -34.5l-3 10q47 22 69 46t32 68.5t10 128.5v418q0 27 -4 36.5t-18 11.5v7zM107 676l128 -128l-5 -5l-123 79l-122 -79l-6 5z" />
    <glyph glyph-name="Kcommaaccent" unicode="&#x136;" horiz-adv-x="616" 
d="M606 7v-7h-159v7q9 10 11 21t-4.5 29t-15 33.5t-26.5 46.5l-156 275l-114 -117v-229q0 -46 22 -59v-7h-124v7q23 13 23 59v567q0 46 -23 59v8h124v-8q-22 -13 -22 -59v-328l209 216q70 73 87 110.5t-11 60.5v8h131v-8q-60 -31 -194 -168l-55 -58l169 -296
q62 -109 128 -163zM303 -83q18 0 30.5 -12.5t12.5 -30.5q0 -59 -71 -117l-4 4q50 43 61 82q-14 -12 -29 -12q-18 0 -30.5 13t-12.5 30q0 18 12.5 30.5t30.5 12.5z" />
    <glyph glyph-name="kcommaaccent" unicode="&#x137;" horiz-adv-x="515" 
d="M364 183q58 -94 84 -127.5t57 -48.5v-7h-152v7q11 9 11.5 22t-6 28.5t-23.5 43.5l-113 184l-81 -71v-143q0 -51 23 -64v-7h-124v7q22 13 22 64v579q0 26 -4 33t-18 9v8l94 21h7v-498l106 93q78 70 97 103.5t-10 53.5v8h132v-8q-38 -15 -77 -45t-117 -98zM252 -83
q18 0 30.5 -12.5t12.5 -30.5q0 -59 -71 -117l-4 4q50 43 61 82q-14 -12 -29 -12q-18 0 -30.5 13t-12.5 30q0 18 12.5 30.5t30.5 12.5z" />
    <glyph glyph-name="kgreenlandic" unicode="&#x138;" horiz-adv-x="515" 
d="M364 183q58 -94 84 -127.5t57 -48.5v-7h-152v7q11 9 11.5 22t-6 28.5t-23.5 43.5l-113 184l-81 -71v-143q0 -51 23 -64v-7h-124v7q22 13 22 64v339q0 26 -4 33t-18 9v8l94 21h7v-258l106 93q78 70 97 103.5t-10 53.5v8h132v-8q-38 -15 -77 -45t-117 -98z" />
    <glyph glyph-name="Lacute" unicode="&#x139;" horiz-adv-x="499" 
d="M473 125l6 -4l-22 -121h-417v7q23 13 23 59v567q0 46 -23 59v8h124v-8q-22 -13 -22 -59v-626h91q78 0 139.5 33.5t100.5 84.5zM239 923q19 -26 -14 -45q-92 -54 -149 -75l-6 9q63 59 122 112q16 12 27.5 11t19.5 -12z" />
    <glyph glyph-name="lacute" unicode="&#x13a;" horiz-adv-x="193" 
d="M141 66q0 -46 22 -59v-7h-123v7q22 13 22 59v578q0 27 -4 36.5t-18 11.5v8l94 21h7v-655zM181 870q19 -26 -14 -45q-92 -54 -149 -75l-6 9q63 59 122 112q16 12 27.5 11t19.5 -12z" />
    <glyph glyph-name="Lcommaaccent" unicode="&#x13b;" horiz-adv-x="499" 
d="M473 125l6 -4l-22 -121h-417v7q23 13 23 59v567q0 46 -23 59v8h124v-8q-22 -13 -22 -59v-626h91q78 0 139.5 33.5t100.5 84.5zM249 -83q18 0 30.5 -12.5t12.5 -30.5q0 -59 -71 -117l-4 4q50 43 61 82q-14 -12 -29 -12q-18 0 -30.5 13t-12.5 30q0 18 12.5 30.5t30.5 12.5z
" />
    <glyph glyph-name="lcommaaccent" unicode="&#x13c;" horiz-adv-x="193" 
d="M141 66q0 -46 22 -59v-7h-123v7q22 13 22 59v578q0 27 -4 36.5t-18 11.5v8l94 21h7v-655zM101 -83q18 0 30.5 -12.5t12.5 -30.5q0 -59 -71 -117l-4 4q50 43 61 82q-14 -12 -29 -12q-18 0 -30.5 13t-12.5 30q0 18 12.5 30.5t30.5 12.5z" />
    <glyph glyph-name="Lcaron" unicode="&#x13d;" horiz-adv-x="499" 
d="M473 125l6 -4l-22 -121h-417v7q23 13 23 59v567q0 46 -23 59v8h124v-8q-22 -13 -22 -59v-626h91q78 0 139.5 33.5t100.5 84.5zM311 710q22 0 38 -16.5t16 -38.5q0 -75 -90 -147l-5 5q62 54 77 103q-17 -15 -36 -15q-22 0 -38.5 16t-16.5 38q0 23 16 39t39 16z" />
    <glyph glyph-name="lcaron" unicode="&#x13e;" horiz-adv-x="273" 
d="M141 66q0 -46 22 -59v-7h-123v7q22 13 22 59v578q0 27 -4 36.5t-18 11.5v8l94 21h7v-655zM269 721q22 0 38 -16.5t16 -38.5q0 -75 -90 -147l-5 5q62 54 77 103q-17 -15 -36 -15q-22 0 -38.5 16t-16.5 38t16 38.5t39 16.5z" />
    <glyph glyph-name="Ldot" unicode="&#x13f;" horiz-adv-x="499" 
d="M314 338q19 0 31.5 -13t12.5 -31t-12.5 -31t-31.5 -13q-18 0 -30.5 13t-12.5 31t12.5 31t30.5 13zM473 125l6 -4l-22 -121h-417v7q23 13 23 59v567q0 46 -23 59v8h124v-8q-22 -13 -22 -59v-626h91q78 0 139.5 33.5t100.5 84.5z" />
    <glyph glyph-name="ldot" unicode="&#x140;" horiz-adv-x="309" 
d="M255 338q19 0 31.5 -13t12.5 -31t-12.5 -31t-31.5 -13q-18 0 -30.5 13t-12.5 31t12.5 31t30.5 13zM141 66q0 -46 22 -59v-7h-123v7q22 13 22 59v578q0 27 -4 36.5t-18 11.5v8l94 21h7v-655z" />
    <glyph glyph-name="Lslash" unicode="&#x141;" horiz-adv-x="565" 
d="M539 125l6 -4l-22 -121h-417v7q23 13 23 59v126l-89 -37v8l89 37v434q0 45 -23 58v8h124v-8q-22 -13 -22 -58v-401l189 79v-8l-189 -79v-218h91q77 0 139 33.5t101 84.5z" />
    <glyph glyph-name="lslash" unicode="&#x142;" horiz-adv-x="257" 
d="M267 382l-104 -51v-265q0 -46 22 -59v-7h-123v7q22 13 22 59v226l-104 -51v10l104 51v342q0 28 -4 37t-18 11v8l94 21h7v-381l104 52v-10z" />
    <glyph glyph-name="Nacute" unicode="&#x143;" horiz-adv-x="705" 
d="M531 700h134v-8q-25 -13 -44 -46.5t-19 -65.5v-580h-15l-476 609v-489q0 -32 19.5 -66t44.5 -47v-7h-135v7q25 13 44.5 47t19.5 66v498l-64 82h101l453 -574v454q0 32 -19 65.5t-44 46.5v8zM452 923q19 -26 -14 -45q-92 -54 -149 -75l-6 9q63 59 122 112q16 12 27.5 11
t19.5 -12z" />
    <glyph glyph-name="nacute" unicode="&#x144;" horiz-adv-x="554" 
d="M506 66q5 -45 28 -59v-7h-124v7q21 12 17 59q-1 8 -6 65t-10 111.5t-7 77.5q-6 66 -38.5 110.5t-91.5 32.5q-39 -8 -67.5 -45.5t-41.5 -90t-18.5 -96.5t-5.5 -83v-82q0 -46 23 -59v-7h-124v7q22 13 22 59v338q0 27 -4 36.5t-18 11.5v7l94 22h7v-248q6 49 15.5 87
t28.5 77.5t53 61.5t80 22q65 0 110 -45t54 -131q5 -51 13.5 -136t10.5 -103zM386 693q19 -26 -14 -45q-92 -54 -149 -75l-6 9q63 59 122 112q16 12 27.5 11t19.5 -12z" />
    <glyph glyph-name="Ncommaaccent" unicode="&#x145;" horiz-adv-x="705" 
d="M531 700h134v-8q-25 -13 -44 -46.5t-19 -65.5v-580h-15l-476 609v-489q0 -32 19.5 -66t44.5 -47v-7h-135v7q25 13 44.5 47t19.5 66v498l-64 82h101l453 -574v454q0 32 -19 65.5t-44 46.5v8zM352 -83q18 0 30.5 -12.5t12.5 -30.5q0 -59 -71 -117l-4 4q50 43 61 82
q-14 -12 -29 -12q-18 0 -30.5 13t-12.5 30q0 18 12.5 30.5t30.5 12.5z" />
    <glyph glyph-name="ncommaaccent" unicode="&#x146;" horiz-adv-x="554" 
d="M506 66q5 -45 28 -59v-7h-124v7q21 12 17 59q-1 8 -6 65t-10 111.5t-7 77.5q-6 66 -38.5 110.5t-91.5 32.5q-39 -8 -67.5 -45.5t-41.5 -90t-18.5 -96.5t-5.5 -83v-82q0 -46 23 -59v-7h-124v7q22 13 22 59v338q0 27 -4 36.5t-18 11.5v7l94 22h7v-248q6 49 15.5 87
t28.5 77.5t53 61.5t80 22q65 0 110 -45t54 -131q5 -51 13.5 -136t10.5 -103zM297 -83q18 0 30.5 -12.5t12.5 -30.5q0 -59 -71 -117l-4 4q50 43 61 82q-14 -12 -29 -12q-18 0 -30.5 13t-12.5 30q0 18 12.5 30.5t30.5 12.5z" />
    <glyph glyph-name="Ncaron" unicode="&#x147;" horiz-adv-x="705" 
d="M531 700h134v-8q-25 -13 -44 -46.5t-19 -65.5v-580h-15l-476 609v-489q0 -32 19.5 -66t44.5 -47v-7h-135v7q25 13 44.5 47t19.5 66v498l-64 82h101l453 -574v454q0 32 -19 65.5t-44 46.5v8zM490 901l-128 -128l-128 128l5 5l123 -79l122 79z" />
    <glyph glyph-name="ncaron" unicode="&#x148;" horiz-adv-x="554" 
d="M506 66q5 -45 28 -59v-7h-124v7q21 12 17 59q-1 8 -6 65t-10 111.5t-7 77.5q-6 66 -38.5 110.5t-91.5 32.5q-39 -8 -67.5 -45.5t-41.5 -90t-18.5 -96.5t-5.5 -83v-82q0 -46 23 -59v-7h-124v7q22 13 22 59v338q0 27 -4 36.5t-18 11.5v7l94 22h7v-248q6 49 15.5 87
t28.5 77.5t53 61.5t80 22q65 0 110 -45t54 -131q5 -51 13.5 -136t10.5 -103zM425 671l-128 -128l-128 128l5 5l123 -79l122 79z" />
    <glyph glyph-name="napostrophe" unicode="&#x149;" horiz-adv-x="682" 
d="M634 66q5 -45 28 -59v-7h-124v7q21 12 17 59q-1 8 -6 65t-10 111.5t-7 77.5q-6 66 -38.5 110.5t-91.5 32.5q-39 -8 -67.5 -45.5t-41.5 -90t-18.5 -96.5t-5.5 -83v-82q0 -46 23 -59v-7h-124v7q22 13 22 59v338q0 27 -4 36.5t-18 11.5v7l94 22h7v-248q6 49 15.5 87
t28.5 77.5t53 61.5t80 22q65 0 110 -45t54 -131q5 -51 13.5 -136t10.5 -103zM73 481q18 0 30.5 -12.5t12.5 -30.5q0 -59 -71 -117l-4 4q50 43 61 82q-14 -12 -29 -12q-18 0 -30.5 13t-12.5 30q0 18 12.5 30.5t30.5 12.5z" />
    <glyph glyph-name="Eng" unicode="&#x14a;" horiz-adv-x="704" 
d="M530 700h134v-8q-25 -13 -44 -46.5t-19 -65.5v-580q0 -165 -142 -165q-43 0 -82.5 19t-56.5 52l77 72l6 -6q-8 -44 15 -85t63 -42q49 -1 80.5 40.5t31.5 114.5h-7l-475 609v-489q0 -32 19 -66t44 -47v-7h-134v7q25 13 44 47t19 66v498l-63 82h100l453 -574v454
q0 32 -19 65.5t-44 46.5v8z" />
    <glyph glyph-name="eng" unicode="&#x14b;" horiz-adv-x="538" 
d="M515 -3q11 -96 -31.5 -149t-115.5 -51q-51 1 -85 28.5t-65 76.5l41 114h7q30 -209 106 -209q36 0 53 31.5t15 71t-3 76.5q-7 76 -32 334q-7 66 -39.5 110.5t-91.5 32.5q-39 -8 -67.5 -45.5t-41 -90t-18 -96.5t-5.5 -83v-82q0 -46 22 -59v-7h-124v7q23 13 23 59v338
q0 27 -4 36.5t-19 11.5v7l94 22h8v-248q27 248 177 248q64 0 109 -45t54 -131q5 -46 16 -152t17 -156z" />
    <glyph glyph-name="Omacron" unicode="&#x14c;" horiz-adv-x="786" 
d="M393 710q149 0 256 -105t107 -253q0 -147 -107 -252.5t-256 -105.5t-256 105.5t-107 252.5q0 148 107 253t256 105zM495 18q61 19 103.5 61.5t62 99t19.5 122.5t-20 133q-42 138 -145 213.5t-224 38.5q-61 -19 -103.5 -61.5t-62 -99t-19.5 -122.5t20 -132
q42 -139 145 -214.5t224 -38.5zM238 822h310v-8h-310v8z" />
    <glyph glyph-name="omacron" unicode="&#x14d;" horiz-adv-x="591" 
d="M311 481q104 0 177 -61t73 -161q0 -115 -82.5 -190t-188.5 -75q-105 0 -177.5 60t-72.5 162q0 118 82 191.5t189 73.5zM367 12q55 16 87 60t35.5 100t-12.5 119q-27 94 -94 145t-149 27q-55 -16 -87 -60t-35.5 -100t12.5 -119q28 -95 94.5 -146t148.5 -26zM155 592h310
v-8h-310v8z" />
    <glyph glyph-name="Obreve" unicode="&#x14e;" horiz-adv-x="786" 
d="M393 710q149 0 256 -105t107 -253q0 -147 -107 -252.5t-256 -105.5t-256 105.5t-107 252.5q0 148 107 253t256 105zM495 18q61 19 103.5 61.5t62 99t19.5 122.5t-20 133q-42 138 -145 213.5t-224 38.5q-61 -19 -103.5 -61.5t-62 -99t-19.5 -122.5t20 -132
q42 -139 145 -214.5t224 -38.5zM502 905h7q-5 -58 -35.5 -90.5t-81.5 -32.5t-81.5 33t-34.5 90h7q21 -78 109 -78t110 78z" />
    <glyph glyph-name="obreve" unicode="&#x14f;" horiz-adv-x="591" 
d="M311 481q104 0 177 -61t73 -161q0 -115 -82.5 -190t-188.5 -75q-105 0 -177.5 60t-72.5 162q0 118 82 191.5t189 73.5zM367 12q55 16 87 60t35.5 100t-12.5 119q-27 94 -94 145t-149 27q-55 -16 -87 -60t-35.5 -100t12.5 -119q28 -95 94.5 -146t148.5 -26zM410 675h7
q-5 -58 -35.5 -90.5t-81.5 -32.5t-81.5 33t-34.5 90h7q21 -78 109 -78t110 78z" />
    <glyph glyph-name="Ohungarumlaut" unicode="&#x150;" horiz-adv-x="786" 
d="M393 710q149 0 256 -105t107 -253q0 -147 -107 -252.5t-256 -105.5t-256 105.5t-107 252.5q0 148 107 253t256 105zM495 18q61 19 103.5 61.5t62 99t19.5 122.5t-20 133q-42 138 -145 213.5t-224 38.5q-61 -19 -103.5 -61.5t-62 -99t-19.5 -122.5t20 -132
q42 -139 145 -214.5t224 -38.5zM373 930q22 32 47 11q24 -22 -4 -47q-78 -75 -127 -108l-8 7q20 33 92 137zM568 941q10 -8 10.5 -20.5t-13.5 -26.5q-72 -69 -127 -108l-8 7q20 33 92 137q23 32 46 11z" />
    <glyph glyph-name="ohungarumlaut" unicode="&#x151;" horiz-adv-x="591" 
d="M311 481q104 0 177 -61t73 -161q0 -115 -82.5 -190t-188.5 -75q-105 0 -177.5 60t-72.5 162q0 118 82 191.5t189 73.5zM367 12q55 16 87 60t35.5 100t-12.5 119q-27 94 -94 145t-149 27q-55 -16 -87 -60t-35.5 -100t12.5 -119q28 -95 94.5 -146t148.5 -26zM290 700
q22 32 47 11q24 -22 -4 -47q-78 -75 -127 -108l-8 7q20 33 92 137zM485 711q10 -8 10.5 -20.5t-13.5 -26.5q-72 -69 -127 -108l-8 7q20 33 92 137q23 32 46 11z" />
    <glyph glyph-name="OE" unicode="&#x152;" horiz-adv-x="1117" 
d="M1081 125l6 -4l-22 -121h-406v7q22 13 22 59v70q-51 -66 -127 -104t-161 -38q-149 0 -256 105.5t-107 252.5q0 148 107 253t256 105q85 0 161 -38t127 -104v66q0 45 -22 58v8h374l21 -111l-5 -3q-43 48 -94 77t-125 29h-70v-295l252 22v-51l-252 22v-383h80
q78 0 140 33.5t101 84.5zM495 18q61 19 103.5 61.5t62 99t19.5 122.5t-20 133q-42 138 -145 213.5t-224 38.5q-61 -19 -103.5 -61.5t-62 -99t-19.5 -122.5t20 -132q42 -139 145 -214.5t224 -38.5z" />
    <glyph glyph-name="oe" unicode="&#x153;" horiz-adv-x="1008" 
d="M877 323q46 -12 76 -55.5t24 -108.5q-5 -63 -59 -113.5t-152 -50.5q-81 0 -147 30.5t-100 91.5q-38 -57 -100 -90t-129 -33q-105 0 -177.5 60.5t-72.5 161.5q0 118 82.5 191.5t189.5 73.5q71 0 130 -30t91 -83q37 53 98.5 81.5t122.5 31.5q75 4 140.5 -35.5t75.5 -122.5
h-72h-21zM708 469q-49 -9 -82 -46.5t-47 -91.5h318q-10 68 -64 110t-125 28zM367 12q55 16 87 60t36 100t-12 119q-28 95 -94.5 146t-148.5 26q-55 -16 -87 -60t-36 -100t12 -119q27 -94 94 -145t149 -27zM968 157q9 74 -31.5 120t-100.5 46h-259q-21 -85 6 -160
q54 -153 215 -147q65 3 114 43t56 98z" />
    <glyph glyph-name="Racute" unicode="&#x154;" horiz-adv-x="584" 
d="M444 179q65 -114 130 -172v-7h-154v7q10 10 12 20.5t-5.5 30t-14.5 33.5t-26 47l-107 187q-30 -2 -45 -2h-93v-257q0 -46 22 -59v-7h-123v7q22 13 22 59v567q0 46 -22 59v8h194q81 0 145.5 -19.5t107 -63t42.5 -106.5q0 -67 -48 -111.5t-127 -62.5zM234 331
q216 0 216 180q0 34 -7.5 62t-28.5 57t-67 45.5t-113 16.5h-93v-361h93zM386 923q19 -26 -14 -45q-92 -54 -149 -75l-6 9q63 59 122 112q16 12 27.5 11t19.5 -12z" />
    <glyph glyph-name="racute" unicode="&#x155;" horiz-adv-x="405" 
d="M286 481q39 0 65.5 -14t53.5 -45l-61 -86l-7 4q-2 49 -24.5 89t-59.5 34q-34 -5 -58 -48.5t-34.5 -106t-14.5 -111.5t-4 -92v-39q0 -46 22 -59v-7h-124v7q23 13 23 59v338q0 27 -4 36.5t-19 11.5v7l94 22h8v-268q22 268 144 268zM302 693q19 -26 -14 -45
q-92 -54 -149 -75l-6 9q63 59 122 112q16 12 27.5 11t19.5 -12z" />
    <glyph glyph-name="Rcommaaccent" unicode="&#x156;" horiz-adv-x="584" 
d="M444 179q65 -114 130 -172v-7h-154v7q10 10 12 20.5t-5.5 30t-14.5 33.5t-26 47l-107 187q-30 -2 -45 -2h-93v-257q0 -46 22 -59v-7h-123v7q22 13 22 59v567q0 46 -22 59v8h194q81 0 145.5 -19.5t107 -63t42.5 -106.5q0 -67 -48 -111.5t-127 -62.5zM234 331
q216 0 216 180q0 34 -7.5 62t-28.5 57t-67 45.5t-113 16.5h-93v-361h93zM297 -83q18 0 30.5 -12.5t12.5 -30.5q0 -59 -71 -117l-4 4q50 43 61 82q-14 -12 -29 -12q-18 0 -30.5 13t-12.5 30q0 18 12.5 30.5t30.5 12.5z" />
    <glyph glyph-name="rcommaaccent" unicode="&#x157;" horiz-adv-x="405" 
d="M286 481q39 0 65.5 -14t53.5 -45l-61 -86l-7 4q-2 49 -24.5 89t-59.5 34q-34 -5 -58 -48.5t-34.5 -106t-14.5 -111.5t-4 -92v-39q0 -46 22 -59v-7h-124v7q23 13 23 59v338q0 27 -4 36.5t-19 11.5v7l94 22h8v-268q22 268 144 268zM102 -83q18 0 30.5 -12.5t12.5 -30.5
q0 -59 -71 -117l-4 4q50 43 61 82q-14 -12 -29 -12q-18 0 -30.5 13t-12.5 30q0 18 12.5 30.5t30.5 12.5z" />
    <glyph glyph-name="Rcaron" unicode="&#x158;" horiz-adv-x="584" 
d="M444 179q65 -114 130 -172v-7h-154v7q10 10 12 20.5t-5.5 30t-14.5 33.5t-26 47l-107 187q-30 -2 -45 -2h-93v-257q0 -46 22 -59v-7h-123v7q22 13 22 59v567q0 46 -22 59v8h194q81 0 145.5 -19.5t107 -63t42.5 -106.5q0 -67 -48 -111.5t-127 -62.5zM234 331
q216 0 216 180q0 34 -7.5 62t-28.5 57t-67 45.5t-113 16.5h-93v-361h93zM395 901l-128 -128l-128 128l5 5l123 -79l122 79z" />
    <glyph glyph-name="rcaron" unicode="&#x159;" horiz-adv-x="405" 
d="M286 481q39 0 65.5 -14t53.5 -45l-61 -86l-7 4q-2 49 -24.5 89t-59.5 34q-34 -5 -58 -48.5t-34.5 -106t-14.5 -111.5t-4 -92v-39q0 -46 22 -59v-7h-124v7q23 13 23 59v338q0 27 -4 36.5t-19 11.5v7l94 22h8v-268q22 268 144 268zM350 671l-128 -128l-128 128l5 5l123 -79
l122 79z" />
    <glyph glyph-name="Sacute" unicode="&#x15a;" horiz-adv-x="580" 
d="M328 710q99 0 220 -94l-30 -104h-7q-79 185 -209 185q-71 0 -114 -34t-48 -82q-3 -36 12.5 -64t43.5 -45.5t65 -34t76.5 -29.5t77.5 -32.5t68 -41.5t48.5 -57t18.5 -80q0 -89 -71 -146t-178 -57q-83 0 -144 24.5t-127 74.5l30 114h7q42 -84 112.5 -138.5t162.5 -54.5
q63 0 110.5 35t53.5 83q5 43 -14 75.5t-54.5 53t-79.5 37.5t-89 36t-82.5 42.5t-61 62t-23.5 89.5q0 70 57.5 126t168.5 56zM399 923q19 -26 -14 -45q-92 -54 -149 -75l-6 9q63 59 122 112q16 12 27.5 11t19.5 -12z" />
    <glyph glyph-name="sacute" unicode="&#x15b;" horiz-adv-x="458" 
d="M243 481q37 0 82 -19t78 -45l-20 -92h-5q-23 64 -66 105.5t-86 41.5q-48 0 -77.5 -23t-33.5 -56q-4 -37 28 -62.5t79.5 -41t95 -33t80 -48.5t29.5 -76q-5 -60 -57 -99t-135 -39q-105 0 -195 67l21 100h5q29 -60 83 -106.5t115 -46.5q53 0 90 23.5t42 56.5q4 30 -18 51.5
t-58.5 32.5t-78.5 26t-78 31t-57.5 49t-15.5 79q15 124 153 124zM343 693q19 -26 -14 -45q-92 -54 -149 -75l-6 9q63 59 122 112q16 12 27.5 11t19.5 -12z" />
    <glyph glyph-name="Scircumflex" unicode="&#x15c;" horiz-adv-x="580" 
d="M328 710q99 0 220 -94l-30 -104h-7q-79 185 -209 185q-71 0 -114 -34t-48 -82q-3 -36 12.5 -64t43.5 -45.5t65 -34t76.5 -29.5t77.5 -32.5t68 -41.5t48.5 -57t18.5 -80q0 -89 -71 -146t-178 -57q-83 0 -144 24.5t-127 74.5l30 114h7q42 -84 112.5 -138.5t162.5 -54.5
q63 0 110.5 35t53.5 83q5 43 -14 75.5t-54.5 53t-79.5 37.5t-89 36t-82.5 42.5t-61 62t-23.5 89.5q0 70 57.5 126t168.5 56zM310 906l128 -128l-5 -5l-123 79l-122 -79l-6 5z" />
    <glyph glyph-name="scircumflex" unicode="&#x15d;" horiz-adv-x="458" 
d="M243 481q37 0 82 -19t78 -45l-20 -92h-5q-23 64 -66 105.5t-86 41.5q-48 0 -77.5 -23t-33.5 -56q-4 -37 28 -62.5t79.5 -41t95 -33t80 -48.5t29.5 -76q-5 -60 -57 -99t-135 -39q-105 0 -195 67l21 100h5q29 -60 83 -106.5t115 -46.5q53 0 90 23.5t42 56.5q4 30 -18 51.5
t-58.5 32.5t-78.5 26t-78 31t-57.5 49t-15.5 79q15 124 153 124zM244 676l128 -128l-5 -5l-123 79l-122 -79l-6 5z" />
    <glyph glyph-name="Scedilla" unicode="&#x15e;" horiz-adv-x="580" 
d="M550 197q0 -88 -70.5 -145t-176.5 -58l-22 -56q47 22 88 0t37 -68q-3 -28 -30.5 -48.5t-64.5 -20.5q-45 0 -79 32l4 6q33 -31 74 -31q51 0 59 60q6 43 -19.5 62t-75.5 0l-1 2l24 63q-82 0 -141.5 24t-125.5 74l30 115h7q42 -85 112.5 -139.5t163.5 -54.5q63 0 110 35
t53 83q5 43 -14 75.5t-54.5 53t-79.5 37.5t-89 36t-82.5 42.5t-61 62t-23.5 89.5q0 70 57.5 126t168.5 56q99 0 220 -94l-30 -104h-7q-79 185 -209 185q-71 0 -114 -34t-48 -82q-4 -40 16.5 -70.5t56.5 -49.5t80.5 -35.5t89.5 -35t82.5 -42t61 -62t23.5 -89.5z" />
    <glyph glyph-name="scedilla" unicode="&#x15f;" horiz-adv-x="458" 
d="M115 393q-4 -36 28 -61.5t79.5 -41.5t95 -33t80 -48.5t29.5 -76.5q-5 -60 -57 -99t-135 -39h-2q-2 1 -3 1l-22 -57q47 22 88.5 0t36.5 -68q-3 -28 -30 -48.5t-64 -20.5q-45 0 -79 32l4 6q33 -31 74 -31q51 0 59 60q6 43 -19.5 62t-75.5 0l-1 2l24 63q-101 3 -185 67
l21 99h5q29 -60 83 -106.5t115 -46.5q53 0 90 23.5t42 56.5q5 36 -26.5 59t-80 37t-96.5 31t-79 53t-24 90q15 123 153 123q37 0 82 -19t79 -45l-21 -92h-5q-23 64 -66 105.5t-86 41.5q-48 0 -77.5 -23t-33.5 -56z" />
    <glyph glyph-name="Scaron" unicode="&#x160;" horiz-adv-x="580" 
d="M328 710q99 0 220 -94l-30 -104h-7q-79 185 -209 185q-71 0 -114 -34t-48 -82q-3 -36 12.5 -64t43.5 -45.5t65 -34t76.5 -29.5t77.5 -32.5t68 -41.5t48.5 -57t18.5 -80q0 -89 -71 -146t-178 -57q-83 0 -144 24.5t-127 74.5l30 114h7q42 -84 112.5 -138.5t162.5 -54.5
q63 0 110.5 35t53.5 83q5 43 -14 75.5t-54.5 53t-79.5 37.5t-89 36t-82.5 42.5t-61 62t-23.5 89.5q0 70 57.5 126t168.5 56zM428 901l-128 -128l-128 128l5 5l123 -79l122 79z" />
    <glyph glyph-name="scaron" unicode="&#x161;" horiz-adv-x="458" 
d="M243 481q37 0 82 -19t78 -45l-20 -92h-5q-23 64 -66 105.5t-86 41.5q-48 0 -77.5 -23t-33.5 -56q-4 -37 28 -62.5t79.5 -41t95 -33t80 -48.5t29.5 -76q-5 -60 -57 -99t-135 -39q-105 0 -195 67l21 100h5q29 -60 83 -106.5t115 -46.5q53 0 90 23.5t42 56.5q4 30 -18 51.5
t-58.5 32.5t-78.5 26t-78 31t-57.5 49t-15.5 79q15 124 153 124zM372 671l-128 -128l-128 128l5 5l123 -79l122 79z" />
    <glyph glyph-name="Tcommaaccent" unicode="&#x162;" horiz-adv-x="612" 
d="M560 700l32 -122l-6 -3q-30 34 -53 55t-69 41.5t-97 20.5h-22v-626q0 -45 23 -59v-7h-124v7q23 14 23 59v626h-22q-51 0 -97 -20.5t-69 -41.5t-53 -55l-6 3l32 122h508zM306 -83q18 0 30.5 -12.5t12.5 -30.5q0 -59 -71 -117l-4 4q50 43 61 82q-14 -12 -29 -12
q-18 0 -30.5 13t-12.5 30q0 18 12.5 30.5t30.5 12.5z" />
    <glyph glyph-name="tcommaaccent" unicode="&#x163;" horiz-adv-x="379" 
d="M394 177l5 -2q-37 -181 -166 -181q-68 0 -106 44.5t-38 131.5v303h-59v8q92 0 92 137h79q0 -55 -43.5 -95t-92.5 -42h221v-8h-118v-318q0 -73 25 -112t84 -31q81 11 117 165zM244 -83q18 0 30.5 -12.5t12.5 -30.5q0 -59 -71 -117l-4 4q50 43 61 82q-14 -12 -29 -12
q-18 0 -30.5 13t-12.5 30q0 18 12.5 30.5t30.5 12.5z" />
    <glyph glyph-name="Tcaron" unicode="&#x164;" horiz-adv-x="612" 
d="M560 700l32 -122l-6 -3q-30 34 -53 55t-69 41.5t-97 20.5h-22v-626q0 -45 23 -59v-7h-124v7q23 14 23 59v626h-22q-51 0 -97 -20.5t-69 -41.5t-53 -55l-6 3l32 122h508zM434 901l-128 -128l-128 128l5 5l123 -79l122 79z" />
    <glyph glyph-name="tcaron" unicode="&#x165;" horiz-adv-x="379" 
d="M394 177l5 -2q-37 -181 -166 -181q-68 0 -106 44.5t-38 131.5v303h-59v8q92 0 92 137h79q0 -55 -43.5 -95t-92.5 -42h221v-8h-118v-318q0 -73 25 -112t84 -31q81 11 117 165zM289 721q22 0 38 -16.5t16 -38.5q0 -75 -90 -147l-5 5q62 54 77 103q-17 -15 -36 -15
q-22 0 -38.5 16t-16.5 38t16 38.5t39 16.5z" />
    <glyph glyph-name="Tbar" unicode="&#x166;" horiz-adv-x="612" 
d="M560 700l32 -122l-6 -3q-29 34 -53 55t-69 41.5t-97 20.5h-22v-282h153v-7h-153v-337q0 -45 23 -59v-7h-124v7q23 13 23 59v337h-153v7h153v282h-22q-52 0 -97 -20.5t-69 -41.5t-53 -55l-6 3l32 122h508z" />
    <glyph glyph-name="tbar" unicode="&#x167;" horiz-adv-x="379" 
d="M393 177l6 -2q-37 -181 -167 -181q-67 0 -105 44.5t-38 131.5v179h-59v7h59v117h-59v8q91 0 91 137h79q0 -55 -43 -95t-92 -42h220v-8h-117v-117h85v-7h-85v-193q0 -73 24.5 -112.5t84.5 -31.5q82 11 116 165z" />
    <glyph glyph-name="Utilde" unicode="&#x168;" horiz-adv-x="659" 
d="M495 700h124v-8q-42 -22 -42 -112v-345q0 -105 -67.5 -173t-172.5 -68q-119 0 -196.5 67.5t-77.5 197.5v374q0 46 -23 59v8h124v-8q-22 -13 -22 -59v-374q0 -125 61 -193.5t169 -59.5q89 7 143.5 74t54.5 155v334q0 45 -20 81.5t-55 41.5v8zM504 866l8 -2
q-29 -89 -86 -89q-33 0 -89.5 20.5t-74.5 20.5q-20 0 -29.5 -9.5t-18.5 -37.5l-8 3q14 43 34.5 63.5t54.5 20.5q31 0 82.5 -20t79.5 -19q17 0 27.5 10.5t19.5 38.5z" />
    <glyph glyph-name="utilde" unicode="&#x169;" horiz-adv-x="536" 
d="M506 7v-7h-102v243q-6 -49 -15.5 -87.5t-28.5 -78t-53 -61.5t-80 -22q-73 0 -119 45.5t-46 130.5v234q0 27 -4 36.5t-18 11.5v7l94 22h7v-326q0 -70 35 -112t96 -31q39 8 67.5 45.5t41 90t18 96.5t5.5 83v77q0 27 -4 36.5t-18 11.5v7l94 22h7v-415q0 -46 23 -59zM428 636
l8 -2q-29 -89 -86 -89q-33 0 -89.5 20.5t-74.5 20.5q-20 0 -29.5 -9.5t-18.5 -37.5l-8 3q14 43 34.5 63.5t54.5 20.5q31 0 82.5 -20t79.5 -19q17 0 27.5 10.5t19.5 38.5z" />
    <glyph glyph-name="Umacron" unicode="&#x16a;" horiz-adv-x="659" 
d="M495 700h124v-8q-42 -22 -42 -112v-345q0 -105 -67.5 -173t-172.5 -68q-119 0 -196.5 67.5t-77.5 197.5v374q0 46 -23 59v8h124v-8q-22 -13 -22 -59v-374q0 -125 61 -193.5t169 -59.5q89 7 143.5 74t54.5 155v334q0 45 -20 81.5t-55 41.5v8zM194 822h310v-8h-310v8z" />
    <glyph glyph-name="umacron" unicode="&#x16b;" horiz-adv-x="536" 
d="M506 7v-7h-102v243q-6 -49 -15.5 -87.5t-28.5 -78t-53 -61.5t-80 -22q-73 0 -119 45.5t-46 130.5v234q0 27 -4 36.5t-18 11.5v7l94 22h7v-326q0 -70 35 -112t96 -31q39 8 67.5 45.5t41 90t18 96.5t5.5 83v77q0 27 -4 36.5t-18 11.5v7l94 22h7v-415q0 -46 23 -59zM128 592
h310v-8h-310v8z" />
    <glyph glyph-name="Ubreve" unicode="&#x16c;" horiz-adv-x="659" 
d="M495 700h124v-8q-42 -22 -42 -112v-345q0 -105 -67.5 -173t-172.5 -68q-119 0 -196.5 67.5t-77.5 197.5v374q0 46 -23 59v8h124v-8q-22 -13 -22 -59v-374q0 -125 61 -193.5t169 -59.5q89 7 143.5 74t54.5 155v334q0 45 -20 81.5t-55 41.5v8zM439 905h7
q-5 -58 -35.5 -90.5t-81.5 -32.5t-81.5 33t-34.5 90h7q21 -78 109 -78t110 78z" />
    <glyph glyph-name="ubreve" unicode="&#x16d;" horiz-adv-x="536" 
d="M506 7v-7h-102v243q-6 -49 -15.5 -87.5t-28.5 -78t-53 -61.5t-80 -22q-73 0 -119 45.5t-46 130.5v234q0 27 -4 36.5t-18 11.5v7l94 22h7v-326q0 -70 35 -112t96 -31q39 8 67.5 45.5t41 90t18 96.5t5.5 83v77q0 27 -4 36.5t-18 11.5v7l94 22h7v-415q0 -46 23 -59zM392 675
h7q-5 -58 -35.5 -90.5t-81.5 -32.5t-81.5 33t-34.5 90h7q21 -78 109 -78t110 78z" />
    <glyph glyph-name="Uring" unicode="&#x16e;" horiz-adv-x="659" 
d="M495 700h124v-8q-42 -22 -42 -112v-345q0 -105 -67.5 -173t-172.5 -68q-119 0 -196.5 67.5t-77.5 197.5v374q0 46 -23 59v8h124v-8q-22 -13 -22 -59v-374q0 -125 61 -193.5t169 -59.5q89 7 143.5 74t54.5 155v334q0 45 -20 81.5t-55 41.5v8zM340 758q-34 0 -58 23.5
t-24 57.5q0 35 24 58.5t58 23.5t57.5 -24t23.5 -58t-23.5 -57.5t-57.5 -23.5zM340 913q-31 0 -52.5 -21.5t-21.5 -52.5q0 -30 21.5 -51.5t52.5 -21.5q30 0 51.5 21.5t21.5 51.5q0 31 -21.5 52.5t-51.5 21.5z" />
    <glyph glyph-name="uring" unicode="&#x16f;" horiz-adv-x="536" 
d="M506 7v-7h-102v243q-6 -49 -15.5 -87.5t-28.5 -78t-53 -61.5t-80 -22q-73 0 -119 45.5t-46 130.5v234q0 27 -4 36.5t-18 11.5v7l94 22h7v-326q0 -70 35 -112t96 -31q39 8 67.5 45.5t41 90t18 96.5t5.5 83v77q0 27 -4 36.5t-18 11.5v7l94 22h7v-415q0 -46 23 -59zM283 528
q-34 0 -58 23.5t-24 57.5q0 35 23.5 58.5t58.5 23.5q34 0 57.5 -24t23.5 -58t-23.5 -57.5t-57.5 -23.5zM283 683q-31 0 -52.5 -21.5t-21.5 -52.5q0 -30 21.5 -51.5t52.5 -21.5q30 0 51.5 21.5t21.5 51.5q0 31 -21.5 52.5t-51.5 21.5z" />
    <glyph glyph-name="Uhungarumlaut" unicode="&#x170;" horiz-adv-x="659" 
d="M495 700h124v-8q-42 -22 -42 -112v-345q0 -105 -67.5 -173t-172.5 -68q-119 0 -196.5 67.5t-77.5 197.5v374q0 46 -23 59v8h124v-8q-22 -13 -22 -59v-374q0 -125 61 -193.5t169 -59.5q89 7 143.5 74t54.5 155v334q0 45 -20 81.5t-55 41.5v8zM319 930q22 32 47 11
q24 -22 -4 -47q-78 -75 -127 -108l-8 7q20 33 92 137zM514 941q10 -8 10.5 -20.5t-13.5 -26.5q-72 -69 -127 -108l-8 7q20 33 92 137q23 32 46 11z" />
    <glyph glyph-name="uhungarumlaut" unicode="&#x171;" horiz-adv-x="536" 
d="M506 7v-7h-102v243q-6 -49 -15.5 -87.5t-28.5 -78t-53 -61.5t-80 -22q-73 0 -119 45.5t-46 130.5v234q0 27 -4 36.5t-18 11.5v7l94 22h7v-326q0 -70 35 -112t96 -31q39 8 67.5 45.5t41 90t18 96.5t5.5 83v77q0 27 -4 36.5t-18 11.5v7l94 22h7v-415q0 -46 23 -59zM253 700
q22 32 47 11q24 -22 -4 -47q-78 -75 -127 -108l-8 7q20 33 92 137zM448 711q10 -8 10.5 -20.5t-13.5 -26.5q-72 -69 -127 -108l-8 7q20 33 92 137q23 32 46 11z" />
    <glyph glyph-name="Uogonek" unicode="&#x172;" horiz-adv-x="659" 
d="M495 700h124v-8q-42 -22 -42 -112v-344q0 -86 -46.5 -149t-125.5 -84q-49 -21 -68 -70t6 -83q27 -40 80 -23q17 6 38 29l4 -6q-19 -23 -40 -34q-35 -16 -67.5 -10t-48.5 29q-23 35 1 85.5t72 77.5q-28 -4 -45 -4q-120 0 -197.5 67.5t-77.5 197.5v375q0 45 -22 58v8h124
v-8q-23 -13 -23 -58v-375q0 -125 61 -193.5t169 -59.5q89 7 143.5 74.5t54.5 155.5v333q0 45 -19.5 81.5t-54.5 41.5v8z" />
    <glyph glyph-name="uogonek" unicode="&#x173;" horiz-adv-x="536" 
d="M531 -144l4 -6q-23 -25 -40 -34q-35 -16 -67.5 -10t-48.5 29q-23 36 1.5 87t74.5 78h-50v243q-6 -49 -15.5 -87.5t-28.5 -78t-53 -61.5t-80 -22q-73 0 -119 45.5t-46 130.5v234q0 27 -4.5 36.5t-18.5 11.5v8l94 21h7v-325q0 -70 34.5 -112.5t96.5 -31.5q39 8 67.5 45.5
t41.5 90t18.5 96.5t5.5 83v77q0 27 -4 36.5t-19 11.5v8l95 21h7v-415q0 -46 22 -59v-7h-38q-45 -23 -62 -70t6 -80q29 -40 80 -23q18 6 39 29z" />
    <glyph glyph-name="Wcircumflex" unicode="&#x174;" horiz-adv-x="1015" 
d="M1005 692q-63 -66 -103 -184l-142 -421l34 -87h-79l-196 508l-12 27l-151 -448l33 -87h-78l-196 508q-48 117 -105 184v8h154v-8q-18 -23 -15 -49t25 -85l178 -460l139 410q8 26 12 38q-38 86 -89 146v8h154v-8q-18 -23 -15 -49t25 -85l178 -460l139 410q24 67 23 109
t-32 75v8h119v-8zM507 906l128 -128l-5 -5l-123 79l-122 -79l-6 5z" />
    <glyph glyph-name="wcircumflex" unicode="&#x175;" horiz-adv-x="761" 
d="M633 481h118v-8q-56 -54 -100 -157l-89 -233l32 -83h-79q-123 322 -128 335l-82 -264l30 -71h-79l-124 292q-34 80 -55.5 116.5t-56.5 64.5v8h154v-8q-13 -13 -15 -29t3 -32.5t18 -48.5l120 -282l83 264q-20 50 -37 77.5t-45 50.5v8h154v-8q-14 -15 -15.5 -35t3.5 -37.5
t22 -63.5l94 -244l74 196q19 50 26 82t1.5 58t-27.5 44v8zM385 676l128 -128l-5 -5l-123 79l-122 -79l-6 5z" />
    <glyph glyph-name="Ycircumflex" unicode="&#x176;" horiz-adv-x="622" 
d="M494 700h118v-8q-39 -33 -61 -63t-58 -105l-128 -275v-183q0 -46 23 -59v-7h-124v7q22 13 22 59v172q-168 315 -189 356q-26 46 -87 98v8h175v-8q-41 -41 12 -139l160 -301l136 289q30 71 29.5 99.5t-28.5 51.5v8zM331 906l128 -128l-5 -5l-123 79l-122 -79l-6 5z" />
    <glyph glyph-name="ycircumflex" unicode="&#x177;" horiz-adv-x="519" 
d="M509 473q-69 -71 -115 -185q-80 -199 -116 -288q-31 -78 -68.5 -121.5t-91.5 -43.5q-79 0 -118 71l78 71l6 -5q-9 -49 4.5 -90t51.5 -37q64 7 126 146l-128 301q-34 80 -55.5 116.5t-55.5 64.5v8h153v-8q-12 -13 -14 -29t2.5 -32.5t17.5 -48.5l119 -278l82 204
q20 50 28 81.5t3 58t-27 44.5v8h118v-8zM294 676l128 -128l-5 -5l-123 79l-122 -79l-6 5z" />
    <glyph glyph-name="Ydieresis" unicode="&#x178;" horiz-adv-x="622" 
d="M494 700h118v-8q-39 -33 -61 -63t-58 -105l-128 -275v-183q0 -46 23 -59v-7h-124v7q22 13 22 59v172q-168 315 -189 356q-26 46 -87 98v8h175v-8q-41 -41 12 -139l160 -301l136 289q30 71 29.5 99.5t-28.5 51.5v8zM243 862q19 0 31.5 -13t12.5 -31t-12.5 -31t-31.5 -13
q-18 0 -30.5 13t-12.5 31t12.5 31t30.5 13zM418 862q18 0 31 -13t13 -31t-13 -31t-31 -13t-31 13t-13 31t13 31t31 13z" />
    <glyph glyph-name="Zacute" unicode="&#x179;" 
d="M522 125l6 -4l-22 -121h-413h-83l409 692h-156q-39 0 -73 -10t-62 -30t-44.5 -36t-39.5 -41l-5 3l32 122h436l-410 -693h185q77 0 139 33.5t101 84.5zM388 923q19 -26 -14 -45q-92 -54 -149 -75l-6 9q63 59 122 112q16 12 27.5 11t19.5 -12z" />
    <glyph glyph-name="zacute" unicode="&#x17a;" horiz-adv-x="471" 
d="M445 125l6 -4l-22 -121h-399l320 474h-91q-52 0 -94.5 -18t-63.5 -37t-50 -52l-6 4l33 110h360l-320 -474h119q42 0 74 9t57.5 28.5t39.5 35t37 45.5zM360 693q19 -26 -14 -45q-92 -54 -149 -75l-6 9q63 59 122 112q16 12 27.5 11t19.5 -12z" />
    <glyph glyph-name="Zdotaccent" unicode="&#x17b;" 
d="M522 125l6 -4l-22 -121h-413h-83l409 692h-156q-39 0 -73 -10t-62 -30t-44.5 -36t-39.5 -41l-5 3l32 122h436l-410 -693h185q77 0 139 33.5t101 84.5zM288 862q19 0 31.5 -13t12.5 -31t-12.5 -31t-31.5 -13q-18 0 -30.5 13t-12.5 31t12.5 31t30.5 13z" />
    <glyph glyph-name="zdotaccent" unicode="&#x17c;" horiz-adv-x="471" 
d="M445 125l6 -4l-22 -121h-399l320 474h-91q-52 0 -94.5 -18t-63.5 -37t-50 -52l-6 4l33 110h360l-320 -474h119q42 0 74 9t57.5 28.5t39.5 35t37 45.5zM260 632q19 0 31.5 -13t12.5 -31t-12.5 -31t-31.5 -13q-18 0 -30.5 13t-12.5 31t12.5 31t30.5 13z" />
    <glyph glyph-name="Zcaron" unicode="&#x17d;" 
d="M522 125l6 -4l-22 -121h-413h-83l409 692h-156q-39 0 -73 -10t-62 -30t-44.5 -36t-39.5 -41l-5 3l32 122h436l-410 -693h185q77 0 139 33.5t101 84.5zM417 901l-128 -128l-128 128l5 5l123 -79l122 79z" />
    <glyph glyph-name="zcaron" unicode="&#x17e;" horiz-adv-x="471" 
d="M445 125l6 -4l-22 -121h-399l320 474h-91q-52 0 -94.5 -18t-63.5 -37t-50 -52l-6 4l33 110h360l-320 -474h119q42 0 74 9t57.5 28.5t39.5 35t37 45.5zM388 671l-128 -128l-128 128l5 5l123 -79l122 79z" />
    <glyph glyph-name="longs" unicode="&#x17f;" horiz-adv-x="268" 
d="M241 473h-63v-407q0 -46 22 -59v-7h-123v7q22 13 22 59v327q0 80 -59 80v8h147q-50 2 -96.5 37t-46.5 82q0 53 41 87t113 34q79 0 130 -37l-15 -105h-7q-14 35 -36 68t-55.5 53.5t-64.5 6.5q-25 -11 -34.5 -45.5t-2.5 -76.5q7 -40 36 -72t84 -32h8v-8z" />
    <glyph glyph-name="AEacute" unicode="&#x1fc;" horiz-adv-x="888" 
d="M852 125l6 -4l-22 -121h-406v7q23 14 23 59v203h-239l-49 -77q-85 -134 -37 -185v-7h-118v7q72 62 147 184l280 443q13 23 10 37.5t-17 20.5v8h374l21 -111l-5 -3q-42 48 -93 77t-126 29h-70v-295l252 22v-51l-252 22v-383h81q78 0 139.5 33.5t100.5 84.5zM453 276v371
l-235 -371h235zM683 923q19 -26 -14 -45q-92 -54 -149 -75l-6 9q63 59 122 112q16 12 27.5 11t19.5 -12z" />
    <glyph glyph-name="aeacute" unicode="&#x1fd;" horiz-adv-x="905" 
d="M773 323q47 -12 77 -55.5t24 -108.5q-6 -63 -60 -114t-151 -51q-103 0 -180.5 49t-94.5 145q-6 -84 -52 -139t-128 -55q-65 0 -115.5 29.5t-59.5 81.5q-22 134 121 194q-8 18 -8.5 41.5t8 48t25 45.5t46.5 34t68 13q115 0 155 -88q40 40 95 63t107 25q75 4 140.5 -35.5
t75.5 -122.5h-93zM605 469q-49 -9 -82.5 -46.5t-47.5 -91.5h319q-10 68 -64 110t-125 28zM284 471q-67 0 -105 -53.5t-15 -114.5q73 27 161 27q29 0 60 -9v7q0 62 -25.5 102.5t-75.5 40.5zM232 7q56 4 92 42t48.5 86t12.5 105v72q-23 9 -61 9q-35 0 -68 -7t-66 -23
t-53.5 -43t-30 -65.5t4.5 -91.5q9 -39 45.5 -62.5t75.5 -21.5zM864 157q9 74 -31 120t-101 46h-259q-21 -85 6 -160q55 -153 215 -147q65 3 114 43t56 98zM592 693q19 -26 -14 -45q-92 -54 -149 -75l-6 9q63 59 122 112q16 12 27.5 11t19.5 -12z" />
    <glyph glyph-name="Oslashacute" unicode="&#x1fe;" horiz-adv-x="786" 
d="M650 604q106 -104 106 -252q0 -147 -107 -252.5t-256 -105.5q-143 0 -251 101l-86 -85l-5 5l85 86q-106 104 -106 251q0 148 107.5 253t255.5 105q144 0 252 -101l85 86l6 -6zM126 271q20 -65 58 -123l414 414q-56 81 -137.5 116t-169.5 8q-81 -25 -129 -91.5t-54 -149
t18 -174.5zM495 18q61 19 103.5 61.5t62 99t19.5 122.5t-20 133t-58 122l-413 -414q56 -81 137 -116t169 -8zM492 923q19 -26 -14 -45q-92 -54 -149 -75l-6 9q63 59 122 112q16 12 27.5 11t19.5 -12z" />
    <glyph glyph-name="oslashacute" unicode="&#x1ff;" horiz-adv-x="597" 
d="M491 420q73 -62 73 -161q0 -115 -82.5 -190t-188.5 -75q-102 0 -172 56l-76 -76l-5 5l75 76q-72 61 -72 161q0 118 82 191.5t189 73.5q100 0 172 -56l76 76l5 -5zM127 184q12 -42 36 -81l276 276q-36 55 -89 78.5t-113 5.5q-55 -16 -87 -60t-35.5 -100t12.5 -119zM370 12
q55 16 87 60t35.5 100t-12.5 119q-13 44 -36 82l-277 -277q37 -54 90 -77.5t113 -6.5zM400 693q19 -26 -14 -45q-92 -54 -149 -75l-6 9q63 59 122 112q16 12 27.5 11t19.5 -12z" />
    <glyph glyph-name="Scommaaccent" unicode="&#x218;" horiz-adv-x="580" 
d="M328 710q99 0 220 -94l-30 -104h-7q-79 185 -209 185q-71 0 -114 -34t-48 -82q-3 -36 12.5 -64t43.5 -45.5t65 -34t76.5 -29.5t77.5 -32.5t68 -41.5t48.5 -57t18.5 -80q0 -89 -71 -146t-178 -57q-83 0 -144 24.5t-127 74.5l30 114h7q42 -84 112.5 -138.5t162.5 -54.5
q63 0 110.5 35t53.5 83q5 43 -14 75.5t-54.5 53t-79.5 37.5t-89 36t-82.5 42.5t-61 62t-23.5 89.5q0 70 57.5 126t168.5 56zM317 -83q18 0 30.5 -12.5t12.5 -30.5q0 -59 -71 -117l-4 4q50 43 61 82q-14 -12 -29 -12q-18 0 -30.5 13t-12.5 30q0 18 12.5 30.5t30.5 12.5z" />
    <glyph glyph-name="scommaaccent" unicode="&#x219;" horiz-adv-x="458" 
d="M243 481q37 0 82 -19t78 -45l-20 -92h-5q-23 64 -66 105.5t-86 41.5q-48 0 -77.5 -23t-33.5 -56q-4 -37 28 -62.5t79.5 -41t95 -33t80 -48.5t29.5 -76q-5 -60 -57 -99t-135 -39q-105 0 -195 67l21 100h5q29 -60 83 -106.5t115 -46.5q53 0 90 23.5t42 56.5q4 30 -18 51.5
t-58.5 32.5t-78.5 26t-78 31t-57.5 49t-15.5 79q15 124 153 124zM244 -83q18 0 30.5 -12.5t12.5 -30.5q0 -59 -71 -117l-4 4q50 43 61 82q-14 -12 -29 -12q-18 0 -30.5 13t-12.5 30q0 18 12.5 30.5t30.5 12.5z" />
    <glyph glyph-name="circumflex" unicode="&#x2c6;" horiz-adv-x="336" 
d="M168 706l128 -128l-5 -5l-123 79l-122 -79l-6 5z" />
    <glyph glyph-name="caron" unicode="&#x2c7;" horiz-adv-x="336" 
d="M296 701l-128 -128l-128 128l5 5l123 -79l122 79z" />
    <glyph glyph-name="breve" unicode="&#x2d8;" horiz-adv-x="313" 
d="M266 705h7q-5 -58 -35.5 -90.5t-81.5 -32.5t-81.5 33t-34.5 90h7q21 -78 109 -78t110 78z" />
    <glyph glyph-name="dotaccent" unicode="&#x2d9;" horiz-adv-x="167" 
d="M83 662q19 0 31.5 -13t12.5 -31t-12.5 -31t-31.5 -13q-18 0 -30.5 13t-12.5 31t12.5 31t30.5 13z" />
    <glyph glyph-name="ring" unicode="&#x2da;" horiz-adv-x="243" 
d="M122 558q-34 0 -58 23.5t-24 57.5q0 35 24 58.5t58 23.5t57.5 -24t23.5 -58t-23.5 -57.5t-57.5 -23.5zM122 713q-31 0 -52.5 -21.5t-21.5 -52.5q0 -30 21.5 -51.5t52.5 -21.5q30 0 51.5 21.5t21.5 51.5q0 31 -21.5 52.5t-51.5 21.5z" />
    <glyph glyph-name="ogonek" unicode="&#x2db;" horiz-adv-x="247" 
d="M203 -144l4 -6q-23 -25 -41 -34q-34 -17 -67 -10.5t-48 29.5q-25 39 5.5 94.5t86.5 77.5l5 -3q-49 -21 -69 -70.5t5 -83.5q29 -40 80 -23q18 6 39 29z" />
    <glyph glyph-name="tilde" unicode="&#x2dc;" horiz-adv-x="386" 
d="M338 666l8 -2q-29 -89 -86 -89q-33 0 -89.5 20.5t-74.5 20.5q-20 0 -29.5 -9.5t-18.5 -37.5l-8 3q14 43 34.5 63.5t54.5 20.5q31 0 82.5 -20t79.5 -19q17 0 27.5 10.5t19.5 38.5z" />
    <glyph glyph-name="hungarumlaut" unicode="&#x2dd;" horiz-adv-x="378" 
d="M132 730q22 32 47 11q24 -22 -4 -47q-78 -75 -127 -108l-8 7q20 33 92 137zM327 741q10 -8 10.5 -20.5t-13.5 -26.5q-72 -69 -127 -108l-8 7q20 33 92 137q23 32 46 11z" />
    <glyph glyph-name="Wgrave" unicode="&#x1e80;" horiz-adv-x="1015" 
d="M1005 692q-63 -66 -103 -184l-142 -421l34 -87h-79l-196 508l-12 27l-151 -448l33 -87h-78l-196 508q-48 117 -105 184v8h154v-8q-18 -23 -15 -49t25 -85l178 -460l139 410q8 26 12 38q-38 86 -89 146v8h154v-8q-18 -23 -15 -49t25 -85l178 -460l139 410q24 67 23 109
t-32 75v8h119v-8zM455 924q59 -53 122 -112l-6 -9q-57 21 -149 75q-33 19 -14 45q8 11 19.5 12t27.5 -11z" />
    <glyph glyph-name="wgrave" unicode="&#x1e81;" horiz-adv-x="761" 
d="M633 481h118v-8q-56 -54 -100 -157l-89 -233l32 -83h-79q-123 322 -128 335l-82 -264l30 -71h-79l-124 292q-34 80 -55.5 116.5t-56.5 64.5v8h154v-8q-13 -13 -15 -29t3 -32.5t18 -48.5l120 -282l83 264q-20 50 -37 77.5t-45 50.5v8h154v-8q-14 -15 -15.5 -35t3.5 -37.5
t22 -63.5l94 -244l74 196q19 50 26 82t1.5 58t-27.5 44v8zM323 694q59 -53 122 -112l-6 -9q-57 21 -149 75q-33 19 -14 45q8 11 19.5 12t27.5 -11z" />
    <glyph glyph-name="Wacute" unicode="&#x1e82;" horiz-adv-x="1015" 
d="M1005 692q-63 -66 -103 -184l-142 -421l34 -87h-79l-196 508l-12 27l-151 -448l33 -87h-78l-196 508q-48 117 -105 184v8h154v-8q-18 -23 -15 -49t25 -85l178 -460l139 410q8 26 12 38q-38 86 -89 146v8h154v-8q-18 -23 -15 -49t25 -85l178 -460l139 410q24 67 23 109
t-32 75v8h119v-8zM607 923q19 -26 -14 -45q-92 -54 -149 -75l-6 9q63 59 122 112q16 12 27.5 11t19.5 -12z" />
    <glyph glyph-name="wacute" unicode="&#x1e83;" horiz-adv-x="761" 
d="M633 481h118v-8q-56 -54 -100 -157l-89 -233l32 -83h-79q-123 322 -128 335l-82 -264l30 -71h-79l-124 292q-34 80 -55.5 116.5t-56.5 64.5v8h154v-8q-13 -13 -15 -29t3 -32.5t18 -48.5l120 -282l83 264q-20 50 -37 77.5t-45 50.5v8h154v-8q-14 -15 -15.5 -35t3.5 -37.5
t22 -63.5l94 -244l74 196q19 50 26 82t1.5 58t-27.5 44v8zM515 693q19 -26 -14 -45q-92 -54 -149 -75l-6 9q63 59 122 112q16 12 27.5 11t19.5 -12z" />
    <glyph glyph-name="Wdieresis" unicode="&#x1e84;" horiz-adv-x="1015" 
d="M1005 692q-63 -66 -103 -184l-142 -421l34 -87h-79l-196 508l-12 27l-151 -448l33 -87h-78l-196 508q-48 117 -105 184v8h154v-8q-18 -23 -15 -49t25 -85l178 -460l139 410q8 26 12 38q-38 86 -89 146v8h154v-8q-18 -23 -15 -49t25 -85l178 -460l139 410q24 67 23 109
t-32 75v8h119v-8zM419 862q19 0 31.5 -13t12.5 -31t-12.5 -31t-31.5 -13q-18 0 -30.5 13t-12.5 31t12.5 31t30.5 13zM594 862q18 0 31 -13t13 -31t-13 -31t-31 -13t-31 13t-13 31t13 31t31 13z" />
    <glyph glyph-name="wdieresis" unicode="&#x1e85;" horiz-adv-x="761" 
d="M633 481h118v-8q-56 -54 -100 -157l-89 -233l32 -83h-79q-123 322 -128 335l-82 -264l30 -71h-79l-124 292q-34 80 -55.5 116.5t-56.5 64.5v8h154v-8q-13 -13 -15 -29t3 -32.5t18 -48.5l120 -282l83 264q-20 50 -37 77.5t-45 50.5v8h154v-8q-14 -15 -15.5 -35t3.5 -37.5
t22 -63.5l94 -244l74 196q19 50 26 82t1.5 58t-27.5 44v8zM297 632q19 0 31.5 -13t12.5 -31t-12.5 -31t-31.5 -13q-18 0 -30.5 13t-12.5 31t12.5 31t30.5 13zM472 632q18 0 31 -13t13 -31t-13 -31t-31 -13t-31 13t-13 31t13 31t31 13z" />
    <glyph glyph-name="Ygrave" unicode="&#x1ef2;" horiz-adv-x="622" 
d="M494 700h118v-8q-39 -33 -61 -63t-58 -105l-128 -275v-183q0 -46 23 -59v-7h-124v7q22 13 22 59v172q-168 315 -189 356q-26 46 -87 98v8h175v-8q-41 -41 12 -139l160 -301l136 289q30 71 29.5 99.5t-28.5 51.5v8zM298 924q59 -53 122 -112l-6 -9q-57 21 -149 75
q-33 19 -14 45q8 11 19.5 12t27.5 -11z" />
    <glyph glyph-name="ygrave" unicode="&#x1ef3;" horiz-adv-x="519" 
d="M509 473q-69 -71 -115 -185q-80 -199 -116 -288q-31 -78 -68.5 -121.5t-91.5 -43.5q-79 0 -118 71l78 71l6 -5q-9 -49 4.5 -90t51.5 -37q64 7 126 146l-128 301q-34 80 -55.5 116.5t-55.5 64.5v8h153v-8q-12 -13 -14 -29t2.5 -32.5t17.5 -48.5l119 -278l82 204
q20 50 28 81.5t3 58t-27 44.5v8h118v-8zM252 694q59 -53 122 -112l-6 -9q-57 21 -149 75q-33 19 -14 45q8 11 19.5 12t27.5 -11z" />
    <glyph glyph-name="endash" unicode="&#x2013;" horiz-adv-x="519" 
d="M40 354h439v-8h-439v8z" />
    <glyph glyph-name="emdash" unicode="&#x2014;" horiz-adv-x="583" 
d="M40 354h503v-8h-503v8z" />
    <glyph glyph-name="quoteleft" unicode="&#x2018;" horiz-adv-x="188" 
d="M94 617q22 0 38 -15.5t16 -38.5t-16 -38.5t-38 -15.5t-38 15.5t-16 38.5q0 76 90 148l5 -5q-63 -53 -77 -103q14 14 36 14z" />
    <glyph glyph-name="quoteright" unicode="&#x2019;" horiz-adv-x="189" 
d="M95 711q22 0 38 -16.5t16 -38.5q0 -75 -90 -147l-5 5q62 54 77 103q-17 -15 -36 -15q-22 0 -38.5 16t-16.5 38t16 38.5t39 16.5z" />
    <glyph glyph-name="quotesinglbase" unicode="&#x201a;" horiz-adv-x="188" 
d="M94 103q22 0 38 -15.5t16 -38.5q0 -76 -90 -148l-5 5q62 53 78 103q-17 -15 -37 -15q-22 0 -38 16t-16 39t16 38.5t38 15.5z" />
    <glyph glyph-name="quotedblleft" unicode="&#x201c;" horiz-adv-x="356" 
d="M262 617q22 0 38 -15.5t16 -38.5t-16 -38.5t-38 -15.5t-38 15.5t-16 38.5q0 76 90 148l5 -5q-62 -53 -78 -103q16 14 37 14zM94 617q22 0 38 -15.5t16 -38.5t-16 -38.5t-38 -15.5t-38 15.5t-16 38.5q0 76 90 148l5 -5q-63 -53 -77 -103q14 14 36 14z" />
    <glyph glyph-name="quotedblright" unicode="&#x201d;" horiz-adv-x="356" 
d="M94 711q22 0 38 -16t16 -39q0 -75 -90 -147l-5 5q63 54 77 103q-15 -15 -36 -15q-22 0 -38 16t-16 38q0 23 16 39t38 16zM261 711q23 0 39 -16.5t16 -38.5q0 -75 -90 -147l-5 5q62 54 77 103q-17 -15 -37 -15q-22 0 -38 16t-16 38t16 38.5t38 16.5z" />
    <glyph glyph-name="quotedblbase" unicode="&#x201e;" horiz-adv-x="356" 
d="M94 103q23 0 39 -16t16 -38q0 -76 -90 -148l-5 5q61 54 77 103q-17 -15 -37 -15q-22 0 -38 16t-16 39t16 38.5t38 15.5zM262 103q22 0 38 -15.5t16 -38.5q0 -76 -90 -148l-5 5q62 53 78 103q-17 -15 -37 -15q-22 0 -38 16t-16 39t16 38.5t38 15.5z" />
    <glyph glyph-name="dagger" unicode="&#x2020;" horiz-adv-x="402" 
d="M362 541l-38 -28l-120 26l26 -89l-27 -315h-4l-26 315q18 54 26 89l-121 -26l-38 28l38 28l120 -26l-25 119l28 38l28 -38l-25 -119l120 26z" />
    <glyph glyph-name="daggerdbl" unicode="&#x2021;" horiz-adv-x="402" 
d="M204 295l120 26l38 -28l-38 -28l-120 26l26 -119l-29 -37l-28 37l26 119l-121 -26l-38 28l38 28l121 -26l-26 122l26 122l-121 -26l-38 28l38 28l121 -26l-26 119l28 38l29 -38l-26 -119l120 26l38 -28l-38 -28l-120 26l26 -122z" />
    <glyph glyph-name="bullet" unicode="&#x2022;" horiz-adv-x="240" 
d="M120 318q33 0 56.5 -23.5t23.5 -56.5q0 -34 -23.5 -57t-56.5 -23t-56.5 23t-23.5 57q0 33 23.5 56.5t56.5 23.5z" />
    <glyph glyph-name="ellipsis" unicode="&#x2026;" horiz-adv-x="621" 
d="M95 103q23 0 38.5 -15.5t15.5 -38.5t-16 -39t-38 -16q-23 0 -39 16t-16 39q0 22 16 38t39 16zM311 103q23 0 38.5 -15.5t15.5 -38.5t-16 -39t-38 -16t-38 16t-16 39t15.5 38.5t38.5 15.5zM527 103q23 0 38.5 -15.5t15.5 -38.5t-16 -39t-38 -16t-38 16t-16 39t15.5 38.5
t38.5 15.5z" />
    <glyph glyph-name="perthousand" unicode="&#x2030;" horiz-adv-x="1532" 
d="M451 514q0 -81 -61 -138t-145 -57q-83 0 -144 57t-61 138q0 82 61 139t144 57q84 0 145 -57t61 -139zM245 328q63 0 102 54t39 132q0 79 -38.5 133t-102.5 54q-63 0 -101.5 -54t-38.5 -133q0 -78 38.5 -132t101.5 -54zM800 386q84 0 144.5 -57t60.5 -139t-61 -138.5
t-144 -56.5t-144 57t-61 138q0 82 61 139t144 57zM800 4q63 0 102 54t39 132q0 79 -38.5 133t-102.5 54q-63 0 -102 -54t-39 -133q0 -78 39 -132t102 -54zM1287 386q84 0 144.5 -57t60.5 -139t-61 -138.5t-144 -56.5t-144 57t-61 138q0 82 61 139t144 57zM1287 4
q63 0 102 54t39 132q0 79 -38.5 133t-102.5 54t-102.5 -54t-38.5 -133q0 -78 39 -132t102 -54zM732 743h7l-407 -777h-8z" />
    <glyph glyph-name="guilsinglleft" unicode="&#x2039;" horiz-adv-x="224" 
d="M184 426l-133 -133l133 -133l-5 -6l-139 139l139 139z" />
    <glyph glyph-name="guilsinglright" unicode="&#x203a;" horiz-adv-x="224" 
d="M45 432l139 -139l-139 -139l-5 6l133 133l-133 133z" />
    <glyph glyph-name="fraction" unicode="&#x2044;" horiz-adv-x="444" 
d="M396 866h8l-356 -1033h-8z" />
    <glyph glyph-name="Euro" unicode="&#x20ac;" horiz-adv-x="881" 
d="M834 202l7 -4q-98 -204 -327 -204q-127 0 -228.5 79.5t-130.5 199.5h-115v7h113q-8 38 -8 72q0 35 8 72h-113v8h115q30 119 135 198.5t232 79.5q78 0 134.5 -19.5t123.5 -63.5l-30 -115h-7q-59 94 -144 144.5t-179 29.5q-86 -19 -136.5 -88.5t-59.5 -165.5h363v-8h-363
q-6 -72 15 -144h294v-7h-292v-2q40 -132 141 -197t234 -45q142 22 218 173z" />
    <glyph glyph-name="bitcoin" unicode="&#x20bf;" horiz-adv-x="640" 
d="M610 188q0 -45 -22 -80.5t-59.5 -57t-80 -33t-90.5 -15.5v-109h-8v108q-12 -1 -35 -1h-105v-107h-8v107h-162v7q22 15 22 59v568q0 45 -22 58v8h162v107h8v-107h62q43 0 78 -4v111h8v-112q208 -24 209 -161q-1 -137 -202 -160q64 -7 116.5 -26t90.5 -60.5t38 -99.5z
M141 692v-316h131q216 0 216 158t-216 158h-131zM315 7q113 0 164.5 52t51.5 129q0 76 -51.5 128t-164.5 52h-174v-361h174z" />
    <glyph glyph-name="afii61352" unicode="&#x2116;" horiz-adv-x="1159" 
d="M745 309h374v-7h-374v7zM530 692v8h135v-8q-26 -13 -45 -46.5t-19 -66.5v-579h-14l-476 609v-489q0 -32 19 -65.5t45 -47.5v-7h-135v7q26 14 45 47.5t19 65.5v498l-64 82h101l453 -574v453q0 33 -19 66.5t-45 46.5zM932 417q-63 0 -108.5 42.5t-45.5 103.5
q0 62 45.5 104.5t108.5 42.5q62 0 107.5 -42.5t45.5 -104.5q0 -61 -45.5 -103.5t-107.5 -42.5zM932 703q-48 0 -77 -40.5t-29 -99.5t29 -99t77 -40q47 0 76 40t29 99t-28.5 99.5t-76.5 40.5z" />
    <glyph glyph-name="minus" unicode="&#x2212;" horiz-adv-x="465" 
d="M40 354h385v-8h-385v8z" />
    <glyph glyph-name="approxequal" unicode="&#x2248;" horiz-adv-x="575" 
d="M407 335q-26 0 -52 10t-41 20.5t-39 30.5q-23 18 -33.5 26t-30.5 16.5t-39 8.5q-89 0 -124 -107l-8 2q37 113 132 113q20 0 40.5 -9t32.5 -17.5t35 -26.5q24 -20 38 -29.5t39 -19.5t50 -10q43 0 74.5 25.5t46.5 71.5l7 -3q-16 -49 -49.5 -75.5t-78.5 -26.5zM407 146
q-26 0 -52 10t-41 20.5t-39 30.5q-23 18 -33.5 26t-30.5 16.5t-39 8.5q-88 0 -124 -107l-8 2q37 113 132 113q20 0 40.5 -9t32.5 -17.5t35 -26.5q24 -20 38 -29.5t39 -19.5t50 -10q43 0 74.5 25.5t46.5 71.5l7 -3q-16 -49 -49.5 -75.5t-78.5 -26.5z" />
    <glyph glyph-name="notequal" unicode="&#x2260;" horiz-adv-x="465" 
d="M425 433h-105l-165 -166h270v-8h-278l-64 -63l-5 5l58 58h-96v8h104l166 166h-270v7h277l64 64l5 -6l-58 -58h97v-7z" />
    <glyph glyph-name="lessequal" unicode="&#x2264;" horiz-adv-x="383" 
d="M40 70v8h303v-8h-303zM343 422v-9l-293 -128l293 -129v-8l-303 133v8z" />
    <glyph glyph-name="greaterequal" unicode="&#x2265;" horiz-adv-x="382" 
d="M40 70v8h302v-8h-302zM40 422l302 -133v-8l-302 -133v8l292 129l-292 128v9z" />
    <glyph glyph-name="commaaccent" unicode="&#xf6c3;" horiz-adv-x="166" 
d="M83 -83q18 0 30.5 -12.5t12.5 -30.5q0 -59 -71 -117l-4 4q50 43 61 82q-14 -12 -29 -12q-18 0 -30.5 13t-12.5 30q0 18 12.5 30.5t30.5 12.5z" />
    <glyph glyph-name="commaaccent.cap" horiz-adv-x="166" 
d="M83 -83q18 0 30.5 -12.5t12.5 -30.5q0 -59 -71 -117l-4 4q50 43 61 82q-14 -12 -29 -12q-18 0 -30.5 13t-12.5 30q0 18 12.5 30.5t30.5 12.5z" />
    </font>
</defs>
</svg>
